<svg width="24" height="24" viewBox="0 0 24 24" fill="none" xmlns="http://www.w3.org/2000/svg">
<path fill-rule="evenodd" clip-rule="evenodd" d="M22.2928 6.50526C22.4282 6.5968 22.5392 6.72014 22.6159 6.86449C22.6926 7.00884 22.7327 7.16979 22.7328 7.33326V16.6666C22.7328 16.83 22.6927 16.991 22.616 17.1354C22.5393 17.2797 22.4285 17.4031 22.2931 17.4947C22.1577 17.5863 22.0019 17.6432 21.8394 17.6607C21.6768 17.6781 21.5125 17.6554 21.3608 17.5946L14.6941 14.9279C14.4559 14.824 14.2674 14.6315 14.1687 14.391C14.0699 14.1505 14.0687 13.8811 14.1653 13.6397C14.2619 13.3984 14.4486 13.2041 14.686 13.0981C14.9233 12.9922 15.1926 12.9827 15.4368 13.0719L20.7328 15.1893V8.81059L15.4368 10.9279C15.1926 11.0171 14.9233 11.0077 14.686 10.9017C14.4486 10.7957 14.2619 10.6015 14.1653 10.3601C14.0687 10.1188 14.0699 9.84932 14.1687 9.60885C14.2674 9.36838 14.4559 9.1758 14.6941 9.07193L21.3608 6.40526C21.5127 6.34428 21.6772 6.32151 21.8399 6.33894C22.0027 6.35638 22.1586 6.41349 22.2941 6.50526H22.2928Z" fill="white"/>
<path fill-rule="evenodd" clip-rule="evenodd" d="M3.06576 5.66675C2.97735 5.66675 2.89257 5.70187 2.83005 5.76438C2.76754 5.82689 2.73242 5.91168 2.73242 6.00008V18.0001C2.73242 18.1841 2.88176 18.3334 3.06576 18.3334H13.7324C13.8208 18.3334 13.9056 18.2983 13.9681 18.2358C14.0306 18.1733 14.0658 18.0885 14.0658 18.0001V6.00008C14.0658 5.91168 14.0306 5.82689 13.9681 5.76438C13.9056 5.70187 13.8208 5.66675 13.7324 5.66675H3.06576ZM0.732422 6.00008C0.732422 4.71208 1.77776 3.66675 3.06576 3.66675H13.7324C15.0204 3.66675 16.0658 4.71208 16.0658 6.00008V18.0001C16.0658 18.6189 15.8199 19.2124 15.3823 19.65C14.9448 20.0876 14.3513 20.3334 13.7324 20.3334H3.06576C2.75934 20.3334 2.45592 20.2731 2.17283 20.1558C1.88973 20.0385 1.63251 19.8667 1.41584 19.65C0.978255 19.2124 0.732422 18.6189 0.732422 18.0001V6.00008Z" fill="white"/>
</svg>
