<svg width="26" height="26" viewBox="0 0 26 26" fill="none" xmlns="http://www.w3.org/2000/svg">
<g id="Social media logo">
<path id="bg" d="M24.1413 13.0846C24.1413 19.1983 19.185 24.1601 13.0658 24.1601C6.94655 24.1601 1.99023 19.1983 1.99023 13.0846C1.99023 6.96534 6.94655 2.00903 13.0658 2.00903C19.185 2.00903 24.1413 6.96534 24.1413 13.0846Z" fill="#333333"/>
<path id="apple" d="M18.2565 10.282C18.196 10.3173 16.7573 11.0613 16.7573 12.7111C16.8251 14.5925 18.5729 15.2523 18.6029 15.2523C18.5729 15.2876 18.339 16.1512 17.6462 17.0564C17.0963 17.8362 16.4861 18.6224 15.5593 18.6224C14.6778 18.6224 14.3614 18.1027 13.3442 18.1027C12.2519 18.1027 11.9428 18.6224 11.1065 18.6224C10.1798 18.6224 9.52426 17.7941 8.94444 17.0216C8.19116 16.0106 7.5509 14.424 7.5283 12.9006C7.51307 12.0934 7.67915 11.2999 8.10075 10.6259C8.6958 9.68492 9.75816 9.04617 10.9183 9.0251C11.8072 8.99717 12.5983 9.5938 13.1408 9.5938C13.6607 9.5938 14.6326 9.0251 15.7323 9.0251C16.207 9.02556 17.4727 9.15881 18.2565 10.282ZM13.0656 8.86393C12.9074 8.12673 13.3442 7.38954 13.7511 6.91929C14.2709 6.3506 15.092 5.9646 15.8001 5.9646C15.8453 6.70179 15.5588 7.4248 15.0468 7.95136C14.5874 8.52006 13.7963 8.94818 13.0656 8.86393Z" fill="white"/>
</g>
</svg>
