<svg width="202" height="60" viewBox="0 0 202 60" fill="none" xmlns="http://www.w3.org/2000/svg">
<path d="M196.762 1.14062H4.73085C2.91846 1.14062 1.44922 2.60814 1.44922 4.4184V55.224C1.44922 57.0342 2.91846 58.5017 4.73085 58.5017H196.762C198.575 58.5017 200.044 57.0342 200.044 55.224V4.4184C200.044 2.60814 198.575 1.14062 196.762 1.14062Z" stroke="white" stroke-width="2"/>
<path d="M48.0519 28.4422C48.0139 23.9048 51.7728 21.6931 51.9478 21.5943C49.8172 18.4933 46.5148 18.0677 45.3506 18.0373C42.5733 17.7485 39.8872 19.6942 38.4719 19.6942C37.0337 19.6942 34.8574 18.0677 32.5062 18.1133C29.4853 18.1589 26.6623 19.907 25.1176 22.6127C21.9217 28.1382 24.3034 36.2553 27.3699 40.7243C28.8994 42.9132 30.6876 45.3529 33.0313 45.2692C35.3216 45.178 36.1815 43.81 38.9436 43.81C41.683 43.81 42.4895 45.2692 44.8789 45.2161C47.3366 45.178 48.8889 43.0195 50.3651 40.8155C52.1381 38.3074 52.8458 35.8373 52.8762 35.7157C52.8153 35.6776 48.0976 33.8764 48.0519 28.4422ZM43.5396 15.096C44.7723 13.5531 45.6169 11.4631 45.381 9.33496C43.6005 9.41092 41.3633 10.5662 40.085 12.0711C38.9512 13.4011 37.9316 15.5748 38.1979 17.6193C40.1915 17.7637 42.2536 16.6084 43.5396 15.096Z" fill="white"/>
<path d="M81.2446 44.9427H78.0411L76.2834 39.4401H70.1883L68.5143 44.9427H65.3945L71.4363 26.2003H75.1648L81.2446 44.9427ZM75.7583 37.1295L74.168 32.235C74.0006 31.7333 73.681 30.5553 73.2244 28.7008H73.1712C72.9886 29.4989 72.6842 30.6769 72.2809 32.235L70.721 37.1295H75.7583ZM96.7527 38.0188C96.7527 40.3142 96.1283 42.1306 94.8805 43.4683C93.7615 44.6539 92.3692 45.2467 90.7104 45.2467C88.9145 45.2467 87.6289 44.6083 86.8454 43.3314V50.4226H83.8394V35.8679C83.8394 34.4239 83.8017 32.9418 83.7254 31.4293H86.3729L86.541 33.5727H86.5935C87.5985 31.9614 89.1204 31.1481 91.1591 31.1481C92.7573 31.1481 94.0888 31.779 95.1545 33.0406C96.2194 34.3023 96.7527 35.9668 96.7527 38.0188ZM93.6934 38.1328C93.6934 36.818 93.3964 35.7312 92.8032 34.8799C92.1559 33.9907 91.2814 33.5498 90.1853 33.5498C89.4478 33.5498 88.7701 33.8006 88.1687 34.2871C87.5682 34.7811 87.1719 35.4272 86.9898 36.2175C86.9061 36.514 86.8602 36.8255 86.8528 37.1295V39.3869C86.8528 40.3673 87.1572 41.1957 87.7585 41.8798C88.3591 42.5562 89.1434 42.8982 90.109 42.8982C91.2428 42.8982 92.1256 42.4574 92.7573 41.591C93.3734 40.7094 93.6934 39.5617 93.6934 38.1328ZM112.321 38.0188C112.321 40.3142 111.697 42.1306 110.449 43.4683C109.33 44.6539 107.938 45.2467 106.279 45.2467C104.483 45.2467 103.197 44.6083 102.413 43.3314V50.4226H99.4075V35.8679C99.4075 34.4239 99.3698 32.9418 99.2935 31.4293H101.942L102.109 33.5727H102.162C103.167 31.9614 104.688 31.1481 106.728 31.1481C108.326 31.1481 109.658 31.779 110.723 33.0406C111.781 34.3023 112.321 35.9668 112.321 38.0188ZM109.254 38.1328C109.254 36.818 108.958 35.7312 108.364 34.8799C107.717 33.9907 106.842 33.5498 105.747 33.5498C105.008 33.5498 104.331 33.8006 103.722 34.2871C103.121 34.7811 102.725 35.4272 102.543 36.2175C102.451 36.5899 102.399 36.894 102.399 37.1295V39.3869C102.399 40.3673 102.703 41.1957 103.304 41.8798C103.905 42.5562 104.688 42.8982 105.663 42.8982C106.796 42.8982 107.679 42.4574 108.311 41.591C108.942 40.7094 109.254 39.5617 109.254 38.1328ZM129.723 39.6909C129.723 41.287 129.168 42.5866 128.057 43.5823C126.84 44.6767 125.127 45.2239 122.943 45.2239C120.927 45.2239 119.307 44.8363 118.081 44.0534L118.773 41.553C120.09 42.3358 121.543 42.7234 123.118 42.7234C124.252 42.7234 125.135 42.465 125.766 41.9557C126.398 41.4465 126.717 40.7626 126.717 39.9113C126.717 39.1513 126.451 38.5128 125.934 37.9884C125.416 37.4716 124.556 36.9852 123.347 36.5444C120.06 35.3207 118.416 33.527 118.416 31.1786C118.416 29.6433 118.994 28.3817 120.158 27.4012C121.315 26.4207 122.852 25.9268 124.77 25.9268C126.474 25.9268 127.897 26.2232 129.031 26.8159L128.278 29.2633C127.212 28.6857 126.017 28.4044 124.67 28.4044C123.613 28.4044 122.776 28.6628 122.182 29.1796C121.68 29.6433 121.429 30.2057 121.429 30.8746C121.429 31.6117 121.719 32.2274 122.297 32.7062C122.799 33.147 123.704 33.6335 125.021 34.1503C126.634 34.8039 127.821 35.5563 128.582 36.4304C129.343 37.3044 129.723 38.3912 129.723 39.6909ZM139.691 33.6867H136.373V40.2457C136.373 41.9178 136.959 42.7462 138.132 42.7462C138.671 42.7462 139.113 42.7006 139.47 42.6094L139.554 44.8895C138.961 45.11 138.185 45.2239 137.218 45.2239C136.031 45.2239 135.103 44.8591 134.433 44.1371C133.764 43.415 133.429 42.199 133.429 40.4966V33.6867H131.458V31.4369H133.429V28.9593L136.382 28.07V31.4369H139.699L139.691 33.6867ZM154.613 38.0796C154.613 40.1545 154.02 41.8646 152.832 43.1947C151.592 44.5703 149.941 45.2543 147.879 45.2543C145.893 45.2543 144.31 44.5931 143.13 43.2859C141.951 41.971 141.366 40.3065 141.366 38.3077C141.366 36.21 141.974 34.4999 143.192 33.1622C144.409 31.8245 146.045 31.1633 148.107 31.1633C150.093 31.1633 151.691 31.8245 152.893 33.1394C154.034 34.4087 154.613 36.058 154.613 38.0796ZM151.494 38.148C151.494 36.9092 151.227 35.8451 150.686 34.9635C150.055 33.8918 149.157 33.3522 147.986 33.3522C146.783 33.3522 145.855 33.8918 145.231 34.9635C144.691 35.8527 144.424 36.932 144.424 38.2088C144.424 39.4477 144.691 40.5117 145.231 41.401C145.878 42.4726 146.791 43.0123 147.963 43.0123C149.112 43.0123 150.009 42.465 150.664 41.3782C151.22 40.4585 151.494 39.3869 151.494 38.148ZM164.391 34.0742C164.079 34.0211 163.759 33.9907 163.44 33.9907C162.382 33.9907 161.568 34.3859 160.99 35.1839C160.488 35.8907 160.237 36.78 160.237 37.8516V44.9427H157.231V35.6855C157.231 34.2643 157.208 32.8506 157.147 31.4293H159.765L159.871 34.0134H159.954C160.274 33.1242 160.769 32.4098 161.462 31.8702C162.085 31.3989 162.854 31.1481 163.637 31.1481C163.919 31.1481 164.162 31.171 164.391 31.2014V34.0742ZM177.837 37.5476C177.844 38.0036 177.806 38.4597 177.73 38.9081H168.706C168.736 40.2457 169.177 41.2641 170.014 41.971C170.775 42.6018 171.757 42.9134 172.967 42.9134C174.306 42.9134 175.523 42.7006 176.619 42.275L177.091 44.3575C175.812 44.9123 174.298 45.1935 172.556 45.1935C170.456 45.1935 168.812 44.5779 167.61 43.3467C166.415 42.1154 165.814 40.4585 165.814 38.3836C165.814 36.3467 166.369 34.6519 167.488 33.2991C168.652 31.8549 170.235 31.1329 172.221 31.1329C174.169 31.1329 175.645 31.8549 176.65 33.2991C177.433 34.4467 177.837 35.8603 177.837 37.5476ZM174.968 36.7724C174.991 35.8832 174.793 35.1155 174.382 34.4618C173.864 33.6258 173.058 33.2079 171.985 33.2079C171.004 33.2079 170.205 33.6182 169.588 34.4314C169.086 35.0775 168.789 35.8603 168.698 36.7648L174.968 36.7724Z" fill="white"/>
<path d="M69.3192 19.5802C68.4823 19.5802 67.7594 19.5422 67.1582 19.4738V10.4066C68.0029 10.2774 68.8551 10.209 69.7074 10.2166C73.1543 10.2166 74.7447 11.9115 74.7447 14.6704C74.7371 17.8549 72.8652 19.5802 69.3192 19.5802ZM69.829 11.3795C69.3649 11.3795 68.9693 11.4099 68.6421 11.4782V18.3642C68.8171 18.3946 69.1595 18.4021 69.6389 18.4021C71.8988 18.4021 73.1848 17.1177 73.1848 14.716C73.1771 12.5651 72.013 11.3795 69.829 11.3795ZM79.6907 19.6486C77.7503 19.6486 76.4871 18.1969 76.4871 16.2285C76.4871 14.1763 77.7731 12.7171 79.7972 12.7171C81.7147 12.7171 83.0009 14.1004 83.0009 16.122C83.0009 18.1969 81.6767 19.6486 79.6907 19.6486ZM79.7439 13.7964C78.6786 13.7964 77.9938 14.792 77.9938 16.1904C77.9938 17.5585 78.6939 18.5541 79.7287 18.5541C80.7712 18.5541 81.4637 17.4901 81.4637 16.16C81.4712 14.8072 80.7864 13.7964 79.7439 13.7964ZM94.0797 12.8539L92.0025 19.4966H90.648L89.7882 16.6161C89.5749 15.9092 89.3927 15.1948 89.2557 14.4728H89.2254C89.1187 15.1948 88.9128 15.9245 88.6921 16.6161L87.779 19.4966H86.4097L84.4539 12.8539H85.9757L86.7289 16.008C86.9044 16.7605 87.0562 17.4673 87.1785 18.1438H87.2088C87.3155 17.5813 87.4976 16.8897 87.7568 16.0233L88.7003 12.8539H89.9022L90.8079 15.9549C91.0286 16.7073 91.2034 17.4445 91.3404 18.1438H91.3781C91.4774 17.4597 91.6218 16.7377 91.8277 15.9549L92.6342 12.8539H94.0797ZM101.742 19.4966H100.266V15.6812C100.266 14.5032 99.8168 13.918 98.9267 13.918C98.0522 13.918 97.4508 14.6704 97.4508 15.5444V19.4966H95.9749V14.754C95.9749 14.1688 95.9593 13.538 95.9215 12.8539H97.2227L97.2908 13.8799H97.3286C97.7248 13.1732 98.5313 12.7171 99.437 12.7171C100.829 12.7171 101.75 13.7812 101.75 15.5216L101.742 19.4966ZM105.813 19.4966H104.337V9.80615H105.813V19.4966ZM111.208 19.6486C109.268 19.6486 108.005 18.1969 108.005 16.2285C108.005 14.1763 109.291 12.7171 111.315 12.7171C113.232 12.7171 114.519 14.1004 114.519 16.122C114.519 18.1969 113.187 19.6486 111.208 19.6486ZM111.262 13.7964C110.196 13.7964 109.512 14.792 109.512 16.1904C109.512 17.5585 110.211 18.5541 111.246 18.5541C112.289 18.5541 112.981 17.4901 112.981 16.16C112.981 14.8072 112.304 13.7964 111.262 13.7964ZM120.347 19.4966L120.24 18.7289H120.202C119.754 19.3446 119.092 19.641 118.255 19.641C117.059 19.641 116.215 18.805 116.215 17.6877C116.215 16.0461 117.638 15.2024 120.103 15.2024V15.0808C120.103 14.2067 119.64 13.766 118.726 13.766C118.072 13.766 117.493 13.9332 116.991 14.26L116.694 13.2872C117.311 12.9071 118.079 12.7095 118.977 12.7095C120.712 12.7095 121.595 13.6216 121.595 15.4532V17.9005C121.595 18.5694 121.625 19.0937 121.694 19.489L120.347 19.4966ZM120.142 16.1904C118.498 16.1904 117.676 16.5857 117.676 17.5281C117.676 18.2273 118.102 18.5694 118.688 18.5694C119.442 18.5694 120.142 17.9993 120.142 17.2165V16.1904ZM128.755 19.4966L128.687 18.4325H128.648C128.223 19.2382 127.507 19.6486 126.51 19.6486C124.905 19.6486 123.718 18.2426 123.718 16.2589C123.718 14.184 124.951 12.7171 126.632 12.7171C127.523 12.7171 128.154 13.0135 128.504 13.6216H128.534V9.80615H130.01V17.7029C130.01 18.3413 130.026 18.9494 130.064 19.489H128.755V19.4966ZM128.542 15.59C128.542 14.6628 127.926 13.8648 126.982 13.8648C125.886 13.8648 125.217 14.8376 125.217 16.1981C125.217 17.5357 125.909 18.4554 126.952 18.4554C127.88 18.4554 128.542 17.6497 128.542 16.6921V15.59ZM139.401 19.6486C137.46 19.6486 136.197 18.1969 136.197 16.2285C136.197 14.1763 137.483 12.7171 139.507 12.7171C141.425 12.7171 142.71 14.1004 142.71 16.122C142.71 18.1969 141.387 19.6486 139.401 19.6486ZM139.454 13.7964C138.388 13.7964 137.703 14.792 137.703 16.1904C137.703 17.5585 138.404 18.5541 139.438 18.5541C140.481 18.5541 141.174 17.4901 141.174 16.16C141.181 14.8072 140.496 13.7964 139.454 13.7964ZM150.662 19.4966H149.186V15.6812C149.186 14.5032 148.737 13.918 147.847 13.918C146.971 13.918 146.371 14.6704 146.371 15.5444V19.4966H144.894V14.754C144.894 14.1688 144.879 13.538 144.841 12.8539H146.142L146.211 13.8799H146.249C146.645 13.1732 147.451 12.7171 148.356 12.7171C149.749 12.7171 150.67 13.7812 150.67 15.5216V19.4966H150.662ZM160.6 13.9635H158.972V17.1861C158.972 18.0069 159.253 18.4174 159.831 18.4174C160.09 18.4174 160.31 18.387 160.486 18.3489L160.524 19.4662C160.235 19.5726 159.854 19.6334 159.375 19.6334C158.21 19.6334 157.51 18.995 157.51 17.3077V13.956H156.537V12.8463H157.51V11.6302L158.964 11.1895V12.8463H160.593L160.6 13.9635ZM168.43 19.4966H166.953V15.7116C166.953 14.526 166.505 13.9256 165.614 13.9256C164.846 13.9256 164.138 14.4424 164.138 15.4988V19.5042H162.662V9.80615H164.138V13.7964H164.169C164.633 13.0743 165.31 12.7171 166.17 12.7171C167.578 12.7171 168.437 13.8115 168.437 15.5444L168.43 19.4966ZM176.442 16.5325H172.006C172.037 17.7866 172.866 18.5009 174.099 18.5009C174.753 18.5009 175.362 18.3946 175.894 18.1893L176.123 19.2153C175.491 19.489 174.753 19.6258 173.893 19.6258C171.816 19.6258 170.584 18.3109 170.584 16.2816C170.584 14.2448 171.846 12.7171 173.726 12.7171C175.422 12.7171 176.488 13.9711 176.488 15.8713C176.503 16.0841 176.488 16.312 176.442 16.5325ZM175.088 15.4761C175.088 14.4499 174.571 13.7279 173.627 13.7279C172.775 13.7279 172.105 14.4652 172.014 15.4761H175.088Z" fill="white"/>
</svg>
