<svg width="1440" height="572" viewBox="0 0 1440 572" fill="none" xmlns="http://www.w3.org/2000/svg">
<rect x="0.5" y="0.136719" width="1440" height="571.5" fill="#4D5B56"/>
<mask id="mask0_20_2340" style="mask-type:luminance" maskUnits="userSpaceOnUse" x="0" y="0" width="1441" height="572">
<rect x="0.5" y="0.136719" width="1440" height="571.5" fill="white"/>
</mask>
<g mask="url(#mask0_20_2340)">
<g opacity="0.0636858">
<mask id="mask1_20_2340" style="mask-type:luminance" maskUnits="userSpaceOnUse" x="168" y="-122" width="1135" height="1132">
<path fill-rule="evenodd" clip-rule="evenodd" d="M168.096 -121.813H1302.12V1009.25H168.096V-121.813Z" fill="white"/>
</mask>
<g mask="url(#mask1_20_2340)">
<path fill-rule="evenodd" clip-rule="evenodd" d="M1300.05 348.535C1300.41 340.469 1296.65 332.896 1290.02 328.284L651.922 -115.557C646.781 -119.136 640.545 -120.502 634.37 -119.407C628.197 -118.308 622.82 -114.88 619.237 -109.748L174.361 526.555C171.809 530.205 170.357 534.477 170.163 538.903C169.811 546.972 173.562 554.541 180.194 559.159L818.29 1003C823.437 1006.58 829.666 1007.94 835.845 1006.85C842.017 1005.75 847.395 1002.32 850.98 997.19L1295.85 360.888C1298.41 357.237 1299.86 352.962 1300.05 348.535ZM168.121 538.815C168.333 534 169.912 529.36 172.687 525.391L617.558 -110.914C621.457 -116.49 627.301 -120.218 634.013 -121.412C640.725 -122.604 647.499 -121.118 653.092 -117.229L1291.19 326.613C1298.4 331.63 1302.48 339.858 1302.09 348.627C1301.88 353.441 1300.3 358.082 1297.53 362.053L852.653 998.354C848.756 1003.93 842.915 1007.66 836.203 1008.85C829.493 1010.05 822.717 1008.56 817.121 1004.67L179.028 560.826C171.817 555.813 167.737 547.583 168.121 538.815Z" fill="#DADADA"/>
</g>
<path fill-rule="evenodd" clip-rule="evenodd" d="M1270.41 342.118C1270.75 334.379 1267.18 327.069 1260.88 322.564L644.435 -117.932C639.474 -121.481 633.421 -122.889 627.396 -121.898C621.369 -120.905 616.094 -117.632 612.537 -112.682L171.013 502.025C168.423 505.635 166.95 509.874 166.758 514.287C166.419 522.028 169.982 529.338 176.289 533.838L792.731 974.341C802.984 981.659 817.29 979.308 824.628 969.09L1266.15 354.38C1268.75 350.772 1270.22 346.529 1270.41 342.118ZM164.718 514.195C164.925 509.39 166.53 504.77 169.353 500.839L610.878 -113.866C614.751 -119.26 620.499 -122.824 627.061 -123.906C633.624 -124.986 640.216 -123.452 645.624 -119.589L1262.07 320.91C1268.94 325.817 1272.82 333.776 1272.45 342.206C1272.24 347.015 1270.64 351.637 1267.81 355.566L826.286 970.272C818.293 981.404 802.701 983.971 791.541 975.996L175.097 535.496C168.23 530.59 164.348 522.628 164.718 514.195Z" fill="#DADADA"/>
<path fill-rule="evenodd" clip-rule="evenodd" d="M1240.77 335.698C1241.09 328.288 1237.72 321.238 1231.74 316.844L636.952 -120.308C627.075 -127.566 613.121 -125.46 605.842 -115.612L167.67 477.499C165.037 481.059 163.543 485.272 163.35 489.675C163.026 497.085 166.403 504.132 172.383 508.525L767.167 945.681C771.956 949.197 777.824 950.642 783.701 949.757C789.58 948.872 794.758 945.753 798.282 940.984L1236.46 347.87C1239.09 344.311 1240.58 340.1 1240.77 335.698ZM161.31 489.581C161.521 484.774 163.149 480.179 166.024 476.292L604.199 -116.82C612.144 -127.573 627.379 -129.873 638.161 -121.948L1232.95 315.203C1239.48 320.004 1243.17 327.7 1242.81 335.788C1242.6 340.595 1240.97 345.19 1238.1 349.08L799.925 942.192C796.075 947.399 790.426 950.802 784.008 951.769C777.594 952.738 771.184 951.158 765.962 947.32L171.172 510.166C164.645 505.367 160.957 497.674 161.31 489.581Z" fill="#DADADA"/>
<path fill-rule="evenodd" clip-rule="evenodd" d="M1211.14 329.277C1211.45 322.191 1208.25 315.407 1202.6 311.124L629.464 -122.684C624.857 -126.17 619.169 -127.658 613.441 -126.876C607.718 -126.095 602.639 -123.135 599.147 -118.542L164.317 452.975C161.643 456.494 160.127 460.67 159.935 465.061C159.625 472.145 162.817 478.929 168.474 483.212L741.614 917.02C751.115 924.208 764.715 922.355 771.929 912.88L1206.76 341.364C1209.43 337.848 1210.95 333.669 1211.14 329.277ZM157.898 464.969C158.106 460.163 159.765 455.587 162.693 451.742L597.519 -119.774C601.344 -124.799 606.901 -128.037 613.165 -128.895C619.431 -129.75 625.657 -128.12 630.698 -124.307L1203.83 309.503C1210.02 314.188 1213.52 321.613 1213.18 329.367C1212.97 334.173 1211.31 338.748 1208.38 342.596L773.556 914.11C765.661 924.48 750.779 926.518 740.378 918.643L167.243 484.832C161.051 480.146 157.558 472.725 157.898 464.969Z" fill="#DADADA"/>
<path fill-rule="evenodd" clip-rule="evenodd" d="M1181.51 322.859C1181.8 316.094 1178.79 309.569 1173.46 305.402L621.977 -125.062C617.552 -128.514 612.044 -130.044 606.467 -129.366C600.887 -128.688 595.912 -125.886 592.45 -121.473L160.969 428.448C158.249 431.912 156.711 436.057 156.52 440.441C156.224 447.205 159.236 453.73 164.573 457.898L716.052 888.363C720.48 891.815 725.985 893.343 731.564 892.665C737.141 891.989 742.119 889.184 745.583 884.772L1177.06 334.853C1179.78 331.39 1181.32 327.24 1181.51 322.859ZM154.479 440.35C154.691 435.54 156.377 430.994 159.36 427.187L590.841 -122.728C594.639 -127.568 600.102 -130.644 606.218 -131.386C612.337 -132.131 618.378 -130.454 623.236 -126.664L1174.71 303.8C1180.57 308.37 1183.87 315.529 1183.55 322.947C1183.34 327.757 1181.65 332.308 1178.67 336.112L747.19 886.028C743.391 890.873 737.928 893.948 731.811 894.686C725.693 895.435 719.648 893.756 714.797 889.967L163.313 459.502C157.458 454.93 154.156 447.771 154.479 440.35Z" fill="#DADADA"/>
<path fill-rule="evenodd" clip-rule="evenodd" d="M1151.89 316.439C1152.17 309.995 1149.34 303.733 1144.31 299.684L614.487 -127.438C605.723 -134.503 592.831 -133.142 585.751 -124.403L157.615 403.925C154.853 407.332 153.286 411.451 153.095 415.826C152.812 422.271 155.645 428.532 160.667 432.582L690.494 859.701C694.741 863.128 700.068 864.694 705.492 864.123C710.923 863.546 715.802 860.901 719.23 856.668L1147.37 328.345C1150.13 324.932 1151.7 320.813 1151.89 316.439ZM151.056 415.738C151.265 410.924 152.987 406.397 156.03 402.643L584.162 -125.682C591.949 -135.294 606.129 -136.792 615.77 -129.022L1145.6 298.101C1151.12 302.551 1154.23 309.441 1153.93 316.528C1153.72 321.339 1152 325.868 1148.95 329.627L720.819 857.946C717.048 862.606 711.678 865.516 705.711 866.146C699.74 866.779 693.881 865.055 689.212 861.286L159.385 434.166C153.859 429.714 150.746 422.823 151.056 415.738Z" fill="#DADADA"/>
<path fill-rule="evenodd" clip-rule="evenodd" d="M1122.27 310.018C1122.54 303.804 1119.95 297.949 1115.17 293.961L606.999 -129.817C602.93 -133.206 597.788 -134.816 592.507 -134.346C587.228 -133.877 582.451 -131.385 579.052 -127.331L154.266 379.397C151.447 382.76 149.857 386.841 149.667 391.207C149.396 397.425 151.986 403.281 156.765 407.268L664.939 831.047C673.334 838.047 685.868 836.932 692.883 828.56L1117.67 321.833C1120.49 318.473 1122.08 314.388 1122.27 310.018ZM147.629 391.117C147.837 386.304 149.591 381.798 152.698 378.089L577.484 -128.637C581.234 -133.11 586.503 -135.858 592.326 -136.373C598.148 -136.892 603.824 -135.116 608.308 -131.377L1116.48 292.397C1121.75 296.797 1124.61 303.25 1124.31 310.11C1124.1 314.93 1122.34 319.433 1119.23 323.138L694.45 829.867C686.71 839.1 672.885 840.326 663.626 832.61L155.455 408.835C150.18 404.435 147.327 397.978 147.629 391.117Z" fill="#DADADA"/>
<path fill-rule="evenodd" clip-rule="evenodd" d="M1092.66 303.602C1092.91 297.698 1090.5 292.102 1086.03 288.236L599.51 -132.192C595.624 -135.554 590.659 -137.204 585.526 -136.837C580.396 -136.471 575.719 -134.137 572.349 -130.261L150.917 354.871C148.042 358.179 146.424 362.23 146.233 366.593C145.975 372.495 148.392 378.095 152.861 381.959L639.378 802.391C643.268 805.748 648.233 807.396 653.364 807.032C658.491 806.669 663.169 804.334 666.538 800.457L1087.97 315.323C1090.85 312.018 1092.47 307.964 1092.66 303.602ZM144.192 366.505C144.403 361.679 146.197 357.196 149.373 353.54L570.806 -131.593C574.531 -135.882 579.707 -138.465 585.38 -138.868C591.056 -139.273 596.549 -137.449 600.846 -133.733L1087.36 286.697C1092.31 290.973 1094.98 297.166 1094.7 303.691C1094.48 308.515 1092.69 312.999 1089.52 316.661L668.08 801.788C664.358 806.079 659.181 808.661 653.509 809.067C647.834 809.466 642.341 807.646 638.045 803.928L151.524 383.496C146.578 379.222 143.909 373.031 144.192 366.505Z" fill="#DADADA"/>
<path fill-rule="evenodd" clip-rule="evenodd" d="M1063.05 297.182C1063.3 291.595 1061.05 286.249 1056.88 282.512L592.017 -134.576C588.312 -137.903 583.527 -139.59 578.546 -139.327C573.566 -139.066 568.984 -136.886 565.651 -133.188L147.563 330.349C144.673 333.549 142.979 337.682 142.791 341.977C142.549 347.563 144.797 352.911 148.96 356.645L613.824 773.736C617.529 777.06 622.314 778.749 627.299 778.489C632.275 778.226 636.856 776.047 640.193 772.352L1058.28 308.812C1061.17 305.611 1062.87 301.477 1063.05 297.182ZM140.752 341.89C140.963 337.122 142.839 332.537 146.047 328.988L564.134 -134.55C567.832 -138.65 572.914 -141.071 578.441 -141.362C583.967 -141.653 589.274 -139.778 593.387 -136.088L1058.25 281.001C1062.87 285.144 1065.36 291.075 1065.09 297.271C1064.88 302.038 1063 306.619 1059.8 310.175L641.711 773.713C638.013 777.811 632.931 780.233 627.405 780.523C621.882 780.813 616.572 778.942 612.46 775.248L147.595 358.156C142.975 354.016 140.484 348.084 140.752 341.89Z" fill="#DADADA"/>
<path fill-rule="evenodd" clip-rule="evenodd" d="M1033.46 290.762C1033.69 285.486 1031.6 280.393 1027.74 276.786L584.531 -136.956C581.002 -140.251 576.395 -141.979 571.566 -141.819C566.735 -141.66 562.253 -139.635 558.948 -136.114L144.211 305.825C141.261 308.968 139.533 313.066 139.345 317.363C139.115 322.64 141.198 327.732 145.056 331.339L588.269 745.078C595.553 751.882 607.031 751.506 613.85 744.241L1028.59 302.3C1031.54 299.156 1033.27 295.06 1033.46 290.762ZM137.304 317.276C137.515 312.493 139.438 307.932 142.719 304.434L557.458 -137.505C561.134 -141.423 566.118 -143.677 571.495 -143.854C576.872 -144.03 581.997 -142.11 585.925 -138.441L1029.14 275.302C1033.44 279.314 1035.75 284.98 1035.5 290.852C1035.29 295.632 1033.36 300.192 1030.08 303.694L615.338 745.634C607.75 753.719 594.978 754.137 586.874 746.566L143.663 332.824C139.366 328.814 137.049 323.143 137.304 317.276Z" fill="#DADADA"/>
<path fill-rule="evenodd" clip-rule="evenodd" d="M1003.87 284.343C1004.08 279.377 1002.16 274.534 998.597 271.063L577.041 -139.339C570.121 -146.074 558.997 -145.939 552.245 -139.04L140.854 281.304C137.839 284.38 136.073 288.449 135.887 292.744C135.668 297.716 137.591 302.556 141.157 306.028L562.712 716.432C569.634 723.164 580.754 723.026 587.504 716.13L998.896 295.789C1001.91 292.708 1003.68 288.642 1003.87 284.343ZM133.849 292.652C134.056 287.857 136.028 283.318 139.393 279.878L550.786 -140.466C558.325 -148.167 570.74 -148.315 578.464 -140.795L1000.02 269.604C1004 273.479 1006.15 278.885 1005.9 284.433C1005.7 289.231 1003.73 293.772 1000.36 297.211L588.965 717.552C581.428 725.254 569.012 725.405 561.286 717.884L139.734 307.482C135.751 303.607 133.606 298.202 133.849 292.652Z" fill="#DADADA"/>
<path fill-rule="evenodd" clip-rule="evenodd" d="M974.283 277.924C974.489 273.257 972.724 268.67 969.45 265.338L569.546 -141.722C562.993 -148.39 552.226 -148.5 545.541 -141.969L137.498 256.777C134.413 259.793 132.608 263.823 132.418 268.129C132.216 272.796 133.981 277.382 137.256 280.719L537.153 687.78C543.708 694.448 554.474 694.555 561.162 688.018L969.205 289.276C972.29 286.261 974.095 282.228 974.283 277.924ZM130.379 268.04C130.591 263.219 132.615 258.703 136.07 255.324L544.111 -143.424C551.602 -150.741 563.663 -150.616 571.004 -143.147L970.908 263.911C974.579 267.646 976.551 272.786 976.324 278.013C976.113 282.837 974.089 287.351 970.633 290.731L562.592 689.479C555.107 696.795 543.039 696.672 535.699 689.204L135.796 282.147C132.128 278.41 130.151 273.266 130.379 268.04Z" fill="#DADADA"/>
<path fill-rule="evenodd" clip-rule="evenodd" d="M944.712 271.506C944.905 267.073 943.341 262.846 940.3 259.603L562.051 -144.106C559.06 -147.302 554.992 -149.147 550.609 -149.296C546.223 -149.444 542.041 -147.88 538.836 -144.894L134.143 232.256C130.98 235.204 129.136 239.2 128.947 243.513C128.753 247.945 130.318 252.172 133.354 255.415L511.604 659.125C517.789 665.725 528.202 666.074 534.822 659.911L939.517 282.761C942.68 279.815 944.521 275.817 944.712 271.506ZM126.907 243.42C127.119 238.57 129.192 234.084 132.744 230.772L537.442 -146.381C541.046 -149.741 545.745 -151.498 550.679 -151.33C555.608 -151.163 560.177 -149.09 563.548 -145.496L941.793 258.215C945.21 261.86 946.97 266.612 946.754 271.596C946.541 276.445 944.466 280.94 940.908 284.249L536.214 661.402C528.779 668.331 517.066 667.938 510.112 660.519L131.864 256.805C128.451 253.158 126.687 248.409 126.907 243.42Z" fill="#DADADA"/>
<path fill-rule="evenodd" clip-rule="evenodd" d="M915.149 265.088C915.332 260.95 913.911 256.972 911.155 253.876L554.56 -146.491C548.74 -153.024 538.677 -153.621 532.127 -147.82L130.78 207.738C127.537 210.609 125.648 214.57 125.46 218.894C125.28 223.029 126.699 227.014 129.456 230.108L486.051 630.476C491.87 637.011 501.929 637.608 508.485 631.803L909.828 276.247C913.073 273.375 914.963 269.411 915.149 265.088ZM123.42 218.805C123.634 213.93 125.768 209.456 129.428 206.215L530.772 -149.343C538.163 -155.889 549.519 -155.217 556.087 -147.845L912.684 252.525C915.793 256.016 917.397 260.509 917.192 265.177C916.978 270.057 914.844 274.527 911.188 277.77L509.84 633.332C502.446 639.872 491.09 639.202 484.521 631.828L127.929 231.465C124.818 227.969 123.216 223.474 123.42 218.805Z" fill="#DADADA"/>
<path fill-rule="evenodd" clip-rule="evenodd" d="M885.603 258.671C885.772 254.828 884.494 251.088 882.01 248.142L547.068 -148.88C544.429 -152.012 540.72 -153.931 536.633 -154.281C532.542 -154.633 528.56 -153.378 525.421 -150.743L127.422 183.22C124.141 185.972 122.154 190.002 121.966 194.278C121.799 198.122 123.072 201.859 125.558 204.808L460.498 601.831C465.951 608.294 475.665 609.129 482.147 603.691L880.146 269.733C883.426 266.98 885.416 262.947 885.603 258.671ZM119.925 194.189C120.137 189.342 122.391 184.777 126.105 181.661L524.105 -152.302C527.665 -155.285 532.173 -156.711 536.807 -156.311C541.44 -155.913 545.638 -153.738 548.631 -150.191L883.569 246.832C886.386 250.17 887.831 254.406 887.642 258.758C887.431 263.604 885.177 268.171 881.46 271.291L483.46 605.25C476.117 611.412 465.113 610.464 458.937 603.141L123.998 206.115C121.181 202.779 119.735 198.543 119.925 194.189Z" fill="#DADADA"/>
<path fill-rule="evenodd" clip-rule="evenodd" d="M856.065 252.253C856.219 248.694 855.082 245.2 852.862 242.408L539.573 -151.268C537.106 -154.367 533.578 -156.324 529.636 -156.777C525.696 -157.231 521.816 -156.126 518.712 -153.669L124.058 158.699C120.685 161.368 118.644 165.362 118.455 169.662C118.302 173.215 119.439 176.711 121.659 179.506L434.943 573.184C440.035 579.583 449.394 580.658 455.81 575.581L850.459 263.219C853.834 260.548 855.878 256.55 856.065 252.253ZM116.414 169.57C116.625 164.684 118.951 160.142 122.791 157.102L517.439 -155.263C520.973 -158.06 525.387 -159.316 529.87 -158.8C534.353 -158.285 538.367 -156.06 541.173 -152.534L854.458 241.144C856.985 244.318 858.281 248.297 858.103 252.343C857.889 257.229 855.57 261.775 851.73 264.811L457.074 577.178C449.788 582.951 439.137 581.727 433.346 574.45L120.058 180.775C117.534 177.594 116.238 173.616 116.414 169.57Z" fill="#DADADA"/>
<path fill-rule="evenodd" clip-rule="evenodd" d="M826.542 245.839C826.685 242.562 825.68 239.307 823.712 236.671L532.079 -153.662C527.349 -159.989 518.341 -161.304 511.994 -156.591L120.698 134.18C117.221 136.76 115.119 140.719 114.931 145.039C114.79 148.315 115.796 151.567 117.761 154.208L409.396 544.543C414.123 550.87 423.132 552.183 429.475 547.47L820.78 256.701C824.255 254.119 826.352 250.161 826.542 245.839ZM112.89 144.951C113.105 140.013 115.508 135.494 119.476 132.542L510.775 -158.223C518.022 -163.609 528.315 -162.107 533.717 -154.877L825.347 235.457C827.595 238.465 828.747 242.184 828.582 245.928C828.367 250.865 825.966 255.385 821.997 258.336L430.697 549.102C423.449 554.487 413.159 552.983 407.757 545.759L116.124 155.424C113.877 152.412 112.727 148.693 112.89 144.951Z" fill="#DADADA"/>
<path fill-rule="evenodd" clip-rule="evenodd" d="M797.033 239.426C797.165 236.38 796.313 233.444 794.564 230.935L524.585 -156.055C520.218 -162.316 511.559 -163.866 505.28 -159.514L117.326 109.661C113.745 112.147 111.582 116.066 111.392 120.419C111.26 123.464 112.115 126.398 113.865 128.906L383.841 515.9C388.208 522.164 396.866 523.713 403.146 519.357L791.101 250.185C794.682 247.701 796.843 243.776 797.033 239.426ZM109.353 120.329C109.57 115.338 112.053 110.838 116.164 107.988L504.113 -161.184C511.316 -166.178 521.25 -164.4 526.259 -157.219L796.238 229.772C798.245 232.65 799.227 236.017 799.072 239.513C798.855 244.506 796.375 249.005 792.27 251.857L404.31 521.032C397.11 526.026 387.175 524.247 382.167 517.066L112.189 130.073C110.181 127.196 109.2 123.828 109.353 120.329Z" fill="#DADADA"/>
<path fill-rule="evenodd" clip-rule="evenodd" d="M767.545 233.012C767.667 230.238 766.933 227.536 765.414 225.195L517.09 -158.453C513.082 -164.641 504.772 -166.429 498.564 -162.435L113.959 85.1397C110.316 87.4887 108.025 91.4721 107.838 95.7993C107.718 98.5722 108.456 101.272 109.972 103.613L358.294 487.266C362.301 493.452 370.609 495.238 376.819 491.242L761.425 243.667C765.067 241.321 767.354 237.339 767.545 233.012ZM105.798 95.7091C106.016 90.7213 108.654 86.1322 112.852 83.4313L497.457 -164.146C504.608 -168.751 514.186 -166.689 518.805 -159.556L767.127 224.091C768.875 226.788 769.724 229.904 769.584 233.1C769.367 238.086 766.73 242.677 762.529 245.376L377.925 492.954C370.773 497.556 361.196 495.499 356.579 488.367L108.252 104.722C106.509 102.021 105.658 98.9068 105.798 95.7091Z" fill="#DADADA"/>
<path fill-rule="evenodd" clip-rule="evenodd" d="M738.07 226.596C738.18 224.091 737.554 221.619 736.265 219.452L509.597 -160.852C505.945 -166.973 497.982 -168.995 491.845 -165.358L110.59 60.6226C106.821 62.8555 104.454 66.802 104.264 71.1751C104.154 73.6834 104.78 76.1539 106.072 78.3238L332.741 458.627C336.392 464.749 344.353 466.771 350.488 463.13L731.748 237.15C735.517 234.917 737.879 230.972 738.07 226.596ZM102.225 71.086C102.447 66.0226 105.182 61.456 109.544 58.873L490.799 -167.109C497.907 -171.32 507.125 -168.978 511.347 -161.892L738.017 218.409C739.514 220.921 740.236 223.78 740.111 226.689C739.89 231.751 737.153 236.316 732.791 238.904L351.532 464.885C344.429 469.093 335.209 466.754 330.986 459.668L104.316 79.3642C102.821 76.855 102.098 73.9894 102.225 71.086Z" fill="#DADADA"/>
<path fill-rule="evenodd" clip-rule="evenodd" d="M708.619 220.189C708.717 217.939 708.198 215.695 707.112 213.705L502.098 -163.254C498.805 -169.307 491.191 -171.562 485.119 -168.28L107.212 36.1018C103.309 38.2141 100.864 42.1183 100.671 46.549C100.572 48.7999 101.091 51.0427 102.174 53.0344L307.192 429.993C310.484 436.046 318.098 438.302 324.169 435.019L702.078 230.633C705.981 228.523 708.426 224.62 708.619 220.189ZM98.631 46.4621C98.8524 41.387 101.767 36.734 106.24 34.3157L484.148 -170.07C491.206 -173.886 500.065 -171.263 503.894 -164.222L708.909 212.734C710.169 215.054 710.77 217.657 710.66 220.278C710.436 225.351 707.52 230.006 703.053 232.426L325.141 436.811C318.082 440.628 309.226 438.005 305.395 430.962L100.382 54.0059C99.1215 51.6866 98.5158 49.0793 98.631 46.4621Z" fill="#DADADA"/>
<mask id="mask2_20_2340" style="mask-type:luminance" maskUnits="userSpaceOnUse" x="95" y="-175" width="587" height="586">
<path fill-rule="evenodd" clip-rule="evenodd" d="M95 -174.467H681.245V410.171H95V-174.467Z" fill="white"/>
</mask>
<g mask="url(#mask2_20_2340)">
<path fill-rule="evenodd" clip-rule="evenodd" d="M679.191 213.779C679.278 211.779 678.853 209.767 677.961 207.956L494.6 -165.658C491.667 -171.642 484.396 -174.131 478.396 -171.203L103.833 11.5869C99.8434 13.5336 97.2478 17.4945 97.0543 21.9225C96.967 23.9241 97.3891 25.9382 98.2792 27.75L281.64 401.364C284.578 407.347 291.845 409.835 297.846 406.906L672.409 224.12C676.396 222.172 678.996 218.21 679.191 213.779ZM95.0133 21.8334C95.2392 16.6584 98.2767 12.0297 102.933 9.75812L477.496 -173.033C484.507 -176.452 493.005 -173.547 496.438 -166.554L679.801 207.061C680.838 209.177 681.333 211.53 681.232 213.869C681.005 219.045 677.97 223.675 673.306 225.947L298.744 408.734C291.732 412.159 283.237 409.253 279.806 402.259L96.4416 28.6428C95.4039 26.5305 94.9107 24.1734 95.0133 21.8334Z" fill="#DADADA"/>
</g>
</g>
</g>
</svg>
