<svg width="1440" height="553" viewBox="0 0 1440 553" fill="none" xmlns="http://www.w3.org/2000/svg">
<path d="M0.5 0.140625H1440.5V552.141H0.5V0.140625Z" fill="#4D5B56"/>
<path d="M1245.11 -1554.99C1653.42 -1426.1 1799.11 -574.097 1607.23 -196.894C1385.58 239.397 403.45 2.28237 220.776 -36.4148C87.9918 -64.8686 813.848 -505.144 740.532 -946.936C662.284 -1418.13 166.24 -1556.32 243.255 -1592.46C300.731 -1656.48 758.458 -1708.74 1245.11 -1554.99Z" stroke="white" stroke-opacity="0.08" stroke-width="4.38131" stroke-miterlimit="10"/>
<path d="M1340.34 -1597.86C1800.15 -1490.88 1936.83 -513.395 1710.24 -100.625C1444.67 383.848 384.958 122.737 168.425 37.8498C32.7948 -15.3588 709.9 -491.675 654.7 -998.722C596.559 -1532.33 154.482 -1739.85 261.753 -1720.21C340.191 -1743.64 785.492 -1726.76 1340.34 -1597.86Z" stroke="white" stroke-opacity="0.08" stroke-width="4.38131" stroke-miterlimit="10"/>
<path d="M1435.57 -1640.17C1946.7 -1554.8 2074.36 -452.315 1813.82 -3.78834C1504.24 529.246 391.129 180.023 116.645 112.588C-37.3848 74.6492 606.24 -477.544 569.345 -1050.13C531.406 -1646.14 133.053 -1899.1 280.823 -1847.59C375.48 -1814.68 812.34 -1744.31 1435.57 -1640.17Z" stroke="white" stroke-opacity="0.08" stroke-width="4.38131" stroke-miterlimit="10"/>
<path d="M1530.69 -1682.75C2093.22 -1618.54 2211.78 -391.425 1917.1 92.669C1563.22 674.17 395.576 135.729 64.4688 187.515C-107.108 214.167 501.898 -463.318 483.688 -1101.54C464.719 -1759.77 118.531 -2087.08 299.592 -1974.78C412.269 -1905.36 839.076 -1761.57 1530.69 -1682.75Z" stroke="white" stroke-opacity="0.08" stroke-width="4.38131" stroke-miterlimit="10"/>
<path d="M1625.91 -1725.24C2239.75 -1682.18 2349.11 -331.006 2020.47 189.224C1622.12 819.001 391.492 174.807 12.4873 261.591C-172.937 304.082 397.657 -449.753 398.226 -1153.61C398.795 -1874.43 107.049 -2274.68 318.46 -2102.82C451.055 -1994.98 865.816 -1778.64 1625.91 -1725.24Z" stroke="white" stroke-opacity="0.08" stroke-width="4.38131" stroke-miterlimit="10"/>
<path d="M1721.16 -1767.83C2386.31 -1745.63 2486.18 -270.02 2123.78 285.777C1681.23 963.831 386.389 212.461 -39.5639 336.141C-239.31 394.091 293.156 -436.095 312.599 -1205.3C332.422 -1988.34 96.3502 -2460.77 337.259 -2230.39C490.53 -2083.95 892.772 -1795.43 1721.16 -1767.83Z" stroke="white" stroke-opacity="0.08" stroke-width="4.38131" stroke-miterlimit="10"/>
<path d="M1816.37 -1810.42C2532.84 -1808.99 2623.7 -209.32 2227.06 382.329C1740.12 1108.66 380.405 249.545 -91.643 410.783C-306.185 484.099 188.532 -422.154 227.04 -1256.89C266.021 -2102.35 85.814 -2646.01 356.03 -2357.96C530.357 -2172.35 919.415 -1812.12 1816.37 -1810.42Z" stroke="white" stroke-opacity="0.08" stroke-width="4.38131" stroke-miterlimit="10"/>
<path d="M1911.6 -1852.9C2679.85 -1871.87 2760.94 -148.712 2330.34 478.789C1799.21 1253.3 373.671 285.588 -143.713 485.144C-373.43 573.73 83.917 -408.495 141.489 -1308.68C199.534 -2216.54 75.0962 -2831.05 374.904 -2485.72C570.287 -2260.46 946.257 -1828.62 1911.6 -1852.9Z" stroke="white" stroke-opacity="0.08" stroke-width="4.38131" stroke-miterlimit="10"/>
<path d="M2006.82 -1895.49C2826.1 -1935.42 2898.38 -88.1066 2433.63 575.341C1857.73 1398.03 365.989 321.533 -195.784 559.691C-440.96 663.453 -20.8877 -394.743 55.8427 -1360.37C132.952 -2330.74 64.7581 -3015.62 393.684 -2613.29C610.312 -2348.38 973.193 -1845.03 2006.82 -1895.49Z" stroke="white" stroke-opacity="0.08" stroke-width="4.38131" stroke-miterlimit="10"/>
<path d="M2102.06 -1938.08C2972.74 -1998.59 3035.24 -27.5011 2536.92 671.893C1916.44 1542.67 358.691 357.194 -247.849 633.955C-508.58 753.081 -125.592 -380.897 -29.7029 -1412.35C66.3761 -2445.13 54.2358 -3200.29 412.469 -2741.14C650.248 -2436.21 1000.13 -1861.44 2102.06 -1938.08Z" stroke="white" stroke-opacity="0.08" stroke-width="4.38131" stroke-miterlimit="10"/>
<path d="M2197.27 -1980.57C3119.45 -2061.66 3172.38 33.485 2640.2 768.352C1975.14 1687.31 350.616 392.762 -300.027 708.694C-576.598 842.996 -230.505 -367.334 -115.362 -1463.85C-0.218843 -2560.36 43.6949 -3384.38 431.235 -2868.8C690.26 -2523.94 1027.06 -1877.66 2197.27 -1980.57Z" stroke="white" stroke-opacity="0.08" stroke-width="4.38131" stroke-miterlimit="10"/>
<path d="M2292.49 -2023.16C3266.18 -2124.74 3309.52 93.6162 2743.58 864.904C2033.85 1832.33 342.173 428.612 -352.005 783.241C-644.604 932.813 -335.312 -353.677 -200.915 -1515.54C-66.8977 -2673.32 33.0698 -3568.48 450.108 -2996.18C730.283 -2611.58 1053.99 -1893.98 2292.49 -2023.16Z" stroke="white" stroke-opacity="0.08" stroke-width="4.38131" stroke-miterlimit="10"/>
<path d="M2387.73 -2065.74C3412.92 -2187.81 3445.17 153.088 2846.6 961.46C2090.39 1975.17 333.18 463.519 -404.342 857.699C-712.971 1022.64 -440.478 -340.016 -286.733 -1567.23C-133.841 -2787.52 22.1804 -3752.67 468.62 -3123.84C770.325 -2699.21 1081.14 -1910.1 2387.73 -2065.74Z" stroke="white" stroke-opacity="0.08" stroke-width="4.38131" stroke-miterlimit="10"/>
<path d="M2482.95 -2108.23C3559.64 -2250.78 3582.4 213.693 2950.16 1057.82C2149.56 2120.1 324.728 498.231 -456.139 932.056C-780.987 1112.26 -545.105 -326.55 -372.011 -1619.3C-200.34 -2902.19 11.8309 -3937.05 487.673 -3251.88C810.339 -2786.85 1108.16 -1926.32 2482.95 -2108.23Z" stroke="white" stroke-opacity="0.08" stroke-width="4.38131" stroke-miterlimit="10"/>
<path d="M2578.17 -2150.82C3706.84 -2313.76 3719.74 274.393 3053.44 1154.47C2208.46 2264.17 315.81 534.081 -508.212 1006.7C-849.657 1202.37 -652.283 -312.989 -457.564 -1670.71C-269.295 -3016.38 1.20594 -4120.77 506.45 -3379.07C850.362 -2874.4 1135.28 -1942.44 2578.17 -2150.82Z" stroke="white" stroke-opacity="0.08" stroke-width="4.38131" stroke-miterlimit="10"/>
<path d="M2673.39 -2193.4C3853.56 -2374.65 3857.07 335.099 3156.73 1251.03C2267.36 2409.48 306.7 569.368 -560.382 1081.25C-917.667 1292.19 -756.713 -299.326 -543.215 -1722.39C-335.597 -3130.57 -9.42162 -4304.67 525.32 -3506.73C890.382 -2961.94 1162.78 -1955.91 2673.39 -2193.4Z" stroke="white" stroke-opacity="0.08" stroke-width="4.38131" stroke-miterlimit="10"/>
<path d="M2768.63 -2235.89C4000.3 -2438.11 3994.23 395.702 3260.03 1347.58C2326.37 2554.21 297.517 604.553 -612.436 1155.8C-986.034 1382.1 -861.217 -285.861 -628.749 -1774.09C-401.878 -3244.77 -20.1226 -4488.68 544.116 -3634.3C930.708 -3049.01 1189.83 -1972.6 2768.63 -2235.89Z" stroke="white" stroke-opacity="0.08" stroke-width="4.38131" stroke-miterlimit="10"/>
<path d="M2863.86 -2278.48C4147.03 -2501.56 4131.66 456.404 3363.31 1444.04C2385.26 2698.66 288.124 639.837 -664.508 1230.25C-1054.51 1472.02 -966.213 -271.917 -714.303 -1825.49C-467.703 -3358.68 -29.2302 -4673.34 562.893 -3761.68C971.584 -3137.69 1216.86 -1989.39 2863.86 -2278.48Z" stroke="white" stroke-opacity="0.08" stroke-width="4.38131" stroke-miterlimit="10"/>
<path d="M2959.07 -2321.07C4293.74 -2565.3 4269.27 517.199 3466.59 1540.59C2444.15 2843.68 278.722 675.118 -716.592 1304.42C-1123.1 1561.64 -1070.27 -258.641 -799.961 -1877.85C-534.487 -3473.26 -40.7194 -4856.96 581.66 -3889.63C1011.03 -3224.76 1243.68 -2005.7 2959.07 -2321.07Z" stroke="white" stroke-opacity="0.08" stroke-width="4.38131" stroke-miterlimit="10"/>
<path d="M600.542 -4017.2C1050.49 -3311.92 1271.01 -2022.87 3054.3 -2363.56C4440.57 -2628.46 4406.33 577.711 3569.98 1637.14C2503.06 2988.51 269.34 710.401 -768.655 1379.25C-1608.04 1920.26 -715.256 -6079.81 600.542 -4017.2Z" stroke="white" stroke-opacity="0.08" stroke-width="4.38131" stroke-miterlimit="10"/>
</svg>
