<svg width="20" height="20" viewBox="0 0 20 20" fill="none" xmlns="http://www.w3.org/2000/svg">
<g id="Social media logo">
<path id="vector" d="M18.3754 9.74902C18.3754 9.06603 18.3189 8.56763 18.1965 8.05078H10.2383V11.1334H14.9096C14.8154 11.8995 14.3068 13.0532 13.1767 13.8285L13.1608 13.9317L15.6771 15.842L15.8514 15.859C17.4524 14.41 18.3754 12.2779 18.3754 9.74902Z" fill="#4285F4"/>
<path id="vector_2" d="M10.2361 17.8711C12.5246 17.8711 14.4459 17.1327 15.8492 15.8591L13.1745 13.8285C12.4587 14.3176 11.4981 14.6591 10.2361 14.6591C7.99466 14.6591 6.09225 13.2101 5.41409 11.2073L5.31469 11.2155L2.69828 13.1999L2.66406 13.2932C4.05791 16.0067 6.92097 17.8711 10.2361 17.8711Z" fill="#34A853"/>
<path id="vector_3" d="M5.41586 11.2073C5.23692 10.6904 5.13336 10.1366 5.13336 9.56438C5.13336 8.9921 5.23692 8.43835 5.40644 7.92149L5.4017 7.81142L2.7525 5.79517L2.66582 5.83557C2.09135 6.9616 1.76172 8.22608 1.76172 9.56438C1.76172 10.9027 2.09135 12.1671 2.66582 13.2931L5.41586 11.2073Z" fill="#FBBC05"/>
<path id="vector_4" d="M10.2362 4.4697C11.8278 4.4697 12.9014 5.14346 13.5136 5.70651L15.9058 3.41755C14.4366 2.07925 12.5247 1.25781 10.2362 1.25781C6.92099 1.25781 4.05791 3.12218 2.66406 5.83567L5.40469 7.9216C6.09227 5.91877 7.99469 4.4697 10.2362 4.4697Z" fill="#EB4335"/>
</g>
</svg>
