<svg width="205" height="60" viewBox="0 0 205 60" fill="none" xmlns="http://www.w3.org/2000/svg">
<path d="M196.896 59.1406H8.05371C3.90106 59.1406 0.5 55.82 0.5 51.7656V7.51563C0.5 3.46122 3.90106 0.140626 8.05371 0.140626H196.896C201.049 0.140626 204.45 3.46122 204.45 7.51563V51.7656C204.45 55.82 201.049 59.1406 196.896 59.1406Z" fill="black"/>
<path d="M196.896 1.32247C200.394 1.32247 203.24 4.101 203.24 7.51563V51.7656C203.24 55.1803 200.394 57.9588 196.896 57.9588H8.05371C4.55634 57.9588 1.71048 55.1803 1.71048 51.7656V7.51563C1.71048 4.101 4.55634 1.32247 8.05371 1.32247H196.896ZM196.896 0.140626H8.05371C3.90106 0.140626 0.5 3.46122 0.5 7.51563V51.7656C0.5 55.82 3.90106 59.1406 8.05371 59.1406H196.896C201.049 59.1406 204.45 55.82 204.45 51.7656V7.51563C204.45 3.46122 201.049 0.140626 196.896 0.140626Z" fill="#A6A6A6"/>
<path d="M72.1353 15.2503C72.1353 16.4819 71.7576 17.4683 71.0136 18.2039C70.1581 19.076 69.0439 19.5148 67.6786 19.5148C66.3737 19.5148 65.2595 19.0687 64.3455 18.1892C63.4297 17.2968 62.9727 16.2016 62.9727 14.8907C62.9727 13.5798 63.4297 12.4846 64.3455 11.5996C65.2595 10.7128 66.3737 10.2666 67.6786 10.2666C68.3282 10.2666 68.9476 10.3975 69.5387 10.6409C70.1279 10.8861 70.6076 11.218 70.955 11.6273L70.1657 12.4054C69.5595 11.7066 68.7342 11.3618 67.6786 11.3618C66.7268 11.3618 65.9016 11.6863 65.201 12.3408C64.5079 12.9972 64.1605 13.8472 64.1605 14.8907C64.1605 15.9343 64.5079 16.7916 65.201 17.448C65.9016 18.0952 66.7268 18.427 67.6786 18.427C68.6889 18.427 69.5387 18.0952 70.2091 17.4406C70.651 17.0073 70.9022 16.41 70.9683 15.6467H67.6786V14.581H72.0673C72.1202 14.8114 72.1353 15.0345 72.1353 15.2503Z" fill="white" stroke="white" stroke-width="0.16" stroke-miterlimit="10"/>
<path d="M79.0981 11.5552H74.9756V14.3577H78.6921V15.4234H74.9756V18.2259H79.0981V19.3119H73.8086V10.4692H79.0981V11.5552Z" fill="white" stroke="white" stroke-width="0.16" stroke-miterlimit="10"/>
<path d="M84.0121 19.3119H82.845V11.5552H80.3164V10.4692H86.5425V11.5552H84.0121V19.3119Z" fill="white" stroke="white" stroke-width="0.16" stroke-miterlimit="10"/>
<path d="M91.0488 19.3119V10.4692H92.214V19.3119H91.0488Z" fill="white" stroke="white" stroke-width="0.16" stroke-miterlimit="10"/>
<path d="M97.3773 19.3119H96.2197V11.5552H93.6816V10.4692H99.9153V11.5552H97.3773V19.3119Z" fill="white" stroke="white" stroke-width="0.16" stroke-miterlimit="10"/>
<path d="M111.703 18.1744C110.81 19.0687 109.703 19.5148 108.383 19.5148C107.056 19.5148 105.949 19.0687 105.056 18.1744C104.164 17.2821 103.721 16.1869 103.721 14.8907C103.721 13.5946 104.164 12.4994 105.056 11.607C105.949 10.7128 107.056 10.2666 108.383 10.2666C109.696 10.2666 110.802 10.7128 111.696 11.6144C112.594 12.5141 113.038 13.6019 113.038 14.8907C113.038 16.1869 112.594 17.2821 111.703 18.1744ZM105.919 17.4333C106.591 18.0952 107.409 18.427 108.383 18.427C109.35 18.427 110.175 18.0952 110.84 17.4333C111.51 16.7714 111.85 15.9214 111.85 14.8907C111.85 13.8601 111.51 13.0101 110.84 12.3482C110.175 11.6863 109.35 11.3544 108.383 11.3544C107.409 11.3544 106.591 11.6863 105.919 12.3482C105.248 13.0101 104.909 13.8601 104.909 14.8907C104.909 15.9214 105.248 16.7714 105.919 17.4333Z" fill="white" stroke="white" stroke-width="0.16" stroke-miterlimit="10"/>
<path d="M114.676 19.3119V10.4692H116.092L120.496 17.3464H120.547L120.496 15.6465V10.4692H121.661V19.3119H120.445L115.833 12.0954H115.782L115.833 13.8027V19.3119H114.676Z" fill="white" stroke="white" stroke-width="0.16" stroke-miterlimit="10"/>
<path d="M103.434 32.2257C99.8852 32.2257 96.9864 34.8622 96.9864 38.4999C96.9864 42.1082 99.8852 44.7724 103.434 44.7724C106.989 44.7724 109.888 42.1082 109.888 38.4999C109.888 34.8622 106.989 32.2257 103.434 32.2257ZM103.434 42.3018C101.487 42.3018 99.8115 40.7327 99.8115 38.4999C99.8115 36.2377 101.487 34.6963 103.434 34.6963C105.38 34.6963 107.063 36.2377 107.063 38.4999C107.063 40.7327 105.38 42.3018 103.434 42.3018ZM89.3666 32.2257C85.8107 32.2257 82.9195 34.8622 82.9195 38.4999C82.9195 42.1082 85.8107 44.7724 89.3666 44.7724C92.9206 44.7724 95.8137 42.1082 95.8137 38.4999C95.8137 34.8622 92.9206 32.2257 89.3666 32.2257ZM89.3666 42.3018C87.4178 42.3018 85.7371 40.7327 85.7371 38.4999C85.7371 36.2377 87.4178 34.6963 89.3666 34.6963C91.3136 34.6963 92.9886 36.2377 92.9886 38.4999C92.9886 40.7327 91.3136 42.3018 89.3666 42.3018ZM72.6276 34.1487V36.8148H79.1484C78.9576 38.3045 78.4478 39.3997 77.6659 40.163C76.7142 41.0849 75.2318 42.1082 72.6276 42.1082C68.6147 42.1082 65.4724 38.9461 65.4724 35.0282C65.4724 31.1102 68.6147 27.9482 72.6276 27.9482C74.7974 27.9482 76.3762 28.776 77.5413 29.8491L79.4656 27.9703C77.8359 26.451 75.668 25.2839 72.6276 25.2839C67.1248 25.2839 62.5 29.6555 62.5 35.0282C62.5 40.4008 67.1248 44.7724 72.6276 44.7724C75.6019 44.7724 77.8359 43.821 79.5921 42.0362C81.3918 40.2792 81.9527 37.8085 81.9527 35.8136C81.9527 35.1941 81.8998 34.6244 81.8054 34.1487H72.6276ZM141.076 36.2155C140.545 34.8124 138.908 32.2257 135.573 32.2257C132.268 32.2257 129.516 34.7682 129.516 38.4999C129.516 42.0141 132.24 44.7724 135.89 44.7724C138.841 44.7724 140.545 43.0153 141.245 41.992L139.055 40.5668C138.324 41.6103 137.329 42.3018 135.89 42.3018C134.46 42.3018 133.435 41.662 132.778 40.4008L141.372 36.9291L141.076 36.2155ZM132.313 38.3045C132.24 35.8855 134.238 34.6465 135.669 34.6465C136.791 34.6465 137.742 35.1941 138.06 35.9777L132.313 38.3045ZM125.328 44.3907H128.153V25.9532H125.328V44.3907ZM120.701 33.6232H120.607C119.972 32.8894 118.762 32.2257 117.228 32.2257C114.011 32.2257 111.068 34.9839 111.068 38.5202C111.068 42.0362 114.011 44.7724 117.228 44.7724C118.762 44.7724 119.972 44.1031 120.607 43.3472H120.701V44.2469C120.701 46.6456 119.389 47.9344 117.272 47.9344C115.546 47.9344 114.475 46.7175 114.033 45.6942L111.576 46.6954C112.285 48.3585 114.16 50.405 117.272 50.405C120.584 50.405 123.379 48.5023 123.379 43.8726V32.6073H120.701V33.6232ZM117.47 42.3018C115.523 42.3018 113.893 40.7106 113.893 38.5202C113.893 36.3096 115.523 34.6963 117.47 34.6963C119.389 34.6963 120.901 36.3096 120.901 38.5202C120.901 40.7106 119.389 42.3018 117.47 42.3018ZM154.302 25.9532H147.545V44.3907H150.363V37.4048H154.302C157.431 37.4048 160.5 35.1941 160.5 31.6781C160.5 28.1639 157.424 25.9532 154.302 25.9532ZM154.376 34.8401H150.363V28.5179H154.376C156.479 28.5179 157.68 30.2233 157.68 31.6781C157.68 33.1051 156.479 34.8401 154.376 34.8401ZM171.793 32.1906C169.757 32.1906 167.64 33.0683 166.769 35.0134L169.27 36.0367C169.808 35.0134 170.797 34.6815 171.844 34.6815C173.305 34.6815 174.788 35.5389 174.81 37.0526V37.2462C174.3 36.9586 173.209 36.5327 171.866 36.5327C169.173 36.5327 166.429 37.98 166.429 40.6811C166.429 43.1517 168.635 44.7429 171.115 44.7429C173.011 44.7429 174.057 43.9077 174.714 42.936H174.81V44.3612H177.532V37.2886C177.532 34.0196 175.031 32.1906 171.793 32.1906ZM171.453 42.2944C170.531 42.2944 169.247 41.8482 169.247 40.7327C169.247 39.3057 170.848 38.7581 172.235 38.7581C173.475 38.7581 174.057 39.0254 174.81 39.3776C174.589 41.0849 173.084 42.2944 171.453 42.2944ZM187.446 32.5944L184.207 40.5871H184.111L180.763 32.5944H177.724L182.755 43.7638L179.885 49.9791H182.829L190.581 32.5944H187.446ZM162.048 44.3907H164.873V25.9532H162.048V44.3907Z" fill="white"/>
<path d="M16.2651 11.2603C15.8213 11.7139 15.5645 12.42 15.5645 13.3345V45.9541C15.5645 46.8686 15.8213 47.5748 16.2651 48.0284L16.3746 48.1279L35.0964 29.8564V29.4249L16.3746 11.1534L16.2651 11.2603Z" fill="url(#paint0_linear_29_2399)"/>
<path d="M41.3294 35.95L35.0957 29.8564V29.4249L41.337 23.3313L41.4767 23.4106L48.868 27.5166C50.9774 28.6819 50.9774 30.5994 48.868 31.772L41.4767 35.8707L41.3294 35.95Z" fill="url(#paint1_linear_29_2399)"/>
<path d="M41.476 35.8708L35.0951 29.6407L16.2637 48.0285C16.9643 48.7475 18.1068 48.8342 19.406 48.1151L41.476 35.8708Z" fill="url(#paint2_linear_29_2399)"/>
<path d="M41.476 23.4106L19.406 11.1663C18.1068 10.4546 16.9643 10.5412 16.2637 11.2603L35.0951 29.6406L41.476 23.4106Z" fill="url(#paint3_linear_29_2399)"/>
<defs>
<linearGradient id="paint0_linear_29_2399" x1="33.4342" y1="46.2938" x2="8.68722" y2="20.9473" gradientUnits="userSpaceOnUse">
<stop stop-color="#00A0FF"/>
<stop offset="0.0066" stop-color="#00A1FF"/>
<stop offset="0.2601" stop-color="#00BEFF"/>
<stop offset="0.5122" stop-color="#00D2FF"/>
<stop offset="0.7604" stop-color="#00DFFF"/>
<stop offset="1" stop-color="#00E3FF"/>
</linearGradient>
<linearGradient id="paint1_linear_29_2399" x1="51.6147" y1="29.6386" x2="15.0595" y2="29.6386" gradientUnits="userSpaceOnUse">
<stop stop-color="#FFE000"/>
<stop offset="0.4087" stop-color="#FFBD00"/>
<stop offset="0.7754" stop-color="#FFA500"/>
<stop offset="1" stop-color="#FF9C00"/>
</linearGradient>
<linearGradient id="paint2_linear_29_2399" x1="38.0063" y1="26.254" x2="4.44738" y2="-8.11805" gradientUnits="userSpaceOnUse">
<stop stop-color="#FF3A44"/>
<stop offset="1" stop-color="#C31162"/>
</linearGradient>
<linearGradient id="paint3_linear_29_2399" x1="11.5234" y1="58.8807" x2="26.509" y2="43.5322" gradientUnits="userSpaceOnUse">
<stop stop-color="#32A071"/>
<stop offset="0.0685" stop-color="#2DA771"/>
<stop offset="0.4762" stop-color="#15CF74"/>
<stop offset="0.8009" stop-color="#06E775"/>
<stop offset="1" stop-color="#00F076"/>
</linearGradient>
</defs>
</svg>
