<svg width="192" height="79" viewBox="0 0 192 79" fill="none" xmlns="http://www.w3.org/2000/svg">
<path d="M48.5 78.8C39.1 78.8 30.8 77.3 23.6 74.3C16.5 71.3 10.95 66.95 6.95 61.25C2.95 55.45 0.95 48.35 0.95 39.95C0.95 31.55 2.95 24.45 6.95 18.65C10.95 12.75 16.5 8.3 23.6 5.3C30.8 2.3 39.1 0.799998 48.5 0.799998C57.9 0.799998 66.1 2.3 73.1 5.3C80.2 8.3 85.75 12.75 89.75 18.65C93.75 24.45 95.75 31.55 95.75 39.95C95.75 48.35 93.75 55.45 89.75 61.25C85.75 66.95 80.2 71.3 73.1 74.3C66.1 77.3 57.9 78.8 48.5 78.8ZM48.5 63.8C53.6 63.8 58.2 62.9 62.3 61.1C66.5 59.2 69.8 56.5 72.2 53C74.7 49.4 75.95 45.05 75.95 39.95C75.95 34.85 74.7 30.5 72.2 26.9C69.8 23.2 66.55 20.4 62.45 18.5C58.35 16.6 53.7 15.65 48.5 15.65C43.4 15.65 38.75 16.6 34.55 18.5C30.35 20.4 27 23.15 24.5 26.75C22 30.35 20.75 34.75 20.75 39.95C20.75 45.05 21.95 49.4 24.35 53C26.85 56.5 30.2 59.2 34.4 61.1C38.6 62.9 43.3 63.8 48.5 63.8ZM160.442 54.35L136.142 65.75L135.392 62H191.342V77H111.392V62C120.392 57.9 128.492 54.4 135.692 51.5C142.892 48.6 148.992 46 153.992 43.7C158.992 41.3 162.792 38.9 165.392 36.5C168.092 34 169.442 31.25 169.442 28.25C169.442 25.85 168.742 23.8 167.342 22.1C165.942 20.3 163.742 18.9 160.742 17.9C157.742 16.9 153.842 16.4 149.042 16.4C142.742 16.4 137.642 17.65 133.742 20.15C129.942 22.55 127.942 25.85 127.742 30.05H108.842C108.542 24.25 109.942 19.15 113.042 14.75C116.242 10.35 120.892 6.9 126.992 4.4C133.092 1.9 140.292 0.649999 148.592 0.649999C154.692 0.649999 160.242 1.25 165.242 2.45C170.242 3.55 174.542 5.2 178.142 7.4C181.842 9.6 184.642 12.25 186.542 15.35C188.542 18.45 189.542 21.95 189.542 25.85C189.542 28.85 188.992 31.6 187.892 34.1C186.792 36.5 185.042 38.8 182.642 41C180.342 43.2 177.342 45.4 173.642 47.6C169.942 49.7 165.542 51.95 160.442 54.35Z" fill="#D3ECFB"/>
</svg>
