<svg width="195" height="102" viewBox="0 0 195 102" fill="none" xmlns="http://www.w3.org/2000/svg">
<path d="M48.5 78.8C39.1 78.8 30.8 77.3 23.6 74.3C16.5 71.3 10.95 66.95 6.95 61.25C2.95 55.45 0.95 48.35 0.95 39.95C0.95 31.55 2.95 24.45 6.95 18.65C10.95 12.75 16.5 8.3 23.6 5.3C30.8 2.3 39.1 0.799998 48.5 0.799998C57.9 0.799998 66.1 2.3 73.1 5.3C80.2 8.3 85.75 12.75 89.75 18.65C93.75 24.45 95.75 31.55 95.75 39.95C95.75 48.35 93.75 55.45 89.75 61.25C85.75 66.95 80.2 71.3 73.1 74.3C66.1 77.3 57.9 78.8 48.5 78.8ZM48.5 63.8C53.6 63.8 58.2 62.9 62.3 61.1C66.5 59.2 69.8 56.5 72.2 53C74.7 49.4 75.95 45.05 75.95 39.95C75.95 34.85 74.7 30.5 72.2 26.9C69.8 23.2 66.55 20.4 62.45 18.5C58.35 16.6 53.7 15.65 48.5 15.65C43.4 15.65 38.75 16.6 34.55 18.5C30.35 20.4 27 23.15 24.5 26.75C22 30.35 20.75 34.75 20.75 39.95C20.75 45.05 21.95 49.4 24.35 53C26.85 56.5 30.2 59.2 34.4 61.1C38.6 62.9 43.3 63.8 48.5 63.8ZM153.992 49.4V48.65C159.892 48.85 165.292 49.35 170.192 50.15C175.192 50.85 179.492 52.1 183.092 53.9C186.692 55.6 189.492 58 191.492 61.1C193.492 64.2 194.492 68.15 194.492 72.95C194.492 78.55 192.692 83.5 189.092 87.8C185.592 92.1 180.592 95.45 174.092 97.85C167.592 100.35 159.942 101.6 151.142 101.6C142.542 101.6 134.992 100.25 128.492 97.55C122.092 94.95 117.192 91.3 113.792 86.6C110.392 82 108.842 76.65 109.142 70.55H128.042C128.142 73.45 129.092 75.95 130.892 78.05C132.792 80.25 135.442 81.95 138.842 83.15C142.342 84.35 146.442 84.95 151.142 84.95C158.442 84.95 164.042 83.7 167.942 81.2C171.842 78.7 173.792 75 173.792 70.1C173.792 65.4 171.542 62.1 167.042 60.2C162.542 58.2 156.192 57.2 147.992 57.2H135.242V42.2H147.992C153.692 42.2 158.292 41.85 161.792 41.15C165.392 40.35 167.992 39.1 169.592 37.4C171.292 35.6 172.142 33.25 172.142 30.35C172.142 26.25 170.492 23.05 167.192 20.75C163.892 18.35 158.542 17.15 151.142 17.15C144.142 17.15 138.742 18.4 134.942 20.9C131.242 23.4 129.292 26.7 129.092 30.8H110.192C109.892 26.1 110.742 21.9 112.742 18.2C114.842 14.5 117.792 11.35 121.592 8.75C125.492 6.05 129.942 4 134.942 2.6C140.042 1.19999 145.442 0.499992 151.142 0.499992C159.742 0.499992 167.142 1.59999 173.342 3.79999C179.542 6 184.292 9.1 187.592 13.1C190.892 17.1 192.542 21.75 192.542 27.05C192.542 31.45 191.592 35.1 189.692 38C187.792 40.8 185.092 43.05 181.592 44.75C178.092 46.35 173.992 47.5 169.292 48.2C164.692 48.9 159.592 49.3 153.992 49.4Z" fill="#D3ECFB"/>
</svg>
