<svg width="205" height="99" viewBox="0 0 205 99" fill="none" xmlns="http://www.w3.org/2000/svg">
<path d="M48.5 78.8C39.1 78.8 30.8 77.3 23.6 74.3C16.5 71.3 10.95 66.95 6.95 61.25C2.95 55.45 0.95 48.35 0.95 39.95C0.95 31.55 2.95 24.45 6.95 18.65C10.95 12.75 16.5 8.3 23.6 5.3C30.8 2.3 39.1 0.799998 48.5 0.799998C57.9 0.799998 66.1 2.3 73.1 5.3C80.2 8.3 85.75 12.75 89.75 18.65C93.75 24.45 95.75 31.55 95.75 39.95C95.75 48.35 93.75 55.45 89.75 61.25C85.75 66.95 80.2 71.3 73.1 74.3C66.1 77.3 57.9 78.8 48.5 78.8ZM48.5 63.8C53.6 63.8 58.2 62.9 62.3 61.1C66.5 59.2 69.8 56.5 72.2 53C74.7 49.4 75.95 45.05 75.95 39.95C75.95 34.85 74.7 30.5 72.2 26.9C69.8 23.2 66.55 20.4 62.45 18.5C58.35 16.6 53.7 15.65 48.5 15.65C43.4 15.65 38.75 16.6 34.55 18.5C30.35 20.4 27 23.15 24.5 26.75C22 30.35 20.75 34.75 20.75 39.95C20.75 45.05 21.95 49.4 24.35 53C26.85 56.5 30.2 59.2 34.4 61.1C38.6 62.9 43.3 63.8 48.5 63.8ZM187.142 1.84999V98.75H167.642V17.6L173.492 19.7L128.492 70.25L125.642 63.65H170.042V78.65H110.792V63.65L167.642 1.84999H187.142ZM184.742 78.65V63.65H204.392V78.65H184.742Z" fill="#D3ECFB"/>
</svg>
