<svg width="22" height="20" viewBox="0 0 22 20" fill="none" xmlns="http://www.w3.org/2000/svg">
<path d="M20.7566 15.5087C21.2748 14.4338 21.5291 13.2508 21.4983 12.058C21.4675 10.8651 21.1525 9.6968 20.5795 8.6501C20.0066 7.60341 19.1921 6.70854 18.2038 6.03984C17.2155 5.37113 16.0819 4.94789 14.8972 4.80527C14.503 3.88873 13.9299 3.06007 13.2115 2.36779C12.493 1.67551 11.6436 1.13353 10.7131 0.773604C9.78259 0.413674 8.7896 0.243022 7.7923 0.271641C6.795 0.300261 5.81344 0.527576 4.90509 0.940277C3.99673 1.35298 3.17985 1.94277 2.50228 2.67511C1.82471 3.40745 1.30007 4.26762 0.959077 5.20525C0.618085 6.14288 0.467599 7.13912 0.516431 8.13563C0.565263 9.13215 0.812431 10.1089 1.24346 11.0087L0.561899 13.3253C0.485694 13.5839 0.480599 13.8582 0.547149 14.1195C0.613698 14.3808 0.749433 14.6193 0.940072 14.8099C1.13071 15.0005 1.36921 15.1363 1.63047 15.2028C1.89173 15.2694 2.1661 15.2643 2.42471 15.1881L4.74127 14.5065C5.48512 14.8639 6.28261 15.0967 7.1019 15.1956C7.49994 16.1282 8.08297 16.9704 8.81575 17.6713C9.54852 18.3723 10.4158 18.9173 11.3652 19.2735C12.3146 19.6297 13.3264 19.7897 14.3393 19.7438C15.3523 19.698 16.3455 19.4471 17.2588 19.0065L19.5753 19.6881C19.8339 19.7642 20.1081 19.7693 20.3692 19.7027C20.6304 19.6362 20.8688 19.5006 21.0594 19.3101C21.25 19.1196 21.3858 18.8812 21.4524 18.6201C21.5191 18.359 21.5141 18.0848 21.4381 17.8262L20.7566 15.5087ZM4.81252 12.9531C4.74085 12.9532 4.66955 12.9633 4.60065 12.9831L2.00002 13.75L2.76596 11.1475C2.82044 10.9594 2.79924 10.7576 2.7069 10.585C2.02844 9.31612 1.82853 7.84573 2.14362 6.44182C2.4587 5.03792 3.2678 3.79398 4.42341 2.93678C5.57902 2.07958 7.0042 1.66619 8.43914 1.77198C9.87407 1.87778 11.2232 2.4957 12.2406 3.5131C13.258 4.53051 13.876 5.87965 13.9817 7.31459C14.0875 8.74953 13.6742 10.1747 12.8169 11.3303C11.9597 12.4859 10.7158 13.295 9.3119 13.6101C7.90799 13.9252 6.4376 13.7253 5.16877 13.0468C5.05966 12.9864 4.93722 12.9542 4.81252 12.9531ZM19.2303 15.6465L20 18.25L17.3975 17.484C17.2095 17.4295 17.0076 17.4507 16.835 17.5431C15.4539 18.2805 13.8394 18.4494 12.3356 18.0137C10.8318 17.578 9.55764 16.5721 8.78471 15.2106C9.81163 15.1034 10.8053 14.7852 11.7034 14.2758C12.6016 13.7665 13.3847 13.077 14.0038 12.2507C14.6229 11.4244 15.0645 10.4791 15.301 9.47405C15.5375 8.46901 15.5638 7.42593 15.3781 6.41027C16.2729 6.62117 17.1072 7.03485 17.8167 7.61936C18.5262 8.20388 19.0919 8.9436 19.4701 9.78144C19.8484 10.6193 20.029 11.5328 19.9982 12.4516C19.9673 13.3703 19.7258 14.2697 19.2922 15.0803C19.1989 15.2539 19.1776 15.4573 19.2332 15.6465H19.2303Z" fill="white"/>
</svg>
