<svg width="20" height="19" viewBox="0 0 20 19" fill="none" xmlns="http://www.w3.org/2000/svg">
<path d="M10.0022 1.30003C10.2931 1.30012 10.5834 1.32896 10.8687 1.38611C11.7702 1.55876 12.5992 1.99768 13.2487 2.6462C13.8983 3.29472 14.3385 4.12306 14.5126 5.02427L14.6618 5.79896L15.4365 5.93668C16.2189 6.07125 16.9219 6.49578 17.4053 7.12562C17.8887 7.75546 18.1169 8.54434 18.0445 9.33497C17.9721 10.1256 17.6044 10.8599 17.0146 11.3915C16.4249 11.923 15.6565 12.2128 14.8626 12.203H5.12451C4.33063 12.2128 3.56222 11.923 2.9725 11.3915C2.38277 10.8599 2.01505 10.1256 1.94264 9.33497C1.87024 8.54434 2.09848 7.75546 2.58185 7.12562C3.06522 6.49578 3.76821 6.07125 4.55067 5.93668L5.31962 5.79896L5.46882 5.02427C5.67105 3.97202 6.23499 3.02365 7.06294 2.34348C7.89089 1.6633 8.93068 1.29417 10.0022 1.30003ZM10.0022 0.152346C8.66662 0.151236 7.37251 0.616005 6.34282 1.46657C5.31314 2.31713 4.61238 3.50021 4.3613 4.81195C3.30447 5.00329 2.35737 5.58286 1.70603 6.43682C1.05468 7.29078 0.74616 8.35741 0.841063 9.42722C0.935965 10.497 1.42743 11.4927 2.21893 12.2187C3.01043 12.9446 4.04477 13.3484 5.11877 13.3507H14.8741C15.9481 13.3484 16.9824 12.9446 17.7739 12.2187C18.5654 11.4927 19.0569 10.497 19.1518 9.42722C19.2467 8.35741 18.9382 7.29078 18.2868 6.43682C17.6355 5.58286 16.6884 5.00329 15.6316 4.81195C15.4154 3.68367 14.8656 2.64623 14.0533 1.83391C13.241 1.02158 12.2035 0.471774 11.0753 0.255637C10.7215 0.18859 10.3623 0.154016 10.0022 0.152346Z" fill="#1D7CCF"/>
<path d="M13.7363 13.3496V15.645L14.5971 16.5057" stroke="#1D7CCF" stroke-width="0.573843"/>
<path d="M7.13499 13.3496V15.645L5.9873 16.2188" stroke="#1D7CCF" stroke-width="0.573843"/>
<circle cx="15.4571" cy="16.5069" r="1.14769" stroke="#1D7CCF" stroke-width="0.573843"/>
<path d="M10.5791 13.3516V15.9339" stroke="#1D7CCF" stroke-width="0.573843"/>
<circle cx="10.2911" cy="17.0811" r="1.14769" stroke="#1D7CCF" stroke-width="0.573843"/>
<circle cx="5.12699" cy="16.5069" r="1.14769" stroke="#1D7CCF" stroke-width="0.573843"/>
</svg>
