<svg width="42" height="39" viewBox="0 0 42 39" fill="none" xmlns="http://www.w3.org/2000/svg">
<path d="M19.05 19.5C18.85 19.5 18.675 19.55 18.525 19.65C18.375 19.75 18.3 19.9 18.3 20.1C18.3 20.9 18.025 21.6 17.475 22.2C16.925 22.8 16.25 23.1 15.45 23.1H14.55C13.75 23.1 13.05 22.8 12.45 22.2C11.85 21.6 11.55 20.9 11.55 20.1V16.8C11.55 15 10.9 13.45 9.6 12.15C8.3 10.85 6.75 10.2 4.95 10.2H3.3C3.2 10.2 3.075 10.25 2.925 10.35C2.775 10.45 2.7 10.6 2.7 10.8C2.7 11 2.775 11.175 2.925 11.325C3.075 11.475 3.2 11.55 3.3 11.55H4.95C6.45 11.55 7.7 12.05 8.7 13.05C9.7 14.05 10.2 15.3 10.2 16.8V20.1C10.2 21.3 10.625 22.325 11.475 23.175C12.325 24.025 13.35 24.45 14.55 24.45H15.45C16.55 24.45 17.525 24.025 18.375 23.175C19.225 22.325 19.65 21.3 19.65 20.1C19.65 19.9 19.6 19.75 19.5 19.65C19.4 19.55 19.25 19.5 19.05 19.5ZM40.05 0.600023C39.65 0.200023 39.175 2.28882e-05 38.625 2.28882e-05C38.075 2.28882e-05 37.6 0.200023 37.2 0.600023L34.35 3.30002H3.3C2.4 3.30002 1.625 3.62502 0.975 4.27502C0.325 4.92502 0 5.70002 0 6.60002V28.5C0 29.4 0.325 30.15 0.975 30.75C1.625 31.35 2.4 31.65 3.3 31.65H15.9V32.1C15.6 34 14.75 35.45 13.35 36.45C12.95 36.75 12.55 37 12.15 37.2C11.95 37.2 11.825 37.275 11.775 37.425C11.725 37.575 11.725 37.775 11.775 38.025C11.825 38.275 12 38.4 12.3 38.4H26.85C27.15 38.4 27.325 38.275 27.375 38.025C27.425 37.775 27.425 37.575 27.375 37.425C27.325 37.275 27.2 37.2 27 37.2C26.5 37 26.1 36.75 25.8 36.45C24.4 35.45 23.55 34 23.25 32.1V31.65H35.85C36.75 31.65 37.525 31.35 38.175 30.75C38.825 30.15 39.15 29.4 39.15 28.5V7.05002L41.4 4.80002C41.8 4.40002 42 3.92502 42 3.37502C42 2.82502 41.8 2.35002 41.4 1.95002L40.05 0.600023ZM22.65 17.85L24 19.35L22.2 19.65L22.65 17.85ZM21.9 31.65C21.9 31.95 21.9 32.25 21.9 32.55C22.3 34.45 23.15 35.95 24.45 37.05H14.7C16 35.95 16.8 34.45 17.1 32.55L17.25 31.65H21.9ZM37.8 28.5C37.8 29 37.6 29.425 37.2 29.775C36.8 30.125 36.35 30.3 35.85 30.3H3.3C2.8 30.3 2.35 30.125 1.95 29.775C1.55 29.425 1.35 29 1.35 28.5V6.60002C1.35 6.10002 1.55 5.65002 1.95 5.25002C2.35 4.85002 2.8 4.65002 3.3 4.65002H33L21.6 16.2L20.7 20.4C20.7 20.6 20.8 20.8 21 21L21.15 21.15L25.65 20.4L37.8 8.40002V28.5ZM40.5 3.75002L25.5 18.75L23.1 16.5L38.1 1.50002C38.2 1.40002 38.35 1.35002 38.55 1.35002C38.75 1.35002 38.9 1.40002 39 1.50002L40.5 2.85002C40.6 3.05002 40.65 3.22502 40.65 3.37502C40.65 3.52502 40.55 3.65002 40.35 3.75002H40.5Z" fill="#1D7CCF"/>
</svg>
