<svg width="22" height="23" viewBox="0 0 22 23" fill="none" xmlns="http://www.w3.org/2000/svg">
<path d="M18.5625 2.72852H3.4375C2.29841 2.72852 1.375 3.65193 1.375 4.79102V18.541C1.375 19.6801 2.29841 20.6035 3.4375 20.6035H18.5625C19.7016 20.6035 20.625 19.6801 20.625 18.541V4.79102C20.625 3.65193 19.7016 2.72852 18.5625 2.72852Z" stroke="#1D7CCF" stroke-width="1.375" stroke-linejoin="round"/>
<path d="M4.125 5.47852L7.5625 8.22852L4.125 10.9785M8.25 10.9785H11" stroke="#1D7CCF" stroke-width="1.375" stroke-linecap="round" stroke-linejoin="round"/>
<path d="M11.4989 17.7629L14.3033 19.3522C14.4031 19.4093 14.501 19.4377 14.5972 19.4377C14.6934 19.4377 14.7926 19.4093 14.8947 19.3522L17.6956 17.7629C17.8595 17.6679 17.9837 17.5604 18.0679 17.4404C18.1523 17.3206 18.1944 17.1334 18.1944 16.8793V14.0571C18.1944 13.8718 18.1595 13.7185 18.0893 13.5974C18.0192 13.4762 17.9094 13.3717 17.7598 13.2838L15.2367 11.8513C15.0231 11.7277 14.8105 11.666 14.5991 11.666C14.3877 11.666 14.1738 11.7277 13.9576 11.8513L11.4383 13.2838C11.2863 13.3717 11.1752 13.4762 11.1051 13.5974C11.0351 13.7185 11 13.8718 11 14.0571V16.8793C11 17.1334 11.0427 17.3206 11.1282 17.4404C11.2137 17.5604 11.3373 17.6679 11.4989 17.7629ZM11.8196 17.2926C11.715 17.2332 11.6426 17.1709 11.6022 17.1054C11.5617 17.0402 11.5415 16.9589 11.5415 16.8614V14.171L14.3176 15.7567V18.7143L11.8196 17.2926ZM17.3784 17.2926L14.877 18.7143V15.7567L17.6526 14.171V16.8614C17.6526 16.9589 17.6324 17.0402 17.592 17.1054C17.5515 17.1707 17.4805 17.2332 17.3784 17.2926ZM14.5989 15.2579L11.848 13.7006L12.9491 13.0701L15.7 14.6343L14.5989 15.2579ZM16.2736 14.3101L13.5121 12.7492L14.1963 12.3608C14.4671 12.2065 14.7357 12.2065 15.0017 12.3608L17.3499 13.7006L16.2736 14.3101Z" fill="#1D7CCF"/>
</svg>
