<svg width="22" height="22" viewBox="0 0 22 22" fill="none" xmlns="http://www.w3.org/2000/svg">
<g clip-path="url(#clip0_470_11845)">
<path d="M4.08375 1.85625C4.21284 1.70532 4.3731 1.58415 4.5535 1.50108C4.73389 1.418 4.93014 1.37499 5.12875 1.375H16.8713C17.0699 1.37499 17.2661 1.418 17.4465 1.50108C17.6269 1.58415 17.7872 1.70532 17.9162 1.85625L21.5036 6.04175C21.8239 6.41552 22 6.89152 22 7.38375V7.73438C22.0001 8.41497 21.7875 9.07858 21.392 9.63245C20.9965 10.1863 20.4378 10.6028 19.7941 10.8236C19.1503 11.0445 18.4536 11.0587 17.8014 10.8642C17.1492 10.6698 16.574 10.2764 16.1562 9.73913C15.8513 10.1321 15.4603 10.4501 15.0135 10.6687C14.5666 10.8872 14.0756 11.0006 13.5781 11C13.0807 11.0006 12.5897 10.8872 12.1428 10.6687C11.6959 10.4501 11.305 10.1321 11 9.73913C10.695 10.1321 10.3041 10.4501 9.85721 10.6687C9.41033 10.8872 8.91934 11.0006 8.42188 11C7.92441 11.0006 7.43342 10.8872 6.98654 10.6687C6.53965 10.4501 6.14874 10.1321 5.84375 9.73913C5.42601 10.2764 4.85084 10.6698 4.19861 10.8642C3.54639 11.0587 2.84971 11.0445 2.20595 10.8236C1.56218 10.6028 1.00351 10.1863 0.608001 9.63245C0.212495 9.07858 -7.5073e-05 8.41497 1.98887e-08 7.73438V7.38375C1.73354e-05 6.89152 0.176078 6.41552 0.496375 6.04175L4.08375 1.85625ZM6.53125 7.73438C6.53125 8.2358 6.73044 8.71669 7.085 9.07125C7.43956 9.42581 7.92045 9.625 8.42188 9.625C8.9233 9.625 9.40419 9.42581 9.75875 9.07125C10.1133 8.71669 10.3125 8.2358 10.3125 7.73438C10.3125 7.55204 10.3849 7.37717 10.5139 7.24824C10.6428 7.11931 10.8177 7.04688 11 7.04688C11.1823 7.04688 11.3572 7.11931 11.4861 7.24824C11.6151 7.37717 11.6875 7.55204 11.6875 7.73438C11.6875 8.2358 11.8867 8.71669 12.2413 9.07125C12.5958 9.42581 13.0767 9.625 13.5781 9.625C14.0795 9.625 14.5604 9.42581 14.915 9.07125C15.2696 8.71669 15.4688 8.2358 15.4688 7.73438C15.4688 7.55204 15.5412 7.37717 15.6701 7.24824C15.799 7.11931 15.9739 7.04688 16.1562 7.04688C16.3386 7.04688 16.5135 7.11931 16.6424 7.24824C16.7713 7.37717 16.8438 7.55204 16.8438 7.73438C16.8438 8.2358 17.0429 8.71669 17.3975 9.07125C17.7521 9.42581 18.233 9.625 18.7344 9.625C19.2358 9.625 19.7167 9.42581 20.0712 9.07125C20.4258 8.71669 20.625 8.2358 20.625 7.73438V7.38375C20.625 7.21989 20.5665 7.06141 20.46 6.93688L16.8713 2.75H5.12875L1.54 6.93688C1.4335 7.06141 1.37499 7.21989 1.375 7.38375V7.73438C1.375 8.2358 1.57419 8.71669 1.92875 9.07125C2.28331 9.42581 2.7642 9.625 3.26562 9.625C3.76705 9.625 4.24794 9.42581 4.6025 9.07125C4.95706 8.71669 5.15625 8.2358 5.15625 7.73438C5.15625 7.55204 5.22868 7.37717 5.35761 7.24824C5.48655 7.11931 5.66141 7.04688 5.84375 7.04688C6.02609 7.04688 6.20095 7.11931 6.32989 7.24824C6.45882 7.37717 6.53125 7.55204 6.53125 7.73438ZM2.0625 11.6875C2.24484 11.6875 2.4197 11.7599 2.54864 11.8889C2.67757 12.0178 2.75 12.1927 2.75 12.375V20.625H4.125V13.75C4.125 13.3853 4.26987 13.0356 4.52773 12.7777C4.78559 12.5199 5.13533 12.375 5.5 12.375H9.625C9.98967 12.375 10.3394 12.5199 10.5973 12.7777C10.8551 13.0356 11 13.3853 11 13.75V20.625H19.25V12.375C19.25 12.1927 19.3224 12.0178 19.4514 11.8889C19.5803 11.7599 19.7552 11.6875 19.9375 11.6875C20.1198 11.6875 20.2947 11.7599 20.4236 11.8889C20.5526 12.0178 20.625 12.1927 20.625 12.375V20.625H21.3125C21.4948 20.625 21.6697 20.6974 21.7986 20.8264C21.9276 20.9553 22 21.1302 22 21.3125C22 21.4948 21.9276 21.6697 21.7986 21.7986C21.6697 21.9276 21.4948 22 21.3125 22H0.6875C0.505164 22 0.330295 21.9276 0.201364 21.7986C0.0724329 21.6697 1.98887e-08 21.4948 1.98887e-08 21.3125C1.98887e-08 21.1302 0.0724329 20.9553 0.201364 20.8264C0.330295 20.6974 0.505164 20.625 0.6875 20.625H1.375V12.375C1.375 12.1927 1.44743 12.0178 1.57636 11.8889C1.7053 11.7599 1.88016 11.6875 2.0625 11.6875ZM5.5 20.625H9.625V13.75H5.5V20.625ZM12.375 13.75C12.375 13.3853 12.5199 13.0356 12.7777 12.7777C13.0356 12.5199 13.3853 12.375 13.75 12.375H16.5C16.8647 12.375 17.2144 12.5199 17.4723 12.7777C17.7301 13.0356 17.875 13.3853 17.875 13.75V17.875C17.875 18.2397 17.7301 18.5894 17.4723 18.8473C17.2144 19.1051 16.8647 19.25 16.5 19.25H13.75C13.3853 19.25 13.0356 19.1051 12.7777 18.8473C12.5199 18.5894 12.375 18.2397 12.375 17.875V13.75ZM16.5 13.75H13.75V17.875H16.5V13.75Z" fill="#1D7CCF"/>
</g>
<defs>
<clipPath id="clip0_470_11845">
<rect width="22" height="22" fill="white"/>
</clipPath>
</defs>
</svg>
