<svg width="20" height="20" viewBox="0 0 18 18" fill="none" xmlns="http://www.w3.org/2000/svg"><path d="M1.5 5.24998L5.39538 7.84691C5.62011 7.99673 5.73248 8.07164 5.85405 8.12471C5.96195 8.17181 6.07502 8.20605 6.19093 8.22671C6.32152 8.24998 6.45657 8.24998 6.72666 8.24998H11.2733C11.5434 8.24998 11.6785 8.24998 11.8091 8.22671C11.925 8.20605 12.038 8.17181 12.146 8.12471C12.2675 8.07164 12.3799 7.99672 12.6046 7.8469L16.5 5.24998M5.1 15H12.9C14.1601 15 14.7902 15 15.2715 14.7547C15.6948 14.539 16.039 14.1948 16.2548 13.7715C16.5 13.2902 16.5 12.6601 16.5 11.4V6.59998C16.5 5.33987 16.5 4.70981 16.2548 4.22851C16.039 3.80514 15.6948 3.46094 15.2715 3.24522C14.7902 2.99998 14.1601 2.99998 12.9 2.99998H5.1C3.83988 2.99998 3.20982 2.99998 2.72852 3.24522C2.30516 3.46094 1.96095 3.80514 1.74524 4.22851C1.5 4.70981 1.5 5.33987 1.5 6.59998V11.4C1.5 12.6601 1.5 13.2902 1.74524 13.7715C1.96095 14.1948 2.30516 14.539 2.72852 14.7547C3.20982 15 3.83988 15 5.1 15Z" stroke="black" stroke-width="1.44" stroke-linecap="round" stroke-linejoin="round"></path></svg>