<svg width="406" viewBox="0 0 406 282" fill="none" xmlns="http://www.w3.org/2000/svg">
<path d="M288.268 56.1574C288.268 85.6563 264.808 110.05 235.626 111.752C234.482 111.752 233.338 111.752 232.193 111.752C222.466 111.752 212.739 108.915 204.728 104.377C187.563 94.7329 176.119 76.5798 176.119 55.5902C176.119 41.408 181.269 28.3604 190.424 18.7165C200.723 7.37082 215.6 -0.00390625 232.193 -0.00390625C253.936 -0.00390625 272.819 12.4764 281.974 30.6296C285.979 38.5716 288.268 47.0809 288.268 56.1574Z" fill="url(#paint0_linear_357_10762)"></path>
<path opacity="0.1" d="M287.777 56.1597C287.777 85.6586 264.318 110.052 235.136 111.754C224.265 110.052 213.965 107.215 204.238 104.946C187.073 95.3024 175.629 77.1493 175.629 56.1597C175.629 41.9775 180.779 28.9299 189.934 19.2861C208.816 18.7188 230.559 20.4206 252.874 24.3916C263.173 26.0935 272.901 28.3626 282.056 30.6318C285.489 38.5738 287.777 47.0831 287.777 56.1597Z" fill="black"></path>
<path d="M356.193 93.7014C360.511 69.6425 307.266 40.127 237.266 27.7765C167.266 15.4261 107.019 24.9177 102.7 48.9766C98.3817 73.0355 151.627 102.551 221.627 114.901C291.627 127.252 351.874 117.76 356.193 93.7014Z" fill="url(#paint1_linear_357_10762)"></path>
<path d="M219.421 41.5161C219.739 37.4554 213.357 33.6516 205.165 33.0202C196.974 32.3887 190.075 35.1687 189.756 39.2294C189.438 43.2902 195.82 47.0939 204.012 47.7254C212.203 48.3568 219.102 45.5768 219.421 41.5161Z" fill="white"></path>
<path d="M147.423 51.945C155.299 49.6267 160.736 44.5823 159.567 40.6779C158.397 36.7736 151.065 35.4879 143.189 37.8062C135.313 40.1245 129.876 45.169 131.045 49.0733C132.214 52.9776 139.547 54.2634 147.423 51.945Z" fill="white"></path>
<path d="M277.287 56.439C278.007 52.4292 272.033 48.0217 263.944 46.5945C255.855 45.1674 248.714 47.261 247.995 51.2708C247.275 55.2807 253.249 59.6882 261.338 61.1154C269.427 62.5425 276.567 60.4489 277.287 56.439Z" fill="white"></path>
<path d="M320.725 86.0975C322.608 82.4775 318.214 76.5164 310.912 72.7832C303.609 69.0499 296.163 68.9581 294.28 72.5782C292.397 76.1982 296.791 82.1592 304.094 85.8925C311.396 89.6257 318.842 89.7175 320.725 86.0975Z" fill="white"></path>
<path d="M222.311 76.4735L168.525 75.9062L91.9277 218.377L306.919 240.987L282.962 95.7613L222.311 76.4735Z" fill="url(#paint2_linear_357_10762)"></path>
<path opacity="0.5" d="M335.022 278.892H59.8008C67.2392 272.225 78.1107 265.559 90.6988 260.559C97.5651 258.059 105.576 254.726 113.586 253.059C137.618 246.393 166.8 242.227 197.698 242.227C234.89 242.227 269.221 248.06 295.541 257.226C304.696 260.559 312.707 263.892 319.573 268.059C325.867 271.392 331.017 274.725 335.022 278.892Z" fill="url(#paint3_linear_357_10762)"></path>
<path opacity="0.3" d="M117.397 257.088C117.758 260.473 111.86 264.524 105.032 265.251C98.2045 265.979 92.2144 263.764 91.2849 260.44C97.9323 258.021 105.657 254.916 113.503 252.939C115.899 253.825 117.217 255.396 117.397 257.088Z" fill="url(#paint4_linear_357_10762)"></path>
<path opacity="0.3" d="M165.656 254.708C174.82 254.708 182.249 252.93 182.249 250.737C182.249 248.544 174.82 246.766 165.656 246.766C156.492 246.766 149.062 248.544 149.062 250.737C149.062 252.93 156.492 254.708 165.656 254.708Z" fill="url(#paint5_linear_357_10762)"></path>
<path opacity="0.3" d="M255.097 254.382C255.285 251.569 248.025 248.801 238.881 248.2C229.736 247.599 222.171 249.393 221.983 252.206C221.795 255.02 229.055 257.788 238.199 258.389C247.344 258.99 254.909 257.196 255.097 254.382Z" fill="url(#paint6_linear_357_10762)"></path>
<path opacity="0.3" d="M318.094 267.163C315.821 266.901 313.09 266.989 309.745 266.032C300.715 264.419 293.651 260.75 293.975 257.932C294.04 257.368 294.04 257.368 294.674 256.87C303.509 260.173 311.539 263.368 318.094 267.163Z" fill="url(#paint7_linear_357_10762)"></path>
<path d="M282.621 97.228C284.558 86.4323 260.404 73.142 228.671 67.5431C196.938 61.9442 169.642 66.1571 167.704 76.9527C165.766 87.7484 189.92 101.039 221.654 106.638C253.387 112.236 280.683 108.024 282.621 97.228Z" fill="url(#paint8_linear_357_10762)"></path>
<path d="M77.15 149.508C77.15 149.508 57.385 154.526 63.3744 158.541C69.3638 162.355 83.5387 168.979 96.9151 164.563C110.291 160.147 96.9151 153.924 97.1147 153.924C97.3144 153.924 77.15 149.508 77.15 149.508Z" fill="#CED7E2"></path>
<path d="M52.9922 147.9C60.1795 150.108 82.3403 146.495 96.5152 137.262C107.695 151.112 111.888 154.725 115.881 155.127C109.692 161.349 89.1283 171.386 77.5488 158.338C63.9728 166.97 52.9922 147.9 52.9922 147.9Z" fill="#E9EEF8"></path>
<path d="M290.391 165.973C297.977 166.374 318.541 157.141 329.721 144.695C344.096 155.334 348.887 157.743 353.08 157.141C348.488 164.768 334.513 181.429 314.748 182.633C300.373 174.203 290.391 165.973 290.391 165.973Z" fill="#E9EEF8"></path>
<path d="M224.642 166.219C223.141 158.772 209.076 141.157 194.238 133.429C200.961 116.857 202.1 111.617 200.473 107.707C209.004 110.254 228.62 119.638 234.71 138.48C230.126 154.502 224.642 166.219 224.642 166.219Z" fill="white"></path>
<path d="M403 278.891H385.626H25.4456H3" stroke="#D5DAE8" stroke-width="4.70168" stroke-miterlimit="10" stroke-linecap="round" stroke-linejoin="round"></path>
<path d="M158.214 233.319V244.664H151.348V255.443H138.187V244.664H109.578V231.617L135.899 195.311H151.348V233.319H158.214ZM138.76 210.06L122.166 233.319H138.76V210.06Z" fill="url(#paint9_linear_357_10762)"></path>
<path d="M199.412 256.579C185.68 256.579 173.664 244.666 173.664 225.378C173.664 206.091 185.68 194.178 199.412 194.178C213.145 194.178 225.161 206.091 225.161 225.378C225.733 244.099 213.717 256.579 199.412 256.579ZM199.412 244.666C205.706 244.666 212.573 238.426 212.573 224.811C212.573 211.764 206.279 204.956 199.412 204.956C193.118 204.956 186.252 211.196 186.252 224.811C186.824 238.426 193.118 244.666 199.412 244.666Z" fill="url(#paint10_linear_357_10762)"></path>
<path d="M290.39 233.319V244.664H283.523V255.443H270.363V244.664H241.754V231.617L268.074 195.311H282.951V233.319H290.39ZM270.363 210.06L253.77 233.319H270.363V210.06Z" fill="url(#paint11_linear_357_10762)"></path>
<path d="M153.065 233.319V244.664H146.199V255.443H133.039V244.664H104.43V231.617L130.75 195.311H145.627V233.319H153.065ZM133.611 210.06L117.018 233.319H133.611V210.06Z" fill="url(#paint12_linear_357_10762)"></path>
<path d="M194.264 256.579C180.532 256.579 168.516 244.666 168.516 225.378C168.516 206.091 180.532 194.178 194.264 194.178C207.996 194.178 220.012 206.091 220.012 225.378C220.585 244.099 208.569 256.579 194.264 256.579ZM194.264 244.666C200.558 244.666 207.424 238.426 207.424 224.811C207.424 211.764 201.13 204.956 194.264 204.956C187.97 204.956 181.104 211.196 181.104 224.811C181.676 238.426 187.97 244.666 194.264 244.666Z" fill="url(#paint13_linear_357_10762)"></path>
<path d="M285.241 233.319V244.664H278.375V255.443H265.215V244.664H236.605V231.617L262.926 195.311H277.803V233.319H285.241ZM265.215 210.06L248.621 233.319H265.215V210.06Z" fill="url(#paint14_linear_357_10762)"></path>
<defs>
<linearGradient id="paint0_linear_357_10762" x1="232.202" y1="3.87834" x2="232.202" y2="66.6055" gradientUnits="userSpaceOnUse">
<stop stop-color="#B0BACC"></stop>
<stop offset="1" stop-color="#969EAE"></stop>
</linearGradient><linearGradient id="paint1_linear_357_10762" x1="111.507" y1="50.5234" x2="253.715" y2="76.0489" gradientUnits="userSpaceOnUse">
<stop stop-color="#E3E7EE"></stop>
<stop offset="1" stop-color="#D1D6DF"></stop>
</linearGradient><linearGradient id="paint2_linear_357_10762" x1="199.437" y1="81.6409" x2="199.437" y2="174.299" gradientUnits="userSpaceOnUse">
<stop stop-color="#BDC4D1" stop-opacity="0.53"></stop>
<stop offset="1" stop-color="#5D7CB8" stop-opacity="0"></stop>
</linearGradient>
<linearGradient id="paint3_linear_357_10762" x1="197.411" y1="242.227" x2="197.411" y2="278.892" gradientUnits="userSpaceOnUse">
<stop stop-color="#B6BFD7"></stop>
<stop offset="1" stop-color="#838DA7" stop-opacity="0"></stop>
</linearGradient>
<linearGradient id="paint4_linear_357_10762" x1="103.874" y1="254.361" x2="104.549" y2="260.694" gradientUnits="userSpaceOnUse">
<stop stop-color="#B0BACC"></stop>
<stop offset="1" stop-color="#969EAE"></stop>
</linearGradient>
<linearGradient id="paint5_linear_357_10762" x1="165.659" y1="247.042" x2="165.659" y2="251.499" gradientUnits="userSpaceOnUse">
<stop stop-color="#B0BACC"></stop>
<stop offset="1" stop-color="#969EAE"></stop>
</linearGradient>
<linearGradient id="paint6_linear_357_10762" x1="223.134" y1="252.281" x2="241.719" y2="253.524" gradientUnits="userSpaceOnUse">
<stop stop-color="#B0BACC"></stop>
<stop offset="1" stop-color="#969EAE"></stop>
</linearGradient>
<linearGradient id="paint7_linear_357_10762" x1="306.582" y1="258.51" x2="306.092" y2="262.763" gradientUnits="userSpaceOnUse">
<stop stop-color="#B0BACC"></stop><stop offset="1" stop-color="#969EAE"></stop>
</linearGradient>
<linearGradient id="paint8_linear_357_10762" x1="225.162" y1="102.177" x2="233.631" y2="72.9447" gradientUnits="userSpaceOnUse">
<stop stop-color="#B0BACC"></stop>
<stop offset="1" stop-color="#969EAE"></stop>
</linearGradient>
<linearGradient id="paint9_linear_357_10762" x1="133.9" y1="197.399" x2="133.9" y2="231.151" gradientUnits="userSpaceOnUse">
<stop stop-color="#D6DCE6"></stop>
<stop offset="1" stop-color="#C4CBDA"></stop>
</linearGradient>
<linearGradient id="paint10_linear_357_10762" x1="199.426" y1="196.345" x2="199.426" y2="231.371" gradientUnits="userSpaceOnUse">
<stop stop-color="#D6DCE6"></stop>
<stop offset="1" stop-color="#C4CBDA"></stop>
</linearGradient>
<linearGradient id="paint11_linear_357_10762" x1="266.076" y1="197.399" x2="266.076" y2="231.151" gradientUnits="userSpaceOnUse">
<stop stop-color="#D6DCE6"></stop>
<stop offset="1" stop-color="#C4CBDA"></stop>
</linearGradient>
<linearGradient id="paint12_linear_357_10762" x1="128.751" y1="197.399" x2="128.751" y2="231.151" gradientUnits="userSpaceOnUse">
<stop stop-color="#EAEEF5"></stop>
<stop offset="1" stop-color="#D4DAE4"></stop>
</linearGradient>
<linearGradient id="paint13_linear_357_10762" x1="194.278" y1="196.345" x2="194.278" y2="231.371" gradientUnits="userSpaceOnUse">
<stop stop-color="#EAEEF5"></stop>
<stop offset="1" stop-color="#D4DAE4"></stop>
</linearGradient>
<linearGradient id="paint14_linear_357_10762" x1="260.927" y1="197.399" x2="260.927" y2="231.151" gradientUnits="userSpaceOnUse">
<stop stop-color="#EAEEF5"></stop>
<stop offset="1" stop-color="#D4DAE4"></stop>
</linearGradient>
</defs>
</svg>