<svg width="36" height="36" viewBox="0 0 36 36" fill="none" xmlns="http://www.w3.org/2000/svg">
<g clip-path="url(#clip0_3004_949)">
<path d="M35.6484 18.4146C35.6484 17.191 35.5492 15.9608 35.3375 14.7571H18.3594V21.6886H28.082C27.6785 23.9241 26.3822 25.9017 24.484 27.1583V31.6558H30.2844C33.6907 28.5208 35.6484 23.891 35.6484 18.4146Z" fill="#4285F4"/>
<path d="M18.3606 36.0012C23.2153 36.0012 27.3094 34.4073 30.2923 31.6558L24.4918 27.1583C22.878 28.2562 20.7946 28.878 18.3673 28.878C13.6713 28.878 9.68969 25.7099 8.26106 21.4504H2.27539V26.0869C5.33106 32.1651 11.5548 36.0012 18.3606 36.0012Z" fill="#34A853"/>
<path d="M8.25318 21.4504C7.49919 19.2149 7.49919 16.7942 8.25318 14.5587V9.92224H2.27413C-0.278876 15.0084 -0.278876 21.0007 2.27413 26.0869L8.25318 21.4504Z" fill="#FBBC04"/>
<path d="M18.3606 7.12449C20.9269 7.08481 23.4071 8.05045 25.2657 9.823L30.4047 4.68392C27.1506 1.62826 22.8317 -0.051699 18.3606 0.001213C11.5548 0.001213 5.33106 3.83733 2.27539 9.92221L8.25445 14.5586C9.67646 10.2926 13.6647 7.12449 18.3606 7.12449Z" fill="#EA4335"/>
</g>
<defs>
<clipPath id="clip0_3004_949">
<rect width="36" height="36" fill="white"/>
</clipPath>
</defs>
</svg>
