<svg width="22" height="23" viewBox="0 0 22 23" fill="none" xmlns="http://www.w3.org/2000/svg">
<path d="M7.42539 4.68398C6.76898 4.68398 6.13945 4.94474 5.6753 5.4089C5.21115 5.87305 4.95039 6.50257 4.95039 7.15898C4.95039 7.8154 5.21115 8.44492 5.6753 8.90907C6.13945 9.37323 6.76898 9.63398 7.42539 9.63398C8.0818 9.63398 8.71133 9.37323 9.17548 8.90907C9.63963 8.44492 9.90039 7.8154 9.90039 7.15898C9.90039 6.50257 9.63963 5.87305 9.17548 5.4089C8.71133 4.94474 8.0818 4.68398 7.42539 4.68398ZM3.85039 7.15898C3.85039 6.21084 4.22704 5.30152 4.89748 4.63108C5.56793 3.96063 6.47724 3.58398 7.42539 3.58398C8.37354 3.58398 9.28285 3.96063 9.9533 4.63108C10.6237 5.30152 11.0004 6.21084 11.0004 7.15898C11.0004 8.10713 10.6237 9.01645 9.9533 9.68689C9.28285 10.3573 8.37354 10.734 7.42539 10.734C6.47724 10.734 5.56793 10.3573 4.89748 9.68689C4.22704 9.01645 3.85039 8.10713 3.85039 7.15898ZM3.85039 11.834C3.26691 11.834 2.70734 12.0658 2.29476 12.4784C1.88218 12.8909 1.65039 13.4505 1.65039 14.034V14.1264C1.65197 14.1907 1.65638 14.2549 1.66359 14.3189C1.74155 15.0318 1.99475 15.7143 2.40059 16.3055C3.17169 17.422 4.66109 18.434 7.42539 18.434C8.46599 18.434 9.32509 18.291 10.0335 18.0523C9.95576 17.6893 9.91176 17.3153 9.90149 16.9303C9.28109 17.1745 8.47479 17.334 7.42539 17.334C4.96469 17.334 3.84159 16.4551 3.30589 15.6807C3.00588 15.243 2.81778 14.7384 2.75809 14.2111L2.75149 14.1198L2.75039 14.1011V14.034C2.75039 13.7422 2.86628 13.4625 3.07257 13.2562C3.27886 13.0499 3.55865 12.934 3.85039 12.934H11.0004C11.0891 12.934 11.1753 12.9443 11.2589 12.9648C11.5082 12.6568 11.7862 12.3763 12.0927 12.1233C11.76 11.9334 11.3835 11.8337 11.0004 11.834H3.85039ZM15.9504 6.33398C15.5128 6.33398 15.0931 6.50782 14.7837 6.81726C14.4742 7.12669 14.3004 7.54638 14.3004 7.98398C14.3004 8.42159 14.4742 8.84128 14.7837 9.15071C15.0931 9.46015 15.5128 9.63398 15.9504 9.63398C16.388 9.63398 16.8077 9.46015 17.1171 9.15071C17.4266 8.84128 17.6004 8.42159 17.6004 7.98398C17.6004 7.54638 17.4266 7.12669 17.1171 6.81726C16.8077 6.50782 16.388 6.33398 15.9504 6.33398ZM13.2004 7.98398C13.2004 7.25464 13.4901 6.55517 14.0058 6.03944C14.5216 5.52372 15.221 5.23398 15.9504 5.23398C16.6797 5.23398 17.3792 5.52372 17.8949 6.03944C18.4107 6.55517 18.7004 7.25464 18.7004 7.98398C18.7004 8.71333 18.4107 9.4128 17.8949 9.92853C17.3792 10.4443 16.6797 10.734 15.9504 10.734C15.221 10.734 14.5216 10.4443 14.0058 9.92853C13.4901 9.4128 13.2004 8.71333 13.2004 7.98398ZM15.9504 21.734C17.0363 21.7336 18.092 21.3762 18.9548 20.7168C19.8175 20.0574 20.4395 19.1325 20.7249 18.0848C21.0102 17.037 20.9431 15.9245 20.5339 14.9186C20.1247 13.9128 19.3961 13.0694 18.4603 12.5184C17.5245 11.9675 16.4335 11.7395 15.3555 11.8697C14.2774 11.9999 13.272 12.4809 12.4943 13.2388C11.7165 13.9967 11.2096 14.9892 11.0515 16.0636C10.8935 17.1379 11.0931 18.2345 11.6197 19.1842L11.0213 21.1521C10.9981 21.23 10.9964 21.3127 11.0163 21.3915C11.0363 21.4703 11.0771 21.5423 11.1346 21.5998C11.1921 21.6572 11.264 21.6981 11.3428 21.7181C11.4217 21.738 11.5044 21.7363 11.5823 21.7131L13.5513 21.1147C14.2856 21.5212 15.1111 21.7343 15.9504 21.734ZM13.2004 15.684C13.2004 15.5381 13.2583 15.3982 13.3615 15.2951C13.4646 15.1919 13.6045 15.134 13.7504 15.134H18.1504C18.2963 15.134 18.4362 15.1919 18.5393 15.2951C18.6424 15.3982 18.7004 15.5381 18.7004 15.684C18.7004 15.8299 18.6424 15.9697 18.5393 16.0729C18.4362 16.176 18.2963 16.234 18.1504 16.234H13.7504C13.6045 16.234 13.4646 16.176 13.3615 16.0729C13.2583 15.9697 13.2004 15.8299 13.2004 15.684ZM13.7504 18.434C13.6045 18.434 13.4646 18.376 13.3615 18.2729C13.2583 18.1697 13.2004 18.0299 13.2004 17.884C13.2004 17.7381 13.2583 17.5982 13.3615 17.4951C13.4646 17.3919 13.6045 17.334 13.7504 17.334H15.9504C16.0963 17.334 16.2362 17.3919 16.3393 17.4951C16.4424 17.5982 16.5004 17.7381 16.5004 17.884C16.5004 18.0299 16.4424 18.1697 16.3393 18.2729C16.2362 18.376 16.0963 18.434 15.9504 18.434H13.7504Z" fill="#1D7CCF"/>
</svg>
