<svg width="46" height="45" viewBox="0 0 46 45" fill="none" xmlns="http://www.w3.org/2000/svg">
<g clip-path="url(#clip0_427_13540)">
<path d="M24.31 8.85C24.11 8.55 23.86 8.4 23.56 8.4H20.86C20.56 8.4 20.31 8.55 20.11 8.85L13.81 23.7C13.71 23.8 13.71 23.95 13.81 24.15L16.51 30.3L15.16 34.2C15.16 34.4 15.21 34.6 15.31 34.8C15.41 35 15.61 35.1 15.91 35.1H28.51C28.81 35.1 29.01 35 29.11 34.8C29.21 34.6 29.26 34.4 29.26 34.2L27.91 30.3L30.61 24.15C30.71 23.95 30.71 23.8 30.61 23.7L24.31 8.85ZM22.21 21.45C22.81 21.45 23.31 21.65 23.71 22.05C24.11 22.45 24.31 22.95 24.31 23.55C24.31 24.15 24.11 24.65 23.71 25.05C23.31 25.45 22.81 25.65 22.21 25.65C21.61 25.65 21.11 25.45 20.71 25.05C20.31 24.65 20.11 24.15 20.11 23.55C20.11 22.95 20.31 22.45 20.71 22.05C21.11 21.65 21.61 21.45 22.21 21.45ZM16.81 33.75L17.86 30.9H26.56L27.61 33.75H16.81ZM26.71 29.55H17.71L15.31 23.85L21.31 9.9H21.46V20.1C20.56 20.3 19.86 20.75 19.36 21.45C18.86 22.15 18.66 22.95 18.76 23.85C18.86 24.75 19.235 25.5 19.885 26.1C20.535 26.7 21.31 27 22.21 27C23.11 27 23.885 26.7 24.535 26.1C25.185 25.5 25.56 24.75 25.66 23.85C25.76 22.95 25.56 22.15 25.06 21.45C24.56 20.75 23.86 20.3 22.96 20.1V9.9H23.11L29.11 23.85L26.71 29.55ZM43.66 20.1H42.01C41.51 16.5 40.16 13.275 37.96 10.425C35.76 7.575 32.96 5.5 29.56 4.2H34.96C35.16 4.7 35.485 5.075 35.935 5.325C36.385 5.575 36.86 5.65 37.36 5.55C37.86 5.45 38.285 5.225 38.635 4.875C38.985 4.525 39.16 4.075 39.16 3.525C39.16 2.975 38.985 2.5 38.635 2.1C38.285 1.7 37.86 1.475 37.36 1.425C36.86 1.375 36.385 1.475 35.935 1.725C35.485 1.975 35.16 2.35 34.96 2.85H25.66C25.46 2.05 25.035 1.375 24.385 0.824998C23.735 0.274998 23.01 -1.78814e-06 22.21 -1.78814e-06C21.41 -1.78814e-06 20.685 0.274998 20.035 0.824998C19.385 1.375 18.96 2.05 18.76 2.85H9.46001C9.26001 2.35 8.93501 1.975 8.48501 1.725C8.03501 1.475 7.56001 1.375 7.06001 1.425C6.56001 1.475 6.13501 1.7 5.78501 2.1C5.43501 2.5 5.26001 2.975 5.26001 3.525C5.26001 4.075 5.43501 4.525 5.78501 4.875C6.13501 5.225 6.56001 5.45 7.06001 5.55C7.56001 5.65 8.03501 5.575 8.48501 5.325C8.93501 5.075 9.26001 4.7 9.46001 4.2H14.86C11.46 5.5 8.66001 7.575 6.46001 10.425C4.26001 13.275 2.91001 16.5 2.41001 20.1H0.76001C0.56001 20.1 0.38501 20.15 0.23501 20.25C0.0850098 20.35 0.0100098 20.5 0.0100098 20.7V24.9C0.0100098 25.1 0.0850098 25.275 0.23501 25.425C0.38501 25.575 0.56001 25.65 0.76001 25.65H2.41001C2.81001 28.55 3.78501 31.225 5.33501 33.675C6.88501 36.125 8.88501 38.15 11.335 39.75C13.785 41.35 16.46 42.35 19.36 42.75V44.25C19.36 44.45 19.435 44.625 19.585 44.775C19.735 44.925 19.91 45 20.11 45H24.31C24.51 45 24.685 44.925 24.835 44.775C24.985 44.625 25.06 44.45 25.06 44.25V42.75C27.96 42.35 30.635 41.35 33.085 39.75C35.535 38.15 37.535 36.125 39.085 33.675C40.635 31.225 41.61 28.55 42.01 25.65H43.66C43.86 25.65 44.035 25.575 44.185 25.425C44.335 25.275 44.41 25.1 44.41 24.9V20.7C44.41 20.5 44.335 20.35 44.185 20.25C44.035 20.15 43.86 20.1 43.66 20.1ZM36.91 2.85C37.11 2.85 37.285 2.9 37.435 3C37.585 3.1 37.66 3.25 37.66 3.45C37.66 3.65 37.585 3.825 37.435 3.975C37.285 4.125 37.11 4.2 36.91 4.2C36.71 4.2 36.56 4.125 36.46 3.975C36.36 3.825 36.31 3.65 36.31 3.45C36.31 3.25 36.36 3.1 36.46 3C36.56 2.9 36.71 2.85 36.91 2.85ZM22.21 1.35C22.81 1.35 23.31 1.575 23.71 2.025C24.11 2.475 24.31 2.975 24.31 3.525C24.31 4.075 24.11 4.55 23.71 4.95C23.31 5.35 22.81 5.55 22.21 5.55C21.61 5.55 21.11 5.35 20.71 4.95C20.31 4.55 20.11 4.075 20.11 3.525C20.11 2.975 20.31 2.475 20.71 2.025C21.11 1.575 21.61 1.35 22.21 1.35ZM7.51001 4.2C7.31001 4.2 7.13501 4.125 6.98501 3.975C6.83501 3.825 6.76001 3.65 6.76001 3.45C6.76001 3.25 6.83501 3.1 6.98501 3C7.13501 2.9 7.31001 2.85 7.51001 2.85C7.71001 2.85 7.86001 2.9 7.96001 3C8.06001 3.1 8.11001 3.25 8.11001 3.45C8.11001 3.65 8.06001 3.825 7.96001 3.975C7.86001 4.125 7.71001 4.2 7.51001 4.2ZM1.51001 21.45H4.21001V24.3H1.51001V21.45ZM23.56 43.65H20.86V40.8H23.56V43.65ZM25.06 41.25V40.05C25.06 39.85 24.985 39.675 24.835 39.525C24.685 39.375 24.51 39.3 24.31 39.3H20.11C19.91 39.3 19.735 39.375 19.585 39.525C19.435 39.675 19.36 39.85 19.36 40.05V41.25C15.36 40.65 11.91 38.9 9.01001 36C6.11001 33.1 4.36001 29.65 3.76001 25.65H4.96001C5.16001 25.65 5.33501 25.575 5.48501 25.425C5.63501 25.275 5.71001 25.1 5.71001 24.9V20.7C5.71001 20.5 5.63501 20.35 5.48501 20.25C5.33501 20.15 5.16001 20.1 4.96001 20.1H3.76001C4.36001 16.1 6.06001 12.675 8.86001 9.825C11.66 6.975 15.01 5.2 18.91 4.5C19.11 5.3 19.51 5.925 20.11 6.375C20.71 6.825 21.41 7.05 22.21 7.05C23.01 7.05 23.71 6.825 24.31 6.375C24.91 5.925 25.31 5.3 25.51 4.5C29.41 5.2 32.76 6.975 35.56 9.825C38.36 12.675 40.06 16.1 40.66 20.1H39.46C39.26 20.1 39.085 20.15 38.935 20.25C38.785 20.35 38.71 20.5 38.71 20.7V24.9C38.71 25.1 38.785 25.275 38.935 25.425C39.085 25.575 39.26 25.65 39.46 25.65H40.66C40.06 29.65 38.31 33.1 35.41 36C32.51 38.9 29.06 40.65 25.06 41.25ZM42.91 24.3H40.21V21.45H42.91V24.3Z" fill="#1D7CCF"/>
</g>
<defs>
<clipPath id="clip0_427_13540">
<rect width="45.02" height="45" fill="white" transform="matrix(1 0 0 -1 0 45)"/>
</clipPath>
</defs>
</svg>
