<svg width="231" height="257" viewBox="0 0 231 257" fill="none" xmlns="http://www.w3.org/2000/svg">
<g clip-path="url(#clip0_799_1981)">
<mask id="mask0_799_1981" style="mask-type:luminance" maskUnits="userSpaceOnUse" x="0" y="0" width="231" height="257">
<path d="M230.99 0.149414H0.167969V256.377H230.99V0.149414Z" fill="white"/>
</mask>
<g mask="url(#mask0_799_1981)">
<path d="M138.568 44.0572C130.397 42.2663 114.166 48.2566 108.862 54.7052C102.92 61.9282 97.7899 69.3669 93.69 77.7442C89.6337 86.0325 85.5282 94.4532 83.7621 103.578C82.172 111.79 82.5587 120.335 84.5002 128.472C85.9636 134.603 88.4678 139.735 92.8057 144.307C96.9031 148.625 101.804 151.379 107.077 154.197C112.6 157.151 123.239 162.523 129.119 157.469C130.295 156.457 131.047 155.052 131.715 153.658C135.78 145.183 140.218 133.27 139.974 123.879C137.602 122.46 133.835 120.631 131.55 119.078C121.93 112.543 141.032 105.018 133.153 96.4733" fill="white"/>
<path d="M138.817 43.1503C135.542 42.3627 132.072 42.6918 128.794 43.2959C124.951 44.0026 121.273 45.2513 117.738 46.902C114.577 48.3773 111.432 50.2006 108.928 52.6549C107.375 54.1733 106.077 55.9884 104.754 57.7012C103.221 59.6866 101.736 61.7093 100.316 63.778C97.4794 67.9181 94.9075 72.2386 92.6844 76.7351C90.3372 81.4817 88.0274 86.2611 86.0829 91.1887C84.1707 96.0381 82.6836 101.047 81.9722 106.217C81.2392 111.555 81.2772 116.952 81.9963 122.292C82.6457 127.126 83.7598 131.937 85.8285 136.374C87.7243 140.439 90.4936 144.109 93.8365 147.101C97.4199 150.307 101.601 152.71 105.817 154.979C109.098 156.74 112.438 158.439 115.986 159.601C119.48 160.745 123.566 161.5 127.112 160.141C131.455 158.477 133.062 154.075 134.774 150.124C136.64 145.814 138.282 141.393 139.493 136.851C140.088 134.615 140.575 132.35 140.897 130.057C141.054 128.954 141.178 127.846 141.251 126.732C141.313 125.785 141.627 124.051 141.129 123.198C140.697 122.459 139.38 121.985 138.652 121.586C137.619 121.019 136.581 120.466 135.55 119.897C134.035 119.058 132.34 118.244 131.117 116.989C130.779 116.644 130.522 116.313 130.317 115.849C130.203 115.593 130.112 115.174 130.12 114.821C130.136 114.014 130.428 113.198 130.852 112.383C132.992 108.281 137.559 104.286 136.18 99.1804C135.807 97.7969 134.998 96.6263 134.046 95.5743C132.951 94.3606 131.161 96.1568 132.25 97.3653C133.673 98.9405 134.084 100.715 133.503 102.603C132.921 104.491 131.621 106.247 130.477 107.919C129.349 109.564 128.107 111.296 127.623 113.262C127.107 115.358 127.71 117.357 129.211 118.897C130.452 120.167 132.097 121.052 133.633 121.912C135.512 122.967 137.438 123.94 139.293 125.04C139.072 124.655 138.849 124.269 138.628 123.884C138.771 130.675 136.816 137.431 134.484 143.751C133.343 146.844 132.05 149.884 130.631 152.861C129.936 154.32 129.187 155.831 127.848 156.81C126.826 157.557 125.6 157.994 124.348 158.164C121.59 158.542 118.731 157.816 116.14 156.931C113.563 156.05 111.099 154.871 108.692 153.608C102.686 150.456 96.7089 147.092 92.3033 141.817C87.811 136.436 85.8126 129.712 84.7739 122.899C83.5895 115.145 83.9921 107.183 86.0772 99.6176C88.13 92.1681 91.5298 85.1825 94.9347 78.2725C98.2365 71.5697 102.31 65.2775 106.869 59.3628C108.603 57.1135 110.293 54.7937 112.562 53.0461C114.631 51.452 116.96 50.1763 119.321 49.0785C124.183 46.8184 129.727 44.9412 135.131 44.7793C136.194 44.747 137.264 44.7793 138.314 44.9708C139.488 45.1839 140.007 43.4497 138.815 43.1611L138.817 43.1503Z" fill="#232323"/>
<path d="M112.709 162.859C110.356 160.556 107.692 158.573 104.844 156.92C99.338 153.724 93.1289 151.752 86.8085 151.008C86.2268 150.94 85.6267 150.87 85.0316 150.781C82.9112 158.633 82.1812 166.913 83.2656 175.546C85.4456 192.9 95.9008 206.583 103.611 221.826C105.81 226.169 109.296 232.119 109.028 237.168C108.825 240.995 105.969 245.54 104.753 249.216C104.553 249.817 104.353 250.449 104.455 251.074C104.598 251.94 105.307 252.617 106.091 253.019C108.244 254.127 110.848 253.564 113.18 252.908C122.618 250.262 131.859 246.473 139.653 240.545C140.43 239.954 141.225 239.296 141.555 238.381C141.944 237.3 141.601 236.108 141.247 235.016C137.59 223.744 131.435 213.824 126.799 203.103C122.396 192.921 117.68 181.941 115.819 170.97C115.635 169.89 115.481 168.771 115.741 167.709C115.83 167.344 115.968 166.997 116.13 166.662C114.748 165.327 113.393 163.533 112.709 162.862V162.859Z" fill="white"/>
<path d="M113.558 162.01C109.82 158.385 105.404 155.518 100.62 153.465C98.2024 152.427 95.7115 151.577 93.1556 150.946C90.5786 150.307 87.9739 150.002 85.3507 149.625C84.71 149.533 84.0555 149.773 83.8714 150.463C81.7919 158.25 81.0671 166.371 81.9268 174.39C82.6978 181.583 84.8772 188.436 87.8605 195.007C90.8545 201.598 94.5569 207.831 98.0998 214.135C99.8304 217.212 101.48 220.327 103.1 223.461C104.709 226.577 106.413 229.703 107.324 233.106C107.735 234.644 107.99 236.267 107.757 237.858C107.506 239.563 106.843 241.219 106.167 242.792C105.488 244.369 104.744 245.918 104.103 247.514C103.473 249.081 102.746 250.896 103.73 252.477C105.724 255.676 110.313 254.942 113.339 254.109C116.942 253.116 120.498 251.94 123.968 250.554C127.475 249.151 130.899 247.544 134.163 245.642C135.773 244.706 137.339 243.698 138.853 242.616C140.151 241.691 141.744 240.723 142.48 239.253C143.364 237.484 142.707 235.574 142.117 233.826C141.495 231.987 140.808 230.172 140.067 228.378C138.582 224.775 136.914 221.255 135.188 217.76C131.702 210.704 128.279 203.667 125.231 196.406C122.075 188.887 119.129 181.208 117.463 173.206C117.076 171.353 116.347 169.082 117.169 167.261C117.39 166.77 117.388 166.209 116.98 165.807C115.762 164.607 114.756 163.224 113.558 162.007C112.471 160.904 110.77 162.601 111.857 163.704C113.055 164.92 114.061 166.304 115.278 167.504C115.216 167.018 115.154 166.533 115.089 166.05C114.245 167.919 114.372 169.672 114.718 171.649C115.051 173.554 115.467 175.442 115.946 177.314C116.92 181.122 118.153 184.86 119.522 188.544C122.213 195.792 125.258 202.969 128.625 209.93C131.905 216.71 135.516 223.348 138.288 230.361C138.977 232.103 139.643 233.87 140.186 235.663C140.427 236.459 140.722 237.384 140.324 238.177C139.975 238.873 139.229 239.369 138.62 239.822C135.683 242.015 132.533 243.914 129.258 245.564C126.012 247.199 122.645 248.58 119.21 249.769C117.442 250.381 115.66 250.942 113.861 251.463C112.198 251.946 110.489 252.482 108.739 252.442C107.947 252.423 107.114 252.266 106.432 251.838C105.488 251.242 105.591 250.495 105.905 249.534C106.408 248 107.111 246.538 107.771 245.065C109.093 242.104 110.462 239.005 110.202 235.69C109.943 232.351 108.62 229.193 107.178 226.207C105.737 223.216 104.187 220.265 102.611 217.341C99.2975 211.197 95.6685 205.226 92.4718 199.02C89.2937 192.851 86.5787 186.416 85.1532 179.603C83.5795 172.081 83.5764 164.173 84.9424 156.618C85.2779 154.762 85.6969 152.923 86.1837 151.1C85.6913 151.38 85.1968 151.658 84.7044 151.939C87.206 152.3 89.6943 152.583 92.1579 153.174C94.6272 153.765 97.0611 154.547 99.3975 155.537C104.001 157.489 108.26 160.227 111.849 163.706C112.961 164.782 114.664 163.089 113.55 162.01H113.558Z" fill="#232323"/>
<path d="M113.558 162.01C109.82 158.385 105.404 155.518 100.62 153.465C98.2024 152.427 95.7115 151.577 93.1556 150.946C90.5786 150.307 87.9739 150.002 85.3507 149.625C84.71 149.533 84.0555 149.773 83.8714 150.463C81.7919 158.25 81.0671 166.371 81.9268 174.39C82.6978 181.583 84.8772 188.436 87.8605 195.007C90.8545 201.598 94.5569 207.831 98.0998 214.135C99.8304 217.212 101.48 220.327 103.1 223.461C104.709 226.577 106.413 229.703 107.324 233.106C107.735 234.644 107.99 236.267 107.757 237.858C107.506 239.563 106.843 241.219 106.167 242.792C105.488 244.369 104.744 245.918 104.103 247.514C103.473 249.081 102.746 250.896 103.73 252.477C105.724 255.676 110.313 254.942 113.339 254.109C116.942 253.116 120.498 251.94 123.968 250.554C127.475 249.151 130.899 247.544 134.163 245.642C135.773 244.706 137.339 243.698 138.853 242.616C140.151 241.691 141.744 240.723 142.48 239.253C143.364 237.484 142.707 235.574 142.117 233.826C141.495 231.987 140.808 230.172 140.067 228.378C138.582 224.775 136.914 221.255 135.188 217.76C131.702 210.704 128.279 203.667 125.231 196.406C122.075 188.887 119.129 181.208 117.463 173.206C117.076 171.353 116.347 169.082 117.169 167.261C117.39 166.77 117.388 166.209 116.98 165.807C115.762 164.607 114.756 163.224 113.558 162.007C112.471 160.904 110.77 162.601 111.857 163.704C113.055 164.92 114.061 166.304 115.278 167.504C115.216 167.018 115.154 166.533 115.089 166.05C114.245 167.919 114.372 169.672 114.718 171.649C115.051 173.554 115.467 175.442 115.946 177.314C116.92 181.122 118.153 184.86 119.522 188.544C122.213 195.792 125.258 202.969 128.625 209.93C131.905 216.71 135.516 223.348 138.288 230.361C138.977 232.103 139.643 233.87 140.186 235.663C140.427 236.459 140.722 237.384 140.324 238.177C139.975 238.873 139.229 239.369 138.62 239.822C135.683 242.015 132.533 243.914 129.258 245.564C126.012 247.199 122.645 248.58 119.21 249.769C117.442 250.381 115.66 250.942 113.861 251.463C112.198 251.946 110.489 252.482 108.739 252.442C107.947 252.423 107.114 252.266 106.432 251.838C105.488 251.242 105.591 250.495 105.905 249.534C106.408 248 107.111 246.538 107.771 245.065C109.093 242.104 110.462 239.005 110.202 235.69C109.943 232.351 108.62 229.193 107.178 226.207C105.737 223.216 104.187 220.265 102.611 217.341C99.2975 211.197 95.6685 205.226 92.4718 199.02C89.2937 192.851 86.5787 186.416 85.1532 179.603C83.5795 172.081 83.5764 164.173 84.9424 156.618C85.2779 154.762 85.6969 152.923 86.1837 151.1C85.6913 151.38 85.1968 151.658 84.7044 151.939C87.206 152.3 89.6943 152.583 92.1579 153.174C94.6272 153.765 97.0611 154.547 99.3975 155.537C104.001 157.489 108.26 160.227 111.849 163.706C112.961 164.782 114.664 163.089 113.55 162.01H113.558Z" fill="#232323"/>
<path d="M104.842 248.923C106.01 245.23 108.806 240.648 108.958 236.818C109.101 233.226 107.338 229.204 105.496 225.628C106.865 224.883 108.33 224.306 109.743 223.837C110.995 223.421 112.371 223.006 113.605 223.478C116.49 224.578 116.057 229.196 118.572 230.984C120.344 232.244 122.813 231.575 124.768 230.626C128.836 228.654 132.414 225.679 136.692 224.22C136.96 224.128 137.236 224.044 137.515 224.031C138.767 227.424 139.983 230.825 141.141 234.237C141.509 235.324 141.868 236.513 141.496 237.597C141.179 238.517 140.392 239.186 139.624 239.788C131.908 245.819 122.718 249.732 113.318 252.502C110.995 253.187 108.398 253.786 106.232 252.707C105.445 252.316 104.726 251.647 104.572 250.784C104.461 250.161 104.653 249.527 104.845 248.92L104.842 248.923Z" fill="#232323"/>
<path d="M106.002 249.24C107.265 245.359 109.585 241.777 110.085 237.669C110.623 233.257 108.489 228.842 106.534 225.02C106.391 225.567 106.248 226.115 106.102 226.662C107.759 225.781 109.612 224.966 111.462 224.583C113.03 224.257 113.936 224.826 114.604 226.188C115.711 228.437 116.081 231.218 118.62 232.388C121.796 233.851 125.357 231.793 128.056 230.209C129.619 229.292 131.142 228.305 132.716 227.407C133.498 226.959 134.293 226.533 135.109 226.15C135.837 225.81 136.708 225.335 137.514 225.233L136.354 224.351C137.676 227.941 139.12 231.547 140.194 235.221C140.413 235.97 140.616 236.793 140.21 237.515C139.826 238.203 139.072 238.708 138.46 239.177C137.075 240.237 135.634 241.229 134.16 242.16C128.221 245.909 121.698 248.633 115.007 250.732C113.196 251.301 111.3 251.997 109.385 252.086C108.519 252.126 107.627 252.05 106.837 251.667C105.702 251.117 105.653 250.37 106.002 249.237C106.456 247.757 104.136 247.126 103.681 248.598C103.054 250.632 103.454 252.455 105.363 253.598C107.016 254.589 109.017 254.607 110.861 254.319C112.833 254.009 114.756 253.34 116.649 252.725C118.65 252.075 120.635 251.371 122.593 250.597C126.434 249.081 130.182 247.328 133.736 245.229C135.488 244.194 137.194 243.08 138.836 241.874C140.278 240.817 142.065 239.7 142.655 237.912C143.391 235.676 142.02 233.065 141.294 230.991C140.443 228.556 139.566 226.128 138.674 223.706C138.509 223.259 138.057 222.757 137.514 222.825C134.809 223.167 132.184 224.89 129.895 226.277C127.521 227.717 125.079 229.535 122.363 230.258C121.22 230.562 119.916 230.633 118.994 229.772C118.307 229.133 117.958 228.176 117.634 227.318C116.952 225.511 116.281 223.442 114.415 222.522C112.928 221.791 111.281 222.082 109.766 222.563C108.087 223.092 106.442 223.76 104.888 224.588C104.293 224.907 104.168 225.67 104.455 226.231C106.234 229.707 108.354 233.899 107.63 237.928C106.956 241.68 104.85 245.003 103.681 248.601C103.203 250.074 105.526 250.705 106.002 249.24Z" fill="#232323"/>
<path d="M149.847 112.604C148.638 110.387 146.685 108.669 144.662 107.148C139.797 103.488 133.672 99.8683 127.611 98.6976C122.548 97.7187 118.056 101.734 114.291 104.62C104.225 112.34 97.7212 122.767 90.3405 132.768C83.044 142.656 79.8935 156.335 79.8309 168.413C79.7663 181.473 83.3687 194.454 89.605 205.936C91.5223 209.464 93.7075 212.921 94.6841 216.813C94.8816 217.601 95.0544 218.448 95.633 219.017C96.4717 219.839 97.8182 219.766 98.9866 219.607C110.318 218.076 121.282 213.911 130.761 207.535C129.201 196.307 120.371 186.689 120.484 175.356C120.59 164.613 128.582 156.686 135.691 149.595C138.085 147.117 141.125 145.267 143.153 142.526C147.859 136.166 151.318 128.369 151.44 120.372C151.48 117.699 151.126 114.953 149.844 112.607L149.847 112.604Z" fill="white"/>
<path d="M150.888 111.997C149.184 108.982 146.39 106.862 143.608 104.896C140.63 102.792 137.474 100.923 134.112 99.4988C131.013 98.1829 127.527 96.9176 124.122 97.5405C121.007 98.1097 118.294 100.033 115.836 101.918C113.118 104.003 110.446 106.118 107.993 108.513C105.486 110.959 103.176 113.597 100.988 116.329C96.6692 121.723 92.6149 127.393 88.6637 133.059C81.0887 143.923 78.2383 158.048 78.6737 171.107C78.9169 178.452 80.2772 185.764 82.587 192.736C83.7498 196.25 85.1537 199.686 86.7679 203.02C88.3503 206.289 90.2867 209.367 91.8604 212.638C92.6554 214.291 93.1909 215.969 93.6859 217.73C94.124 219.3 95.0493 220.527 96.7338 220.819C98.4188 221.11 100.131 220.673 101.74 220.4C103.465 220.109 105.18 219.756 106.881 219.343C113.891 217.644 120.676 214.936 126.926 211.346C128.444 210.475 129.926 209.547 131.381 208.576C131.876 208.245 132.016 207.783 131.935 207.22C130.94 200.358 127.432 194.273 124.755 187.976C123.424 184.844 122.245 181.553 121.847 178.158C121.458 174.821 121.864 171.488 123 168.329C125.239 162.107 129.955 157.091 134.531 152.47C135.748 151.24 136.952 149.986 138.256 148.845C139.591 147.675 141.003 146.588 142.271 145.345C144.857 142.812 146.82 139.492 148.441 136.285C150.323 132.563 151.723 128.574 152.313 124.439C152.911 120.267 152.898 115.817 150.893 111.997C150.174 110.627 148.097 111.841 148.813 113.208C150.569 116.553 150.49 120.666 149.914 124.307C149.33 127.999 148.108 131.576 146.437 134.918C144.843 138.1 142.926 141.401 140.327 143.875C138.996 145.137 137.539 146.253 136.173 147.478C134.934 148.589 133.78 149.803 132.611 150.987C128.03 155.623 123.535 160.602 121.05 166.709C118.435 173.138 119.086 179.887 121.488 186.266C124.195 193.459 128.49 200.137 129.609 207.853L130.164 206.496C124.527 210.267 118.408 213.28 111.96 215.394C108.747 216.449 105.461 217.285 102.132 217.897C100.629 218.173 98.8948 218.661 97.3616 218.488C95.7956 218.31 95.7628 215.996 95.3519 214.801C94.2378 211.565 92.461 208.628 90.8247 205.639C89.148 202.575 87.6497 199.411 86.376 196.158C83.8447 189.683 82.1058 182.862 81.4077 175.941C80.1366 163.356 82.0166 149.833 88.0826 138.607C89.5886 135.821 91.4521 133.31 93.3022 130.75C95.2278 128.086 97.1236 125.399 99.0759 122.754C102.973 117.473 107.141 112.351 112.079 107.997C114.405 105.945 116.893 103.957 119.476 102.234C121.98 100.564 124.744 99.2993 127.806 99.9575C131.202 100.688 134.407 102.101 137.423 103.804C140.341 105.449 143.24 107.336 145.752 109.557C146.961 110.624 148.021 111.8 148.817 113.208C149.576 114.554 151.659 113.346 150.896 111.997H150.888Z" fill="#232323"/>
<path d="M131.496 118.94C129.481 128.606 133.408 138.372 135.496 148.026C137.93 159.292 137.863 170.927 137.754 182.449C137.554 203.937 135.929 225.66 136.278 247.07C136.297 248.219 136.359 249.456 137.075 250.355C137.684 251.115 138.649 251.482 139.574 251.79C148.872 254.888 158.846 255.495 168.634 254.956C171.051 254.824 173.699 254.517 175.378 252.774C175.987 252.14 176.442 251.272 176.296 250.406C176.19 249.78 175.795 249.249 175.411 248.742C173.066 245.657 168.891 242.277 167.46 238.719C165.572 234.029 166.944 227.275 167.614 222.455C170.584 201.148 172.044 179.631 171.979 158.118C171.92 138.664 170.14 117.885 158.176 102.52" fill="white"/>
<path d="M130.721 118.726C128.438 130.016 133.412 140.891 135.237 151.863C137.149 163.366 136.865 175.155 136.644 186.775C136.416 198.617 135.851 210.45 135.478 222.287C135.292 228.194 135.154 234.101 135.137 240.008C135.129 242.753 134.956 245.602 135.245 248.336C135.364 249.445 135.692 250.532 136.492 251.346C137.333 252.204 138.523 252.6 139.638 252.967C144.914 254.696 150.437 255.624 155.964 256.02C158.818 256.226 161.679 256.285 164.54 256.231C167.007 256.185 169.568 256.198 171.993 255.697C174.168 255.247 176.688 253.987 177.33 251.673C177.959 249.388 175.904 247.457 174.509 245.917C172.878 244.118 171.088 242.413 169.711 240.404C168.448 238.562 167.856 236.555 167.712 234.336C167.393 229.457 168.521 224.529 169.168 219.714C169.957 213.827 170.633 207.925 171.193 202.011C172.324 190.051 172.983 178.049 173.17 166.042C173.47 146.493 173.257 125.221 163.139 107.8C161.949 105.753 160.611 103.824 159.164 101.953C158.282 100.812 156.305 101.941 157.198 103.099C169.005 118.364 170.612 138.566 170.741 157.152C170.901 179.743 169.397 202.404 166.112 224.758C165.457 229.2 164.659 234.131 166.155 238.495C167.65 242.859 171.417 245.623 174.176 249C175.001 250.011 175.596 250.864 174.584 251.98C173.84 252.8 172.751 253.21 171.696 253.461C169.281 254.036 166.641 253.96 164.172 254.003C158.69 254.097 153.179 253.779 147.783 252.765C145.168 252.274 142.58 251.624 140.051 250.791C139.01 250.448 137.966 250.1 137.59 248.973C137.193 247.786 137.368 246.346 137.355 245.116C137.287 239.35 137.355 233.58 137.496 227.814C137.766 216.365 138.307 204.923 138.61 193.477C138.907 182.278 139.232 170.955 138.236 159.782C137.742 154.223 136.768 148.772 135.37 143.372C133.977 137.994 132.336 132.6 131.889 127.038C131.678 124.395 131.762 121.76 132.281 119.157C132.482 118.151 130.935 117.717 130.732 118.731L130.721 118.726Z" fill="#232323"/>
<path d="M130.721 118.726C128.438 130.016 133.412 140.891 135.237 151.863C137.149 163.366 136.865 175.155 136.644 186.775C136.416 198.617 135.851 210.45 135.478 222.287C135.292 228.194 135.154 234.101 135.137 240.008C135.129 242.753 134.956 245.602 135.245 248.336C135.364 249.445 135.692 250.532 136.492 251.346C137.333 252.204 138.523 252.6 139.638 252.967C144.914 254.696 150.437 255.624 155.964 256.02C158.818 256.226 161.679 256.285 164.54 256.231C167.007 256.185 169.568 256.198 171.993 255.697C174.168 255.247 176.688 253.987 177.33 251.673C177.959 249.388 175.904 247.457 174.509 245.917C172.878 244.118 171.088 242.413 169.711 240.404C168.448 238.562 167.856 236.555 167.712 234.336C167.393 229.457 168.521 224.529 169.168 219.714C169.957 213.827 170.633 207.925 171.193 202.011C172.324 190.051 172.983 178.049 173.17 166.042C173.47 146.493 173.257 125.221 163.139 107.8C161.949 105.753 160.611 103.824 159.164 101.953C158.282 100.812 156.305 101.941 157.198 103.099C169.005 118.364 170.612 138.566 170.741 157.152C170.901 179.743 169.397 202.404 166.112 224.758C165.457 229.2 164.659 234.131 166.155 238.495C167.65 242.859 171.417 245.623 174.176 249C175.001 250.011 175.596 250.864 174.584 251.98C173.84 252.8 172.751 253.21 171.696 253.461C169.281 254.036 166.641 253.96 164.172 254.003C158.69 254.097 153.179 253.779 147.783 252.765C145.168 252.274 142.58 251.624 140.051 250.791C139.01 250.448 137.966 250.1 137.59 248.973C137.193 247.786 137.368 246.346 137.355 245.116C137.287 239.35 137.355 233.58 137.496 227.814C137.766 216.365 138.307 204.923 138.61 193.477C138.907 182.278 139.232 170.955 138.236 159.782C137.742 154.223 136.768 148.772 135.37 143.372C133.977 137.994 132.336 132.6 131.889 127.038C131.678 124.395 131.762 121.76 132.281 119.157C132.482 118.151 130.935 117.717 130.732 118.731L130.721 118.726Z" fill="#232323"/>
<path d="M131.928 110.781C128.726 122.179 133.11 133.874 135.495 144.913C137.618 154.739 137.75 164.875 137.167 174.873C136.758 181.85 136.709 188.844 136.352 195.824C136.185 199.093 135.863 202.198 135.187 205.308C134.638 207.832 134.494 210.346 136.787 212.161C137.85 213.005 139.176 213.439 140.479 213.825C148.365 216.161 156.603 217.302 164.827 217.213C171.829 217.137 176.208 215.074 174.82 207.263C173.923 202.203 173.709 197.019 174.187 191.902C174.647 186.989 175.743 182.155 176.492 177.276C178.652 163.2 177.114 149.938 174.761 136.053C172.608 123.35 169.038 110.9 160.5 100.88" fill="white"/>
<path d="M130.769 110.463C128.335 119.355 130.252 128.472 132.41 137.208C133.503 141.631 134.636 146.041 135.293 150.553C135.974 155.219 136.237 159.945 136.261 164.654C136.286 169.387 135.966 174.099 135.766 178.825C135.561 183.698 135.466 188.577 135.26 193.454C135.163 195.727 135.052 198.001 134.798 200.261C134.565 202.343 134.054 204.369 133.768 206.44C133.53 208.177 133.619 210.014 134.603 211.527C135.734 213.267 137.583 214.17 139.506 214.785C143.863 216.174 148.399 217.086 152.929 217.685C157.275 218.262 161.737 218.602 166.124 218.375C168.779 218.238 171.644 217.793 173.75 216.045C175.771 214.373 176.401 211.73 176.258 209.208C176.139 207.085 175.627 204.992 175.419 202.875C175.187 200.509 175.1 198.128 175.162 195.751C175.284 190.986 176.141 186.314 176.974 181.632C178.621 172.37 179.091 163.135 178.321 153.757C177.591 144.862 176.276 135.87 174.205 127.185C172.333 119.342 169.521 111.615 165.012 104.875C163.887 103.191 162.66 101.581 161.35 100.036C160.35 98.8545 158.654 100.559 159.649 101.732C170.216 114.22 173.172 131.023 175.173 146.756C176.295 155.586 176.749 164.521 175.795 173.39C175.297 178.012 174.302 182.554 173.591 187.145C172.904 191.596 172.568 196.07 172.828 200.571C172.958 202.796 173.22 205.011 173.591 207.206C173.829 208.622 174.031 210.114 173.723 211.538C173.25 213.714 171.663 214.917 169.574 215.478C166.302 216.358 162.662 216.077 159.322 215.891C154.879 215.643 150.462 215.028 146.122 214.055C144.006 213.579 141.876 213.056 139.817 212.366C138.081 211.783 136.429 210.777 136.104 208.841C135.807 207.061 136.464 205.21 136.756 203.474C137.107 201.375 137.335 199.258 137.475 197.135C137.778 192.555 137.854 187.96 138.003 183.372C138.152 178.803 138.463 174.242 138.598 169.673C138.863 160.716 138.311 151.759 136.297 143.006C134.357 134.583 131.558 126.109 132.056 117.357C132.175 115.234 132.524 113.152 133.086 111.102C133.494 109.61 131.174 108.974 130.765 110.463H130.769Z" fill="#232323"/>
<path d="M118.876 55.9428C118.94 57.9143 117.618 59.6486 116.074 60.9246C114.53 62.1976 112.71 63.1739 111.273 64.5573C108.693 67.0444 107.587 70.8147 108.415 74.2996C108.993 76.7325 110.416 78.9275 111.568 81.1932C114.297 86.5607 112.834 91.1835 111.96 96.6369C111.406 100.086 109.567 103.199 112.674 106.303C114.424 108.052 116.874 108.995 119.281 109.723C126.191 111.814 133.507 112.529 140.619 111.876C146.953 111.296 158.869 111.104 161.565 104.286C161.99 103.21 162.076 102.034 162.117 100.874C162.639 85.4764 154.469 70.7421 152.24 55.6108" fill="white"/>
<path d="M117.98 55.9433C117.849 58.8646 114.91 60.4506 112.79 61.9286C110.596 63.4578 108.801 65.235 107.783 67.7462C106.818 70.133 106.696 72.8058 107.429 75.2739C108.273 78.1114 110.142 80.4742 111.129 83.241C112.086 85.9219 112.013 88.7328 111.578 91.5104C111.158 94.1836 110.623 96.8241 110.02 99.4616C109.458 101.924 109.449 104.338 111.064 106.423C112.773 108.632 115.394 109.832 117.985 110.69C128.14 114.051 139.036 113.854 149.51 112.3C153.348 111.731 157.499 110.727 160.45 108.057C164.339 104.541 163.639 98.5717 163.087 93.8599C161.529 80.6061 155.433 68.4315 153.397 55.2856C153.162 53.759 150.855 54.4142 151.076 55.9244C152.71 67.1422 157.329 77.5882 159.633 88.6463C160.209 91.4024 160.626 94.1913 160.78 97.0047C160.913 99.4104 161.237 102.415 159.993 104.581C158.27 107.583 154.433 108.691 151.263 109.347C147.755 110.072 144.177 110.256 140.618 110.563C134.563 111.086 128.47 110.69 122.561 109.252C120.013 108.632 117.352 107.947 115.107 106.555C114.044 105.897 112.976 105.007 112.481 103.826C112.065 102.83 112.151 101.725 112.354 100.692C113.309 95.791 114.901 90.6368 114.218 85.6013C113.777 82.3537 112.078 79.7674 110.664 76.8895C109.414 74.3488 108.92 71.6729 109.834 68.9327C110.82 65.9689 113.192 64.4664 115.562 62.6809C117.747 61.0331 119.88 58.8836 119.767 55.9433C119.724 54.7972 118.031 54.7972 117.98 55.9433Z" fill="#232323"/>
<path d="M130.81 136.277C129.728 134.602 128.614 132.884 127.962 130.988C127.265 128.965 127.04 126.859 126.929 124.733C126.694 120.248 126.797 115.722 126.402 111.248C126.288 109.975 124.403 109.929 124.379 111.248C124.333 113.692 124.506 116.146 124.59 118.586C124.674 120.936 124.703 123.293 124.876 125.635C125.031 127.741 125.339 129.89 126.153 131.854C126.978 133.847 128.292 135.511 129.628 137.186C130.161 137.852 131.267 136.987 130.81 136.277Z" fill="#232323"/>
<path d="M175.412 248.745C173.068 245.659 168.892 242.28 167.461 238.722C166.117 235.386 166.423 231.008 166.953 227.022C165.414 226.779 163.838 226.726 162.35 226.758C161.03 226.785 159.594 226.855 158.593 227.713C156.246 229.717 158.206 233.922 156.44 236.449C155.197 238.229 152.646 238.423 150.483 238.186C145.988 237.692 141.615 236.088 137.093 236.147C136.812 236.149 136.519 236.163 136.255 236.244C136.217 239.861 136.217 243.472 136.276 247.073C136.295 248.222 136.357 249.46 137.074 250.358C137.683 251.119 138.648 251.485 139.573 251.793C148.871 254.892 158.845 255.498 168.632 254.959C171.05 254.827 173.698 254.52 175.377 252.777C175.986 252.143 176.44 251.275 176.294 250.409C176.189 249.783 175.794 249.252 175.41 248.745H175.412Z" fill="#232323"/>
<path d="M176.451 248.138C174.109 245.103 170.935 242.625 169.05 239.251C167.029 235.634 167.643 230.943 168.157 227.019C168.217 226.555 167.743 225.932 167.273 225.862C165.344 225.576 163.376 225.455 161.426 225.59C159.846 225.7 158.277 226.1 157.253 227.389C155.422 229.689 156.728 232.61 155.773 235.135C154.627 238.166 149.759 236.942 147.452 236.489C145.478 236.101 143.517 235.629 141.526 235.318C139.736 235.038 137.729 234.69 135.936 235.083C135.419 235.197 135.057 235.733 135.052 236.241C135.03 238.563 135.019 240.885 135.03 243.208C135.041 245.179 134.836 247.342 135.282 249.279C135.731 251.221 137.191 252.218 138.973 252.852C140.928 253.546 142.954 254.08 144.977 254.535C149.193 255.482 153.507 256.008 157.82 256.221C161.996 256.426 166.313 256.499 170.472 256.005C172.479 255.768 174.494 255.239 176.013 253.834C177.807 252.178 177.869 250.029 176.449 248.138C175.532 246.916 173.441 248.111 174.369 249.349C174.842 249.977 175.329 250.573 174.932 251.369C174.572 252.089 173.793 252.602 173.082 252.928C171.751 253.537 170.226 253.661 168.782 253.748C165.133 253.963 161.469 254.001 157.818 253.821C154.086 253.637 150.364 253.211 146.702 252.456C144.945 252.092 143.203 251.655 141.483 251.14C140.096 250.722 138.067 250.406 137.637 248.793C137.408 247.933 137.47 246.989 137.459 246.107C137.445 245.012 137.434 243.917 137.429 242.822C137.421 240.629 137.429 238.433 137.451 236.241C137.156 236.626 136.861 237.012 136.566 237.398C137.434 237.206 138.456 237.357 139.336 237.441C140.352 237.535 141.359 237.702 142.359 237.894C144.215 238.247 146.054 238.687 147.914 239.016C150.754 239.515 154.281 240.044 156.658 237.975C158.905 236.019 158.237 233.074 158.559 230.469C158.729 229.085 159.405 228.281 160.812 228.052C162.67 227.75 164.771 227.904 166.621 228.179C166.326 227.794 166.032 227.407 165.737 227.022C165.182 231.262 164.742 235.993 166.694 239.96C168.495 243.623 171.905 246.166 174.361 249.349C174.761 249.866 175.392 250.128 176.008 249.78C176.519 249.492 176.836 248.65 176.441 248.138H176.451Z" fill="#232323"/>
<path d="M126.504 15.7251C125.27 15.1237 123.867 14.8729 122.501 15.0077C121.333 15.1237 120.159 15.5445 119.329 16.3752C118.498 17.2059 118.079 18.487 118.46 19.5956C118.658 20.1673 119.045 20.6555 119.48 21.0763C120.851 22.4006 122.766 23.1234 124.675 23.118C126.582 23.1099 128.467 22.3871 129.938 21.1761" fill="#232323"/>
<path d="M127.039 14.8119C124.792 13.7466 122.047 13.4552 119.778 14.6501C117.655 15.7667 116.427 18.391 117.598 20.6188C118.707 22.7307 121.268 24.0091 123.551 24.3085C126.18 24.6564 128.832 23.7907 130.785 22.024C131.783 21.1205 130.461 19.3566 129.327 20.1387C126.628 21.9998 122.942 22.6767 120.343 20.2143C119.086 19.0248 119.394 17.42 120.927 16.6055C122.458 15.791 124.427 15.9555 125.968 16.6405C127.199 17.1881 128.286 15.3999 127.042 14.8119H127.039Z" fill="#232323"/>
<path d="M142.262 28.6916C141.7 31.5667 140.945 34.3879 139.948 37.1444C139.115 39.4451 138.373 41.5758 138.487 44.0598C138.525 44.8932 138.622 45.724 138.744 46.5493C138.877 47.4501 139.336 48.5856 138.814 49.4082C138.211 50.3603 136.869 51.1964 135.991 51.8813C134.949 52.6904 133.859 53.4325 132.726 54.1066C131.861 54.619 130.958 55.0967 129.976 55.3284C128.994 55.5606 127.921 55.5227 127.031 55.0507C125.473 54.2201 124.856 52.2593 124.937 50.5006C125.016 48.742 125.63 47.0509 125.889 45.3086C126.006 44.521 126.049 43.6957 125.789 42.9432C125.238 41.333 123.169 40.8583 121.938 39.882C120.58 38.8058 119.504 37.3574 118.904 35.7311C117.573 32.1223 118.376 27.9606 120.386 24.6782C121.208 23.3351 122.212 22.1241 123.339 21.0263C127.123 17.3393 132.821 16.3252 137.578 18.6367C140.767 20.1848 143.352 23.1247 142.262 28.6942V28.6916Z" fill="white"/>
<path d="M141.338 28.4374C140.502 32.0705 139.188 35.5012 138.06 39.0426C137.525 40.7256 137.2 42.4706 137.287 44.24C137.328 45.0625 137.425 45.8825 137.544 46.697C137.633 47.3039 138.02 48.2047 137.747 48.7873C137.492 49.3294 136.727 49.7853 136.262 50.1251C135.572 50.6294 134.891 51.1473 134.187 51.6355C132.854 52.5581 131.377 53.6178 129.787 54.0306C128.197 54.4433 126.912 53.7933 126.453 52.2451C125.988 50.6726 126.436 49.0597 126.793 47.5142C127.178 45.8582 127.635 44.0053 126.983 42.3547C126.464 41.0438 125.301 40.2886 124.111 39.6387C121.414 38.1633 119.751 35.6388 119.597 32.5344C119.289 26.3229 124.246 19.8821 130.444 18.8626C133.281 18.396 136.481 19.0838 138.739 20.9098C141.03 22.7627 141.509 25.565 141.008 28.3484C140.716 29.9748 143.201 30.6788 143.509 29.0362C144.104 25.8751 143.818 22.6656 141.703 20.1141C139.829 17.8566 136.835 16.5782 133.979 16.2005C126.504 15.2161 119.756 20.7048 117.585 27.6364C116.479 31.1642 116.649 35.3017 118.788 38.4222C119.802 39.903 121.074 41.0249 122.642 41.8853C123.194 42.1874 123.84 42.4706 124.259 42.9588C124.841 43.6385 124.651 44.7092 124.506 45.5157C123.883 48.9302 122.442 53.4046 125.904 55.8835C129.328 58.3322 133.609 55.2928 136.343 53.1969C137.698 52.1587 139.799 51.0097 140.202 49.2108C140.419 48.2533 140.11 47.3039 139.94 46.368C139.74 45.2594 139.637 44.0943 139.691 42.9669C139.807 40.6042 140.759 38.4088 141.476 36.1863C142.238 33.8182 142.769 31.3989 143.18 28.9499C143.38 27.7605 141.611 27.221 141.33 28.4401L141.338 28.4374Z" fill="#232323"/>
<path d="M128.701 51.5493C132.795 48.4046 136.522 46.166 141.793 46.2685C147.23 46.3737 152.646 46.4789 158.069 46.9428C168.849 47.8625 179.585 49.8503 189.759 53.575C199.144 57.0113 208.034 61.9953 215.573 68.5712C219.314 71.8321 222.719 75.4863 225.632 79.5051C226.938 81.3069 228.49 83.2325 229.101 85.3447C229.877 88.0225 229.658 91.4563 229.62 94.218C229.488 104.022 224.504 111.919 214.816 114.935C199.198 119.795 183.896 110.611 172.332 100.761C163.175 92.964 155.302 83.7884 146.578 75.5134" fill="white"/>
<path d="M129.185 52.377C131.946 50.3811 134.878 48.4823 138.256 47.7541C140.084 47.3604 141.926 47.4547 143.781 47.506C146.031 47.568 148.281 47.6247 150.531 47.7164C158.847 48.0481 167.145 48.9651 175.285 50.7236C190.633 54.0412 205.442 60.5896 216.899 71.4994C219.69 74.1563 222.248 77.0423 224.517 80.1518C225.618 81.657 226.854 83.1672 227.576 84.9046C228.274 86.5846 228.352 88.4672 228.374 90.2608C228.438 96.2215 227.957 102.236 224.176 107.134C220.301 112.151 213.964 114.527 207.774 114.878C200.437 115.296 193.31 112.893 186.963 109.384C173.135 101.742 162.928 89.511 151.859 78.569C150.463 77.1881 149.052 75.8231 147.619 74.4801C146.245 73.1907 144.181 75.238 145.544 76.5488C157.414 87.9655 168.054 100.988 182.168 109.812C188.694 113.893 196.034 117.038 203.798 117.553C210.746 118.014 218.224 116.261 223.554 111.619C228.187 107.585 230.513 101.651 230.881 95.6201C230.989 93.8429 231.005 92.0437 230.981 90.2634C230.956 88.3567 230.848 86.3422 230.202 84.5297C229.523 82.6282 228.333 81.0126 227.148 79.3995C225.964 77.7865 224.769 76.2143 223.473 74.7041C212.82 62.2701 197.841 54.1706 182.184 49.8444C173.803 47.5275 165.149 46.2087 156.484 45.5883C151.927 45.262 147.356 45.1568 142.788 45.1001C139.018 45.0543 135.635 45.796 132.371 47.7191C130.829 48.628 129.412 49.7527 128.025 50.8747C127.186 51.5515 128.304 53.0163 129.188 52.377H129.185Z" fill="#232323"/>
<path d="M142.262 28.6916C141.7 31.5667 140.945 34.3879 139.948 37.1444C139.115 39.4451 138.373 41.5758 138.487 44.0598C138.525 44.8932 138.622 45.724 138.744 46.5493C138.877 47.4501 139.336 48.5856 138.814 49.4082C138.211 50.3603 136.869 51.1964 135.991 51.8813C134.949 52.6904 133.859 53.4325 132.726 54.1066C131.861 54.619 130.958 55.0967 129.976 55.3284C128.994 55.5606 127.921 55.5227 127.031 55.0507C125.473 54.2201 124.856 52.2593 124.937 50.5006C125.016 48.742 125.63 47.0509 125.889 45.3086C126.006 44.521 126.049 43.6957 125.789 42.9432C125.238 41.333 123.169 40.8583 121.938 39.882C120.58 38.8058 119.504 37.3574 118.904 35.7311C117.573 32.1223 118.376 27.9606 120.386 24.6782C121.208 23.3351 122.212 22.1241 123.339 21.0263C127.123 17.3393 132.821 16.3252 137.578 18.6367C140.767 20.1848 143.352 23.1247 142.262 28.6942V28.6916Z" fill="white"/>
<path d="M141.338 28.4374C140.502 32.0705 139.188 35.5012 138.06 39.0426C137.525 40.7256 137.2 42.4706 137.287 44.24C137.328 45.0625 137.425 45.8825 137.544 46.697C137.633 47.3039 138.02 48.2047 137.747 48.7873C137.492 49.3294 136.727 49.7853 136.262 50.1251C135.572 50.6294 134.891 51.1473 134.187 51.6355C132.854 52.5581 131.377 53.6178 129.787 54.0306C128.197 54.4433 126.912 53.7933 126.453 52.2451C125.988 50.6726 126.436 49.0597 126.793 47.5142C127.178 45.8582 127.635 44.0053 126.983 42.3547C126.464 41.0438 125.301 40.2886 124.111 39.6387C121.414 38.1633 119.751 35.6388 119.597 32.5344C119.289 26.3229 124.246 19.8821 130.444 18.8626C133.281 18.396 136.481 19.0838 138.739 20.9098C141.03 22.7627 141.509 25.565 141.008 28.3484C140.716 29.9748 143.201 30.6788 143.509 29.0362C144.104 25.8751 143.818 22.6656 141.703 20.1141C139.829 17.8566 136.835 16.5782 133.979 16.2005C126.504 15.2161 119.756 20.7048 117.585 27.6364C116.479 31.1642 116.649 35.3017 118.788 38.4222C119.802 39.903 121.074 41.0249 122.642 41.8853C123.194 42.1874 123.84 42.4706 124.259 42.9588C124.841 43.6385 124.651 44.7092 124.506 45.5157C123.883 48.9302 122.442 53.4046 125.904 55.8835C129.328 58.3322 133.609 55.2928 136.343 53.1969C137.698 52.1587 139.799 51.0097 140.202 49.2108C140.419 48.2533 140.11 47.3039 139.94 46.368C139.74 45.2594 139.637 44.0943 139.691 42.9669C139.807 40.6042 140.759 38.4088 141.476 36.1863C142.238 33.8182 142.769 31.3989 143.18 28.9499C143.38 27.7605 141.611 27.221 141.33 28.4401L141.338 28.4374Z" fill="#232323"/>
<path d="M121.96 26.0884C123.096 26.3204 124.218 27.0001 123.38 28.2893C122.952 28.9447 122.236 29.3169 121.711 29.8725C120.599 31.0512 121.819 32.0006 122.907 32.5292C123.64 32.8879 124.267 31.8522 123.553 31.4288C123.198 31.2184 122.603 31.0026 122.833 30.5738C122.985 30.2879 123.442 30.0209 123.672 29.7808C124.191 29.2387 124.637 28.6022 124.743 27.8416C124.967 26.2017 123.626 25.4384 122.206 25.2146C121.641 25.1256 121.384 25.9697 121.965 26.0884H121.96Z" fill="#232323"/>
<path d="M127.634 28.6402C127.22 28.6456 126.852 29.0394 126.968 29.4602C127.077 29.8539 127.517 30.0184 127.869 29.8297C128.458 29.5087 128.553 28.6996 128.007 28.2869C127.701 28.0549 127.293 28.0495 126.966 28.2437C126.606 28.4568 126.487 28.8641 126.508 29.2579C126.533 29.6921 126.849 30.094 127.282 30.1965C127.715 30.299 128.134 30.0184 128.361 29.6678C128.615 29.2794 128.196 28.7751 127.766 28.8965C127.679 28.9207 127.596 28.945 127.509 28.9747C127.474 28.9854 127.441 28.9989 127.409 29.0151C127.331 29.0502 127.315 29.0556 127.358 29.0367C127.325 28.9719 127.704 29.15 127.606 29.0502C127.463 28.9072 127.606 29.1257 127.655 29.1635C127.674 29.1769 127.655 29.2066 127.653 29.1365C127.653 29.123 127.655 29.0043 127.653 29.0017C127.674 29.0151 127.606 29.1392 127.585 29.1554C127.49 29.2228 127.347 29.1554 127.355 29.0367C127.355 28.9962 127.379 28.9639 127.393 28.9261C127.385 28.945 127.371 28.9719 127.358 28.9882C127.441 28.8884 127.355 28.9962 127.347 28.9962C127.325 29.0151 127.328 29.0151 127.353 28.9962C127.504 28.8668 127.685 28.9234 127.899 29.1635V29.4197C127.874 29.4547 127.85 29.4898 127.828 29.5249C127.874 29.4925 127.917 29.4574 127.961 29.4224C128.274 29.1635 128.01 28.6429 127.639 28.6456L127.634 28.6402Z" fill="#232323"/>
<path d="M120.719 27.065C120.306 27.0704 119.938 27.4642 120.054 27.8849C120.162 28.2787 120.603 28.4433 120.955 28.2544C121.544 27.9335 121.639 27.1243 121.093 26.7117C120.787 26.4797 120.379 26.4744 120.051 26.6685C119.692 26.8816 119.573 27.2889 119.594 27.6827C119.618 28.1169 119.935 28.5188 120.368 28.6212C120.803 28.7237 121.22 28.4433 121.447 28.0926C121.701 27.7042 121.282 27.1999 120.852 27.3212C120.765 27.3455 120.682 27.3698 120.595 27.3994C120.56 27.4102 120.527 27.4237 120.495 27.4399C120.416 27.475 120.4 27.4803 120.444 27.4615C120.411 27.3968 120.789 27.5747 120.692 27.475C120.549 27.332 120.692 27.5505 120.741 27.5883C120.76 27.6018 120.741 27.6314 120.738 27.5613C120.738 27.5478 120.741 27.4291 120.738 27.4264C120.76 27.4399 120.692 27.564 120.67 27.5802C120.576 27.6476 120.433 27.5802 120.441 27.4615C120.441 27.421 120.465 27.3886 120.479 27.3509C120.47 27.3698 120.457 27.3968 120.444 27.4129C120.527 27.3132 120.441 27.421 120.433 27.421C120.411 27.4399 120.414 27.4399 120.438 27.421C120.589 27.2916 120.771 27.3482 120.984 27.5883V27.8445C120.96 27.8796 120.936 27.9146 120.914 27.9497C120.96 27.9173 121.003 27.8822 121.046 27.8472C121.36 27.5883 121.095 27.0677 120.725 27.0704L120.719 27.065Z" fill="#232323"/>
<path d="M131.042 40.5907C129.977 40.8092 128.698 40.7822 127.618 40.6716C126.475 40.5529 125.466 40.0837 124.371 39.787C123.002 39.4175 122.35 41.2272 123.443 41.9797C125.769 43.5791 129.055 43.3283 131.532 42.3735C132.632 41.9501 132.224 40.348 131.04 40.5934L131.042 40.5907Z" fill="#232323"/>
<path d="M129.799 27.2512C129.037 26.3126 127.825 26.1588 126.681 26.291C125.951 26.3746 125.908 27.4481 126.681 27.4589C127.49 27.4696 128.488 27.3267 129.159 27.8931C129.61 28.2734 130.167 27.7043 129.799 27.2539V27.2512Z" fill="#232323"/>
<path d="M125.304 34.9725C125.304 34.9725 125.231 34.8484 125.261 34.9131C125.234 34.8241 125.296 34.9913 125.261 34.9131C125.28 34.9806 125.261 34.8565 125.261 34.843C125.261 34.8942 125.242 34.9158 125.267 34.8538C125.291 34.7917 125.283 34.8133 125.261 34.8618C125.318 34.7324 125.223 34.905 125.269 34.8511C125.323 34.7891 125.191 34.9104 125.258 34.8646C125.31 34.8295 125.155 34.8834 125.261 34.8673C125.15 34.8834 125.234 34.8726 125.234 34.8726H125.28C125.196 34.8592 125.18 34.8592 125.226 34.87C125.307 34.8969 125.131 34.8106 125.202 34.8565C125.264 34.8969 125.123 34.7675 125.199 34.8565C125.169 34.8214 125.142 34.7675 125.174 34.8376L125.145 34.7648C125.158 34.8241 125.161 34.8241 125.153 34.7648C125.148 34.7135 125.148 34.7055 125.15 34.7432C125.15 34.7594 125.15 34.7756 125.15 34.7891C125.129 34.8726 125.207 34.6272 125.15 34.7675C125.166 34.727 125.218 34.6596 125.164 34.7297C125.185 34.7027 125.253 34.6353 125.188 34.692C125.35 34.5517 125.164 34.6758 125.274 34.6326C125.38 34.5922 125.283 34.6218 125.258 34.6299C125.172 34.6515 125.434 34.6218 125.304 34.6164C125.342 34.6164 125.458 34.665 125.374 34.6245C125.239 34.5598 125.488 34.7 125.415 34.6515C125.342 34.603 125.531 34.7594 125.467 34.6947C125.426 34.6542 125.445 34.6785 125.518 34.7648L125.559 34.8673C125.526 34.7675 125.567 34.9185 125.567 34.9428C125.567 35.0021 125.518 35.1073 125.567 34.9967C125.605 34.9104 125.502 35.1451 125.545 35.0615C125.583 34.9886 125.421 35.199 125.521 35.1019C125.502 35.1208 125.383 35.199 125.469 35.1505C125.445 35.164 125.307 35.199 125.404 35.1855C125.488 35.172 125.58 35.1316 125.65 35.0858C126.026 34.8484 126.14 34.2928 125.794 33.9691C125.407 33.605 124.842 33.6913 124.471 34.0231C124.217 34.2523 124.071 34.6003 124.068 34.9428C124.06 35.7412 124.898 36.259 125.629 36.0405C126.335 35.8301 126.702 35.048 126.416 34.371C126.132 33.7021 125.361 33.4351 124.709 33.7534C123.993 34.104 123.892 35.0884 124.436 35.6332C124.628 35.8248 124.947 35.8436 125.158 35.6764C125.356 35.52 125.461 35.1936 125.299 34.9698L125.304 34.9725Z" fill="#232323"/>
<path d="M138.519 35.9808C138.971 34.8723 139.528 33.8366 139.812 32.6418C140.039 31.6843 139.92 30.5461 139.165 29.9095C138.481 29.3324 137.44 29.3351 136.634 29.7261C135.812 30.1253 134.346 31.3498 134.13 32.2938C133.995 31.161 134.2 29.9905 134.706 28.9683C135.222 27.9245 136.542 26.7189 136.08 25.4593C135.574 24.0838 133.61 23.957 132.42 23.9705C129.397 24.0055 126.63 24.0163 123.739 23.2153C120.851 22.4143 118.23 22.363 116.118 19.8978C115.585 19.2775 115.139 18.5196 115.161 17.7023C115.22 15.5554 117.603 15.5959 118.717 14.5278C120.096 13.2035 120.873 11.5475 122.52 10.3742C125.554 8.21384 129.457 7.22667 133.151 7.80387C138.911 8.70205 143.86 13.1388 145.786 18.6275C146.265 19.9949 146.554 21.4891 147.271 22.7648C148.069 24.1836 149.199 24.1674 150.611 24.812C153.65 26.201 156.474 28.2158 158.4 30.9803C160.75 34.3571 161.561 38.9558 159.792 42.667C158.438 45.5152 155.717 47.5758 152.723 48.5926C150.611 49.31 148.369 49.5446 146.149 49.4853C144.141 49.4314 141.824 49.9088 140.047 48.7005C138.636 47.743 138.078 45.944 137.835 44.2583C137.529 42.1464 137.57 39.9887 137.941 37.8904C138.062 37.208 138.275 36.585 138.519 35.9835V35.9808Z" fill="#232323"/>
<path d="M139.384 36.4855C140.445 34.166 142.565 30.2174 139.26 28.5937C136.856 27.4124 133.665 29.6564 132.918 31.9651C133.74 32.0757 134.565 32.1863 135.387 32.2996C135.303 31.1695 135.495 30.1446 136.098 29.1763C136.672 28.2593 137.388 27.3908 137.472 26.2661C137.629 24.1785 135.814 23.0107 133.962 22.7544C131.774 22.4496 129.521 22.7302 127.317 22.5332C125.113 22.3363 122.811 21.7187 120.656 21.1254C119.766 20.8799 118.906 20.567 118.152 20.0276C117.497 19.561 116.402 18.6197 116.459 17.7108C116.494 17.1309 116.997 16.9259 117.467 16.6967C118.173 16.3568 118.887 16.0871 119.493 15.5719C121.17 14.1371 122.043 12.117 123.972 10.914C125.832 9.75155 127.999 9.03953 130.192 8.90738C134.351 8.65652 138.365 10.4852 141.21 13.4601C142.573 14.8842 143.695 16.5726 144.406 18.4147C145.188 20.4376 145.345 23.0188 147.073 24.54C147.76 25.1441 148.615 25.4111 149.456 25.7213C150.435 26.0827 151.368 26.5871 152.26 27.1211C154.196 28.2782 156 29.7669 157.293 31.628C159.73 35.1316 160.417 40.0134 157.75 43.5925C156.352 45.4696 154.237 46.7697 152.017 47.444C149.385 48.245 146.678 48.156 143.96 48.2072C142.792 48.2288 141.475 48.2315 140.536 47.4251C139.733 46.7346 139.389 45.6288 139.187 44.6282C138.651 41.9849 138.806 38.8482 139.798 36.3372C140.426 34.7485 137.851 34.0554 137.232 35.6305C136.196 38.2602 136.123 41.2891 136.507 44.0591C136.818 46.2977 137.472 48.6469 139.506 49.9307C141.637 51.2739 144.493 50.8343 146.883 50.8262C149.615 50.8181 152.328 50.3326 154.8 49.1485C159.21 47.0367 162.21 42.7644 162.002 37.8017C161.788 32.7149 158.759 28.4292 154.643 25.6188C153.661 24.9472 152.62 24.3592 151.541 23.8548C150.678 23.4503 149.374 23.2399 148.682 22.5656C147.879 21.7834 147.622 20.2865 147.281 19.267C146.894 18.1073 146.462 16.9772 145.891 15.8929C143.836 11.9848 140.228 8.67002 136.004 7.24865C131.312 5.66812 125.924 6.43138 121.878 9.30113C120.913 9.98619 120.148 10.8223 119.417 11.742C118.784 12.5377 118.184 13.4736 117.264 13.9537C115.688 14.779 114.033 15.4075 113.873 17.4599C113.659 20.1787 116.353 22.304 118.628 23.2075C119.782 23.6661 120.996 23.9061 122.2 24.192C123.669 24.54 125.091 24.9229 126.595 25.1063C128.152 25.2951 129.721 25.3275 131.29 25.314C132.22 25.3059 133.653 25.0794 134.494 25.5999C135.422 26.1744 134.037 27.4609 133.689 28.0866C132.98 29.3624 132.713 30.8539 132.861 32.2969C132.999 33.6454 134.908 34.0689 135.33 32.6313C135.587 31.7521 137.467 30.0259 138.416 30.8404C139.579 31.8383 137.94 34.6623 137.54 35.7168C137.142 36.766 138.9 37.5158 139.37 36.4855H139.384Z" fill="#232323"/>
<path d="M163.944 238.352C165.229 237.422 166.735 237.119 168.292 237.405C168.934 237.524 169.215 236.591 168.566 236.416C166.768 235.927 164.901 236.348 163.427 237.475C162.919 237.867 163.406 238.743 163.941 238.355L163.944 238.352Z" fill="white"/>
<path d="M166.867 242.476C167.713 241.775 168.738 241.376 169.831 241.263C170.504 241.195 170.526 240.146 169.831 240.195C168.436 240.289 167.186 240.831 166.126 241.737C165.609 242.177 166.353 242.903 166.867 242.476Z" fill="white"/>
<path d="M170.509 244.782C171.251 244.601 171.991 244.418 172.732 244.237C173.338 244.089 173.081 243.153 172.475 243.306C171.737 243.493 170.999 243.681 170.258 243.868C169.666 244.019 169.917 244.928 170.509 244.782Z" fill="white"/>
<path d="M107.134 235.354C108.748 235.3 110.166 235.999 111.185 237.237C111.532 237.657 112.284 237.088 111.951 236.649C110.799 235.13 109.049 234.313 107.137 234.418C106.537 234.45 106.528 235.376 107.137 235.357L107.134 235.354Z" fill="white"/>
<path d="M105.816 240.254C106.998 240.928 108.164 241.659 109.397 242.237C109.965 242.501 110.433 241.735 109.892 241.39C108.745 240.659 107.501 240.065 106.298 239.429C105.754 239.14 105.276 239.949 105.814 240.254H105.816Z" fill="white"/>
<path d="M104.119 244.462C105.078 244.874 105.974 245.4 106.785 246.058C107.277 246.46 107.983 245.756 107.485 245.36C106.563 244.626 105.576 244.041 104.489 243.587C103.991 243.38 103.621 244.248 104.119 244.462Z" fill="white"/>
<path d="M84.498 128.47C85.9615 134.601 88.4656 139.734 92.8036 144.305C96.9009 148.623 101.801 151.377 107.075 154.196C112.597 157.149 123.237 162.521 129.116 157.467C130.293 156.456 131.045 155.05 131.713 153.656C135.778 145.182 140.215 133.269 139.972 123.877C137.6 122.458 133.833 120.63 131.547 119.076C121.928 112.541 113.147 108.417 105.271 99.8726" fill="white"/>
<path d="M81.9629 106.436C81.1299 112.747 81.3381 119.169 82.4953 125.478C83.9639 133.486 87.1713 140.9 93.2158 146.537C96.2288 149.347 99.6957 151.586 103.279 153.593C106.205 155.23 109.17 156.837 112.256 158.159C118.008 160.627 126.586 163.095 131.162 157.172C132.392 155.581 133.18 153.668 134.005 151.848C134.805 150.078 135.568 148.288 136.282 146.48C137.812 142.602 139.135 138.632 140.062 134.564C140.511 132.595 140.86 130.602 141.087 128.593C141.193 127.668 141.266 126.743 141.301 125.812C141.334 124.946 141.58 123.603 140.923 122.926C140.355 122.341 139.365 121.974 138.656 121.586C137.767 121.098 136.871 120.62 135.979 120.132C134.278 119.199 132.655 118.19 131.043 117.117C124.209 112.569 116.956 108.621 110.69 103.275C109.105 101.924 107.598 100.486 106.167 98.9733C105.04 97.7811 103.279 99.5609 104.372 100.764C108.188 104.958 112.62 108.446 117.345 111.569C122.029 114.665 126.797 117.68 131.549 120.674C134.056 122.255 136.747 123.519 139.297 125.03C139.076 124.645 138.853 124.258 138.632 123.873C138.764 130.111 137.096 136.296 135.062 142.149C134.043 145.083 132.879 147.969 131.597 150.801C130.443 153.355 129.377 156.233 126.675 157.504C124.52 158.515 121.948 158.372 119.671 157.908C117.032 157.371 114.495 156.4 112.061 155.27C109.716 154.181 107.436 152.948 105.175 151.699C102.411 150.17 99.6685 148.546 97.1941 146.572C92.3397 142.696 88.767 137.594 86.8143 131.705C84.6184 125.079 83.8233 117.877 84.2075 110.924C84.2937 109.368 84.4537 107.828 84.6835 106.299" fill="#232323"/>
<path d="M187.393 82.6036C193.053 64.1118 197.967 44.048 185.235 27.4796C180.367 21.144 170.636 10.4742 162.574 16.8934C159.102 19.2479 155.389 23.4986 152.416 28.9037C150.485 32.4207 149.128 35.9485 148.373 39.1528C144.722 52.0098 153.625 56.0797 159.902 56.4546L164.489 56.7298C168.689 56.9809 172.067 60.6596 171.45 64.3169C170.801 68.1603 169.927 71.9121 168.83 75.5694C165.625 86.2363 160.505 96.1376 153.614 105.001C153.203 105.532 152.787 106.052 152.373 106.562C150.015 109.461 144.99 109.292 142.055 106.195L138.621 102.573C135.581 99.3663 130.967 98.592 127.63 100.078C123.365 101.432 118.094 106.584 114.14 113.779C111.171 119.182 106.935 128.711 110.614 134.736C114.148 140.53 125.818 142.146 131.93 142.385C147.454 142.998 160.567 128.042 169.4 116.862C177.533 106.568 183.588 95.0427 187.393 82.6036Z" fill="#298FC2"/>
<path d="M188.554 82.9245C192.629 69.5925 196.613 55.0684 193.157 41.1485C191.491 34.4408 187.983 28.6204 183.477 23.4338C179.805 19.2074 174.975 14.4604 169.122 13.7834C166.139 13.4382 163.681 14.5764 161.339 16.3052C158.642 18.293 156.39 20.796 154.426 23.4931C152.073 26.7216 150.167 30.2764 148.728 33.9984C147.473 37.2431 146.41 40.8168 146.324 44.3149C146.202 49.1779 148.539 53.5632 152.92 55.8156C156.368 57.5902 160.1 57.6741 163.881 57.8976C166.396 58.049 168.871 59.2002 169.931 61.6249C170.626 63.219 170.155 64.8561 169.836 66.4856C169.428 68.565 168.952 70.6307 168.4 72.678C166.366 80.2487 163.343 87.5259 159.397 94.3034C157.471 97.6128 155.332 100.804 153.001 103.843C152.065 105.062 151.176 106.489 149.686 107.077C148.414 107.579 146.989 107.525 145.702 107.118C143.657 106.47 142.335 104.749 140.917 103.252C139.319 101.564 137.769 99.9757 135.568 99.053C129.746 96.6125 124.007 99.7813 119.915 103.892C115.163 108.666 111.617 114.915 109.451 121.267C107.558 126.823 106.817 133.851 111.904 137.962C116.229 141.455 122.219 142.609 127.606 143.243C130.305 143.561 133.047 143.758 135.755 143.426C138.935 143.038 141.972 142.094 144.872 140.745C150.848 137.962 156.011 133.577 160.584 128.9C170.596 118.659 179.075 106.67 184.686 93.4835C186.155 90.0314 187.445 86.5117 188.548 82.9271C189.005 81.4465 186.682 80.8154 186.228 82.2878C184.029 89.4299 181.082 96.3184 177.398 102.824C173.941 108.927 169.828 114.572 165.352 119.967C161.274 124.881 156.893 129.628 151.846 133.574C147.089 137.293 141.44 140.441 135.333 141.077C132.764 141.344 130.162 141.147 127.604 140.845C124.904 140.527 122.211 140.004 119.617 139.192C117.202 138.434 114.706 137.39 112.859 135.613C110.874 133.701 110.276 131.025 110.401 128.349C110.544 125.229 111.558 122.143 112.772 119.284C114.038 116.304 115.593 113.407 117.413 110.729C119.233 108.051 121.429 105.44 124.033 103.431C125.967 101.936 128.434 100.631 130.925 100.558C133.632 100.482 136.084 101.664 137.929 103.595C139.022 104.739 140.087 105.909 141.193 107.04C143.184 109.076 146.043 110.147 148.885 109.739C152.228 109.259 153.945 106.592 155.816 104.078C160.236 98.1417 163.903 91.6848 166.764 84.8639C168.241 81.3437 169.496 77.7325 170.518 74.0563C171.067 72.0791 171.548 70.0835 171.965 68.0741C172.316 66.3695 172.873 64.514 172.682 62.7634C172.354 59.7587 170.109 57.291 167.364 56.1771C165.471 55.411 163.343 55.4647 161.331 55.3461C157.98 55.1466 154.556 54.583 151.941 52.2877C147.711 48.5764 148.53 42.9232 149.902 38.063C151.865 31.1071 155.838 24.1728 161.32 19.3827C163.316 17.6376 165.536 16.0274 168.306 16.1218C171.075 16.2162 173.406 17.6187 175.488 19.1345C177.828 20.8418 179.883 22.9564 181.777 25.133C183.8 27.4633 185.679 29.9231 187.199 32.6121C194.141 44.8813 192.435 59.3301 189.06 72.4085C188.205 75.7256 187.234 79.0136 186.233 82.2878C185.782 83.7684 188.102 84.4026 188.554 82.9271V82.9245Z" fill="#298FC2"/>
<path d="M107.074 154.194C112.321 156.998 117.905 159.356 123.812 160.111C129.718 160.866 136.001 159.887 140.888 156.497C145.553 153.26 151.86 142.957 147.014 137.428C145.586 135.802 142.408 137.22 141.626 138.887C141.918 137.118 140.109 135.489 138.311 135.529C136.512 135.57 134.944 136.886 134.081 138.461C134.116 136.298 132.593 134.2 130.522 133.56C128.272 132.867 123.833 134.372 124.361 137.347C124.926 135.308 123.89 132.946 122.008 131.972C116.367 129.059 114.184 137.967 110.668 140.352" fill="white"/>
<path d="M106.182 155.25C108.469 156.437 110.798 157.53 113.154 158.498C120.307 161.435 128.437 162.835 135.946 160.37C138.938 159.388 141.769 157.84 143.963 155.561C145.961 153.486 147.592 151.019 148.717 148.373C149.837 145.743 150.515 142.752 149.791 139.923C149.466 138.65 148.815 137.336 147.873 136.4C146.778 135.311 145.136 135.171 143.716 135.637C142.388 136.074 141.12 136.958 140.463 138.216C141.296 138.439 142.129 138.666 142.962 138.89C143.219 136.457 141.053 134.423 138.73 134.216C136.244 133.992 134.092 135.75 132.915 137.784C133.751 138.011 134.586 138.235 135.422 138.461C135.374 134.928 132.393 131.764 128.747 132.074C125.683 132.333 122.586 134.305 123.055 137.706C123.241 139.057 125.367 138.919 125.659 137.706C126.3 135.06 125.145 132.112 122.684 130.809C120.894 129.86 118.828 129.779 117.077 130.868C115.423 131.901 114.271 133.563 113.21 135.154C112.293 136.527 111.404 138.288 110.022 139.262C108.699 140.195 109.965 142.39 111.304 141.449C113.921 139.602 115.122 136.478 117.275 134.197C118.097 133.325 119.087 132.565 120.318 132.789C122.252 133.142 123.512 135.095 123.055 136.991H125.659C125.453 135.502 127.893 134.815 128.961 134.75C131.055 134.62 132.702 136.427 132.731 138.464C132.75 139.78 134.562 140.308 135.238 139.141C135.86 138.064 136.864 136.977 138.188 136.878C139.365 136.791 140.401 137.714 140.279 138.89C140.141 140.222 142.188 140.694 142.778 139.564C143.23 138.698 144.417 137.911 145.437 138.051C146.381 138.18 146.919 139.615 147.151 140.411C147.83 142.755 147.157 145.341 146.205 147.512C145.182 149.846 143.72 152.041 141.931 153.861C139.895 155.936 137.236 157.281 134.465 158.093C127.525 160.124 120.201 158.681 113.67 155.949C111.485 155.035 109.321 154.007 107.193 152.891" fill="#232323"/>
<path d="M202.666 99.8763C200.667 94.5226 198.65 89.128 195.651 84.2597C192.651 79.3914 188.565 75.0273 183.367 72.6215C181.641 71.8232 179.789 71.2325 178.266 70.0971C176.181 68.5434 175.21 65.7065 176.211 63.2357C176.917 61.4882 179.091 60.3175 180.806 61.1077C179.002 60.3497 177.403 58.6773 177.458 56.7247C177.512 54.7721 179.9 53.0756 181.536 54.1491C179.345 54.2192 178.034 51.1849 179.205 49.3374C180.376 47.4898 183.05 47.061 185.076 47.8971C183.978 47.2282 182.934 46.3408 182.485 45.1406C182.036 43.9377 182.361 42.3788 183.48 41.7449C185.649 40.515 188.438 42.875 190.731 41.5589C193.024 40.2426 191.945 37.8853 190.653 35.9946C190.193 35.3231 189.673 34.6353 189.576 33.8262C189.141 30.1716 196.015 33.1195 197.351 33.8369C200.129 35.3285 202.517 37.497 204.802 39.6385C219.687 53.5988 229.905 71.3915 229.627 92.2216" fill="white"/>
<path d="M230.522 98.1716C230.989 94.8974 231.036 91.5476 230.876 88.346C230.511 81.0259 228.842 73.806 226.011 67.0469C223.19 60.3149 219.333 54.1061 214.749 48.4259C212.372 45.4779 209.803 42.689 207.087 40.0486C204.313 37.3514 201.389 34.4925 197.919 32.6989C196.08 31.7495 193.968 30.9592 191.894 30.7893C190.893 30.7084 189.768 30.8567 189.027 31.5958C188.032 32.5883 188.186 34.1499 188.746 35.3178C189.357 36.5881 190.909 37.9232 190.812 39.4498C190.707 41.1085 188.443 40.6959 187.388 40.472C185.795 40.1348 184.075 39.822 182.631 40.7984C181.266 41.7234 180.786 43.544 181.165 45.0949C181.587 46.8238 182.988 48.0617 184.44 48.9706C184.762 48.2101 185.084 47.4495 185.406 46.6889C182.666 45.6424 178.807 46.4704 177.747 49.5047C176.835 52.1156 178.639 55.3494 181.53 55.3955C182.777 55.4169 183.232 53.6796 182.163 53.0649C179.916 51.7704 177.082 53.3047 176.365 55.6732C175.524 58.462 177.763 61.1076 180.167 62.1837C180.489 61.4206 180.811 60.6576 181.135 59.8966C177.76 58.5403 174.767 61.7526 174.577 64.9163C174.353 68.6676 177.09 71.211 180.267 72.6164C181.968 73.3687 183.667 74.0515 185.249 75.0385C186.777 75.9903 188.175 77.1231 189.465 78.3777C192.11 80.9558 194.239 83.985 196.007 87.2132C198.274 91.3481 199.997 95.7577 201.738 100.13C202.184 101.249 203.999 100.804 203.588 99.62C201.211 92.8016 198.685 85.9049 194.233 80.1171C192.229 77.5144 189.884 75.195 187.153 73.3529C185.766 72.4195 184.291 71.6723 182.756 71.0171C181.219 70.3615 179.638 69.8035 178.488 68.6569C177.392 67.5645 176.814 65.9274 177.149 64.3982C177.485 62.8741 178.894 61.6794 180.467 62.3105C181.776 62.8368 182.731 60.6034 181.436 60.0234C180.178 59.4598 178.569 58.3029 178.707 56.7221C178.791 55.7673 179.94 54.6749 180.897 55.2252C181.109 54.4483 181.319 53.6719 181.53 52.8951C180.235 52.8736 179.686 51.0609 180.227 50.063C181.073 48.496 183.313 48.5526 184.741 49.0974C186.109 49.6207 186.861 47.5385 185.706 46.8157C184.605 46.1279 183.023 44.8413 183.67 43.3499C184.24 42.0363 186.247 42.7969 187.264 42.9965C188.822 43.3013 190.39 43.3471 191.74 42.3843C193.016 41.4726 193.53 40.0566 193.232 38.5328C192.93 36.9738 191.923 35.7871 191.145 34.4547C190.971 34.1553 190.864 33.8964 190.82 33.5565C190.788 33.3084 190.828 33.357 190.828 33.3678C190.828 33.3678 190.712 33.4163 190.818 33.3731C190.85 33.3597 191.058 33.3084 191.15 33.2977C192.856 33.1277 194.871 34.0205 196.364 34.7514C199.499 36.2861 202.095 38.8052 204.588 41.1921C207.101 43.598 209.495 46.1306 211.731 48.7927C216.075 53.9629 219.806 59.67 222.635 65.8036C225.472 71.9531 227.346 78.5935 228.012 85.3332C228.412 89.3816 228.545 93.7078 227.917 97.8586" fill="#232323"/>
<path d="M108.039 116.251C109.981 117.292 112.023 118.436 113.089 120.359C113.865 121.762 113.992 124.445 112.469 125.476C110.798 126.605 106.414 125.419 104.41 125.265" fill="white"/>
<path d="M107.564 117.06C109.06 117.934 110.701 118.846 111.693 120.312C112.367 121.311 112.718 122.867 112.05 123.962C111.466 124.917 109.76 124.577 108.841 124.485C107.388 124.342 105.874 123.843 104.413 123.981C103.034 124.113 102.596 126.079 104.072 126.495C105.912 127.012 108.005 127.301 109.912 127.344C111.821 127.387 113.749 126.859 114.547 124.952C115.261 123.242 114.971 121.041 113.949 119.512C112.651 117.572 110.558 116.448 108.516 115.439C107.44 114.908 106.512 116.442 107.566 117.057L107.564 117.06Z" fill="#232323"/>
<path d="M106.37 139.704C107.184 141.665 109.442 142.571 111.363 141.546C112.901 140.727 111.544 138.448 109.999 139.221C109.802 139.319 109.472 139.365 109.204 139.316C108.904 139.262 108.588 139.103 108.404 138.847C108.082 138.396 107.549 138.156 107.014 138.391C106.557 138.59 106.154 139.184 106.368 139.702L106.37 139.704Z" fill="#232323"/>
<path d="M100.008 94.6178C102.404 99.1327 106.087 103.23 110.206 106.234C111.439 107.133 112.983 105.128 111.842 104.12C109.689 102.218 107.488 100.384 105.446 98.3584C104.004 96.9289 102.569 95.4862 101.487 93.757C100.903 92.8242 99.4937 93.6466 100.01 94.6178H100.008Z" fill="#232323"/>
<path d="M92.81 79.5831C97.4377 85.2063 104.036 89.7836 111.266 91.2831C113.007 91.6447 113.743 89.1014 112.006 88.6078C108.607 87.6422 105.419 86.5012 102.341 84.7399C99.2982 82.9949 96.5098 80.8453 94.1057 78.2938C93.2834 77.4197 92.0744 78.6927 92.81 79.5857V79.5831Z" fill="#232323"/>
<path d="M125.33 114.791C126.788 111.326 129.236 108.48 132.262 106.274C133.306 105.511 132.31 103.752 131.232 104.518C127.778 106.962 125.211 110.433 123.608 114.319C123.169 115.382 124.892 115.835 125.33 114.794V114.791Z" fill="#232323"/>
<path d="M156.416 50.4917C155.318 45.3455 156.11 40.3343 158.071 35.5064C158.466 34.5354 156.838 33.8558 156.37 34.7917C153.896 39.7328 153.492 45.6206 154.72 50.9582C154.975 52.0616 156.652 51.5921 156.416 50.4917Z" fill="#232323"/>
<path d="M148.326 11.3751C149.543 12.4486 150.727 13.5679 151.985 14.5955C153.024 15.4478 154.522 14.0156 153.489 13.0959C152.272 12.0144 150.979 11.0164 149.724 9.9807C148.758 9.18506 147.366 10.5228 148.329 11.3724L148.326 11.3751Z" fill="#232323"/>
<path d="M159.624 4.08504C159.854 5.23402 160.087 6.38302 160.317 7.53466C160.576 8.8293 162.61 8.28718 162.313 6.98717C162.05 5.84627 161.79 4.70539 161.528 3.5645C161.244 2.32382 159.376 2.85246 159.624 4.08775V4.08504Z" fill="#232323"/>
<path d="M142.362 58.0712C143.022 57.3398 143.771 56.7762 144.647 56.3262C145.913 55.6761 144.788 53.7393 143.528 54.4165C142.514 54.9612 141.605 55.6976 140.861 56.5742C140.491 57.011 140.431 57.6446 140.861 58.0737C141.251 58.4619 141.978 58.4997 142.365 58.0737L142.362 58.0712Z" fill="#232323"/>
<path d="M157.869 138.451C161.256 155.824 158.743 173.559 157.42 191.007C157.047 195.93 156.644 200.906 156.755 205.844C156.774 206.686 158.04 206.686 158.067 205.844C158.213 201.407 158.302 196.982 158.591 192.55C158.881 188.111 159.259 183.677 159.611 179.243C160.311 170.439 160.923 161.59 160.49 152.754C160.249 147.875 159.681 143.012 158.689 138.227C158.578 137.691 157.764 137.92 157.869 138.454V138.451Z" fill="#298FC2"/>
<path d="M164.373 206.842C165.776 207.214 167.198 207.249 168.61 206.895C169.34 206.712 169.03 205.579 168.299 205.771C167.082 206.089 165.882 206.122 164.659 205.811C163.991 205.641 163.707 206.666 164.375 206.842H164.373Z" fill="#298FC2"/>
<path d="M138.792 205.31C140.331 205.787 141.87 206.264 143.433 206.666C144.147 206.849 144.45 205.76 143.739 205.563C142.184 205.132 140.612 204.778 139.038 204.422C138.46 204.29 138.224 205.132 138.792 205.31Z" fill="#298FC2"/>
<path d="M99.8399 156.678C95.364 169.83 97.5897 184.084 102.685 196.712C104.121 200.272 105.719 203.811 107.637 207.142C108.026 207.822 109.022 207.223 108.681 206.535C105.708 200.523 102.826 194.552 100.968 188.081C99.1259 181.662 98.2011 174.957 98.615 168.279C98.8556 164.422 99.5696 160.611 100.765 156.935C100.957 156.347 100.037 156.102 99.8399 156.681V156.678Z" fill="#298FC2"/>
<path d="M96.3378 212.004C97.6525 212.09 98.9641 212.198 100.276 212.287C100.963 212.333 100.965 211.254 100.276 211.219C98.9641 211.149 97.6494 211.098 96.3378 211.025C95.7049 210.99 95.7105 211.963 96.3378 212.004Z" fill="#298FC2"/>
<path d="M118.244 204.365C118.88 204.365 118.88 203.381 118.244 203.381C117.609 203.381 117.609 204.365 118.244 204.365Z" fill="#298FC2"/>
<path d="M5.7681 232.031C-0.963307 225.69 2.81211 215.131 8.68077 209.631C11.5827 206.909 15.9693 204.45 20.0963 205.283C22.4843 205.766 24.8101 207.244 25.7702 209.555C26.2083 210.61 26.3652 211.932 25.8297 212.981C25.2104 214.195 23.7581 214.303 22.6385 213.731C20.2098 212.493 19.9827 208.881 20.1855 206.516C20.4154 203.872 21.4972 201.359 22.9684 199.177C26.1137 194.511 31.4901 190.678 37.064 189.629C39.8523 189.106 42.8489 189.527 45.1017 191.344C47.011 192.887 48.5471 195.992 46.8839 198.257C45.3261 200.38 42.0943 199.792 40.3445 198.305C38.2432 196.52 37.1506 193.734 36.6637 191.088C35.6469 185.543 37.5725 179.677 40.8124 175.181C44.0523 170.685 49.3531 166.849 55.2404 167.248C60.5006 167.607 65.1658 171.734 64.4467 177.282C64.1409 179.634 62.5129 182.344 59.9328 182.635C56.831 182.984 55.876 178.649 55.9709 176.362C56.236 170.042 62.1153 165.708 67.2591 163.079C70.0556 161.649 73.0415 160.608 76.1165 159.969C78.6992 159.432 81.5116 159 84.1296 159.54C86.0957 159.947 88.4512 161.002 88.6107 163.291C88.7923 165.862 85.8603 167.739 83.5428 167.593C80.8222 167.424 78.5314 165.339 77.1168 163.159C75.5184 160.694 74.648 157.781 74.5018 154.855C74.2176 149.156 76.5787 143.629 80.7653 139.767C82.7719 137.917 85.1463 136.423 87.6889 135.417C90.3254 134.375 93.4113 133.615 96.2078 134.451C98.536 135.147 100.327 137.278 100.094 139.789C99.8779 142.141 97.5922 143.082 95.5641 142.168C93.3518 141.17 92.4593 138.845 93.3574 136.609C94.3905 134.036 97.1055 132.385 99.8343 132.406C102.769 132.428 105.56 133.661 108.513 133.016C109.814 132.733 109.262 130.743 107.964 131.026C104.28 131.827 100.659 129.685 96.9757 130.923C94.0576 131.905 91.5154 134.435 91.08 137.556C90.6881 140.366 92.2915 142.923 94.8798 144.026C97.3871 145.094 100.386 144.363 101.571 141.761C102.709 139.252 101.755 136.035 99.7261 134.252C97.1409 131.978 93.3302 131.927 90.1418 132.655C83.686 134.127 77.7256 138.591 74.6372 144.447C71.3888 150.607 71.3862 158.674 75.3481 164.532C77.1983 167.27 79.9892 169.552 83.3915 169.832C86.4717 170.086 89.6981 168.009 90.6096 165.034C91.4883 162.162 89.7038 159.418 87.1155 158.237C84.2728 156.942 81.1279 157.04 78.1016 157.457C70.8507 158.456 63.1484 161.622 58.0318 166.984C55.5164 169.619 53.7642 172.988 53.6965 176.683C53.6395 179.779 55.0322 184 58.4509 184.804C61.7881 185.589 64.8955 182.951 66.0804 180.035C67.235 177.187 66.94 173.867 65.5284 171.164C62.3426 165.053 54.1453 163.85 48.2605 166.315C41.8509 169.001 37.0126 175.2 35.0519 181.748C33.2021 187.93 33.7511 196.542 39.4872 200.625C41.9888 202.405 45.6777 202.586 48.0657 200.493C50.6836 198.198 50.3131 194.061 48.4065 191.452C43.744 185.071 35.0222 186.867 29.1589 190.366C23.4606 193.767 18.5926 199.452 17.8164 206.216C17.4567 209.364 17.9814 213.288 20.675 215.341C23.4065 217.42 27.4578 216.525 28.3827 213.04C29.2211 209.874 27.4416 206.715 24.9345 204.865C22.4275 203.015 19.3336 202.508 16.3452 203.069C11.1391 204.048 6.67949 207.797 3.78571 212.086C0.967671 216.263 -0.80645 221.817 0.71886 226.798C1.44365 229.166 2.94192 231.348 4.76743 233.007C5.43274 233.611 6.41712 232.64 5.75728 232.02L5.7681 232.031Z" fill="#232323"/>
<path d="M105.839 130.457C105.658 131.792 105.36 133.828 106.402 134.902C107.521 136.056 109.471 135.684 110.55 134.664C111.613 133.661 111.864 131.994 111.083 130.746C110.283 129.467 108.327 128.938 107.069 129.872C105.809 130.808 106.88 132.796 108.327 132.019C109.001 131.657 109.079 132.628 108.587 132.941C108.227 133.17 108.003 133.141 107.83 132.771C107.532 132.14 107.462 131.363 107.456 130.678C107.448 129.791 105.969 129.516 105.839 130.46V130.457Z" fill="#232323"/>
<path d="M111.871 35.7975C107.911 34.2413 103.081 33.2946 101.337 28.8929C100.372 26.4574 100.336 23.7171 99.7411 21.1791C99.1923 18.8272 98.4162 16.5373 97.437 14.3311C95.5304 10.0372 92.6851 6.07517 88.7991 3.35914C84.2232 0.163042 78.7357 -0.37908 73.3432 0.570309C70.6087 1.0504 67.9425 1.88112 65.346 2.85208C62.9526 3.74753 60.5295 4.7131 58.3767 6.10749C56.2834 7.46146 54.4686 9.23618 53.4597 11.5395C52.3702 14.029 52.1645 16.8475 51.8834 19.5231C51.3288 24.8256 51.418 30.5327 54.9908 34.8481C58.1469 38.6619 63.2014 40.4366 68.0128 40.8223C71.6228 41.1136 75.236 40.6685 78.806 40.1588C82.3515 39.6544 85.8892 39.1447 89.4536 38.7887C96.8256 38.0523 104.204 37.9795 111.606 37.8959C113.09 37.8797 113.074 35.6843 111.606 35.6087C105.431 35.2824 99.1569 35.5656 93.0042 36.1347C89.8752 36.4233 86.7545 36.7442 83.6389 37.1623C80.6316 37.5668 77.6375 38.0982 74.6168 38.4029C69.4136 38.9316 63.918 38.7212 59.4041 35.7868C57.4626 34.5245 55.8859 32.7525 54.9744 30.6163C53.9331 28.1808 53.7546 25.4729 53.8413 22.8567C53.928 20.2675 54.1768 17.5973 54.6717 15.0539C55.1611 12.5483 56.2562 10.4877 58.2438 8.85322C60.1099 7.31851 62.4063 6.3071 64.6376 5.42243C67.1064 4.44339 69.627 3.58031 72.2178 2.98694C77.3621 1.80829 82.7059 1.92697 87.2357 4.89111C91.057 7.39134 93.7536 11.2968 95.5842 15.4099C96.604 17.7025 97.3477 20.1245 97.8699 22.5735C98.4567 25.3246 98.5511 28.2267 99.9063 30.7539C102.219 35.0774 107.119 36.0915 111.338 37.7044C112.536 38.1629 113.039 36.2588 111.865 35.7975H111.871Z" fill="#298FC2"/>
<path d="M61.2753 14.9947C60.9835 16.0925 60.7131 17.3169 61.2348 18.3904C61.6462 19.2346 62.4412 19.8577 63.4066 19.8631C64.572 19.8658 65.5758 19.0351 66.4652 18.3769C67.4768 17.6298 68.437 16.8261 69.351 15.9657H67.8553C69.113 17.1471 70.8088 17.7296 72.4856 18.0263C74.4973 18.3824 76.5609 18.555 78.6029 18.6359C82.8408 18.8058 87.1218 18.4821 91.2356 17.4222C92.8041 17.0176 92.1414 14.6495 90.5672 15.0082C86.8217 15.8632 83.0167 16.2489 79.1764 16.1707C75.8418 16.1006 72.0583 16.1006 69.1371 14.3124C68.7396 14.0696 68.1826 14.1505 67.8553 14.4769C66.8874 15.4506 65.862 16.3703 64.7587 17.1902C64.2637 17.5597 63.5123 18.2852 62.9172 17.8025C62.2843 17.2873 62.6762 16.0628 62.8306 15.4236C63.0768 14.4149 61.5405 13.9887 61.2702 14.9947H61.2753Z" fill="#298FC2"/>
<path d="M65.2308 27.3022C68.9358 27.6825 72.6248 28.195 76.338 28.497C77.885 28.6238 77.823 26.3043 76.338 26.1236C72.6464 25.6759 68.9389 25.5032 65.2308 25.2578C63.9003 25.1688 63.9408 27.1701 65.2308 27.3022Z" fill="#298FC2"/>
<path d="M84.2131 28.329L84.9815 28.3236C85.5657 28.3209 86.1279 27.8138 86.1012 27.207C86.074 26.6001 85.6088 26.0958 84.9815 26.0903L84.2131 26.085C83.6263 26.0823 83.0641 26.6028 83.0908 27.2042C83.1179 27.8084 83.5857 28.329 84.2131 28.3236V28.329Z" fill="#298FC2"/>
</g>
</g>
<defs>
<clipPath id="clip0_799_1981">
<rect width="230.822" height="256.227" fill="white" transform="translate(0.167969 0.149414)"/>
</clipPath>
</defs>
</svg>
