<svg width="22" height="23" viewBox="0 0 22 23" fill="none" xmlns="http://www.w3.org/2000/svg">
<g clip-path="url(#clip0_470_11847)">
<path d="M19.554 3.2207H2.44293C2.11877 3.2207 1.80789 3.34947 1.57868 3.57868C1.34947 3.80789 1.2207 4.11877 1.2207 4.44293V17.8874C1.2207 18.2115 1.34947 18.5224 1.57868 18.7516C1.80789 18.9808 2.11877 19.1096 2.44293 19.1096H19.554C19.8782 19.1096 20.1891 18.9808 20.4183 18.7516C20.6475 18.5224 20.7763 18.2115 20.7763 17.8874V4.44293C20.7763 4.11877 20.6475 3.80789 20.4183 3.57868C20.1891 3.34947 19.8782 3.2207 19.554 3.2207ZM2.44293 4.44293H19.554V5.78737H2.44293V4.44293ZM2.44293 17.8874V6.76515H19.554V17.8874H2.44293Z" fill="#1D7CCF"/>
<path d="M10.3877 14.2207H14.0544V15.4429H10.3877V14.2207Z" fill="#1D7CCF"/>
<path d="M4.2793 9.74874L8.42874 11.6554L4.2793 13.556V14.9004L10.146 12.2054V11.0993L4.2793 8.4043V9.74874Z" fill="#1D7CCF"/>
</g>
<defs>
<clipPath id="clip0_470_11847">
<rect width="22" height="22" fill="white" transform="translate(0 0.166016)"/>
</clipPath>
</defs>
</svg>
