<svg width="51" height="36" viewBox="0 0 51 36" fill="none" xmlns="http://www.w3.org/2000/svg">
<rect x="14.5093" y="5.77759" width="21.4184" height="24.5275" fill="white"/>
<path d="M20.2669 25.5836L33.415 17.9835L20.2669 10.3834V25.5836ZM49.5525 5.74739C49.8818 6.93806 50.1098 8.53408 50.2618 10.5608C50.4392 12.5875 50.5152 14.3355 50.5152 15.8555L50.6672 17.9835C50.6672 23.5316 50.2618 27.6103 49.5525 30.2196C48.9191 32.4996 47.4498 33.969 45.1698 34.6023C43.9791 34.9317 41.8004 35.1597 38.4564 35.3117C35.163 35.489 32.1483 35.565 29.3616 35.565L25.3336 35.717C14.7188 35.717 8.10675 35.3117 5.49739 34.6023C3.21737 33.969 1.74802 32.4996 1.11468 30.2196C0.785341 29.0289 0.557339 27.4329 0.405338 25.4062C0.228002 23.3796 0.152001 21.6315 0.152001 20.1115L0 17.9835C0 12.4354 0.405337 8.35674 1.11468 5.74739C1.74802 3.46736 3.21737 1.99802 5.49739 1.36468C6.68807 1.03534 8.86675 0.807338 12.2108 0.655337C15.5042 0.478002 18.5188 0.402001 21.3055 0.402001L25.3336 0.25C35.9484 0.25 42.5604 0.655337 45.1698 1.36468C47.4498 1.99802 48.9191 3.46736 49.5525 5.74739Z" fill="#FF0000"/>
</svg>
