<svg width="46" height="45" viewBox="0 0 46 45" fill="none" xmlns="http://www.w3.org/2000/svg">
<path d="M20.41 5.55002H16.21C16.01 5.55002 15.835 5.50002 15.685 5.40002C15.535 5.30002 15.46 5.15002 15.46 4.95002C15.46 4.75002 15.535 4.57502 15.685 4.42502C15.835 4.27502 16.01 4.20002 16.21 4.20002H20.41C20.61 4.20002 20.76 4.27502 20.86 4.42502C20.96 4.57502 21.01 4.75002 21.01 4.95002C21.01 5.15002 20.96 5.30002 20.86 5.40002C20.76 5.50002 20.61 5.55002 20.41 5.55002ZM25.96 43.65H10.51C9.51001 43.65 8.68501 43.3 8.03501 42.6C7.38501 41.9 7.06001 41.05 7.06001 40.05V30.3C7.06001 30.1 7.11001 29.925 7.21001 29.775C7.31001 29.625 7.46001 29.55 7.66001 29.55C7.86001 29.55 8.03501 29.625 8.18501 29.775C8.33501 29.925 8.41001 30.1 8.41001 30.3V40.05C8.41001 40.65 8.61001 41.15 9.01001 41.55C9.41001 41.95 9.91001 42.15 10.51 42.15H25.96C26.56 42.15 27.06 41.95 27.46 41.55C27.86 41.15 28.06 40.65 28.06 40.05V16.2C28.06 16 28.135 15.825 28.285 15.675C28.435 15.525 28.61 15.45 28.81 15.45C29.01 15.45 29.185 15.525 29.335 15.675C29.485 15.825 29.56 16 29.56 16.2V40.05C29.56 41.05 29.21 41.9 28.51 42.6C27.81 43.3 26.96 43.65 25.96 43.65ZM28.81 7.05002C28.61 7.05002 28.435 6.97502 28.285 6.82502C28.135 6.67502 28.06 6.50002 28.06 6.30002V4.95002C28.06 4.35002 27.86 3.85002 27.46 3.45002C27.06 3.05002 26.56 2.85002 25.96 2.85002H10.51C9.91001 2.85002 9.41001 3.05002 9.01001 3.45002C8.61001 3.85002 8.41001 4.35002 8.41001 4.95002V6.30002C8.41001 6.50002 8.33501 6.67502 8.18501 6.82502C8.03501 6.97502 7.86001 7.05002 7.66001 7.05002C7.46001 7.05002 7.31001 6.97502 7.21001 6.82502C7.11001 6.67502 7.06001 6.50002 7.06001 6.30002V4.95002C7.06001 3.95002 7.38501 3.10002 8.03501 2.40002C8.68501 1.70002 9.51001 1.35002 10.51 1.35002H25.96C26.96 1.35002 27.81 1.70002 28.51 2.40002C29.21 3.10002 29.56 3.95002 29.56 4.95002V6.30002C29.56 6.50002 29.485 6.67502 29.335 6.82502C29.185 6.97502 29.01 7.05002 28.81 7.05002ZM17.56 35.1H11.86C11.66 35.1 11.51 35.05 11.41 34.95C11.31 34.85 11.26 34.7 11.26 34.5C11.26 34.3 11.31 34.125 11.41 33.975C11.51 33.825 11.66 33.75 11.86 33.75H17.56C17.76 33.75 17.935 33.825 18.085 33.975C18.235 34.125 18.31 34.3 18.31 34.5C18.31 34.7 18.235 34.85 18.085 34.95C17.935 35.05 17.76 35.1 17.56 35.1ZM21.76 37.95H11.86C11.66 37.95 11.51 37.875 11.41 37.725C11.31 37.575 11.26 37.4 11.26 37.2C11.26 37 11.31 36.85 11.41 36.75C11.51 36.65 11.66 36.6 11.86 36.6H21.76C21.96 36.6 22.135 36.65 22.285 36.75C22.435 36.85 22.51 37 22.51 37.2C22.51 37.4 22.435 37.575 22.285 37.725C22.135 37.875 21.96 37.95 21.76 37.95ZM24.61 32.4H11.86C11.66 32.4 11.51 32.325 11.41 32.175C11.31 32.025 11.26 31.85 11.26 31.65C11.26 31.45 11.31 31.275 11.41 31.125C11.51 30.975 11.66 30.9 11.86 30.9H24.61C24.81 30.9 24.96 30.975 25.06 31.125C25.16 31.275 25.21 31.45 25.21 31.65C25.21 31.85 25.16 32.025 25.06 32.175C24.96 32.325 24.81 32.4 24.61 32.4ZM9.76001 19.65C8.86001 19.65 8.06001 19.325 7.36001 18.675C6.66001 18.025 6.31001 17.2 6.31001 16.2C6.31001 15.2 6.66001 14.35 7.36001 13.65C8.06001 12.95 8.88501 12.6 9.83501 12.6C10.785 12.6 11.61 12.95 12.31 13.65C13.01 14.35 13.36 15.2 13.36 16.2C13.36 17.2 13.01 18.025 12.31 18.675C11.61 19.325 10.76 19.65 9.76001 19.65ZM9.76001 14.1C9.26001 14.1 8.78501 14.3 8.33501 14.7C7.88501 15.1 7.66001 15.6 7.66001 16.2C7.66001 16.8 7.88501 17.3 8.33501 17.7C8.78501 18.1 9.28501 18.3 9.83501 18.3C10.385 18.3 10.86 18.1 11.26 17.7C11.66 17.3 11.86 16.8 11.86 16.2C11.86 15.6 11.66 15.1 11.26 14.7C10.86 14.3 10.36 14.1 9.76001 14.1ZM9.76001 28.05C7.26001 28.05 5.06001 27.2 3.16001 25.5C2.96001 25.3 2.91001 25.05 3.01001 24.75C3.21001 23.75 3.76001 22.9 4.66001 22.2C5.56001 21.5 6.56001 21.15 7.66001 21.15H11.86C13.06 21.15 14.085 21.475 14.935 22.125C15.785 22.775 16.36 23.65 16.66 24.75C16.76 25.05 16.71 25.3 16.51 25.5C14.61 27.2 12.36 28.1 9.76001 28.2V28.05ZM4.36001 24.75C5.96001 26.05 7.78501 26.7 9.83501 26.7C11.885 26.7 13.66 26.05 15.16 24.75C14.96 24.05 14.56 23.5 13.96 23.1C13.36 22.7 12.66 22.5 11.86 22.5H7.66001C6.96001 22.5 6.31001 22.7 5.71001 23.1C5.11001 23.5 4.66001 24.05 4.36001 24.75ZM9.76001 28.05C8.06001 28.05 6.43501 27.625 4.88501 26.775C3.33501 25.925 2.13501 24.75 1.28501 23.25C0.43501 21.75 0.0100098 20.1 0.0100098 18.3C0.0100098 16.5 0.43501 14.85 1.28501 13.35C2.13501 11.85 3.33501 10.65 4.88501 9.75002C6.43501 8.85002 8.08501 8.40002 9.83501 8.40002C11.585 8.40002 13.21 8.85002 14.71 9.75002C16.21 10.65 17.41 11.85 18.31 13.35C19.21 14.85 19.66 16.5 19.66 18.3C19.66 20.1 19.21 21.75 18.31 23.25C17.41 24.75 16.21 25.95 14.71 26.85C13.21 27.75 11.56 28.15 9.76001 28.05ZM9.76001 9.90002C7.46001 9.90002 5.48501 10.725 3.83501 12.375C2.18501 14.025 1.36001 16 1.36001 18.3C1.36001 20.6 2.18501 22.575 3.83501 24.225C5.48501 25.875 7.48501 26.7 9.83501 26.7C12.185 26.7 14.185 25.875 15.835 24.225C17.485 22.575 18.31 20.6 18.31 18.3C18.31 16 17.485 14.025 15.835 12.375C14.185 10.725 12.16 9.90002 9.76001 9.90002ZM3.46001 32.25C3.26001 32.25 3.11001 32.2 3.01001 32.1C2.91001 32 2.81001 31.85 2.71001 31.65V31.5C2.81001 31.3 2.91001 31.125 3.01001 30.975C3.11001 30.825 3.26001 30.75 3.46001 30.75C3.66001 30.75 3.83501 30.825 3.98501 30.975C4.13501 31.125 4.21001 31.3 4.21001 31.5C4.21001 31.7 4.13501 31.875 3.98501 32.025C3.83501 32.175 3.66001 32.25 3.46001 32.25ZM3.46001 35.1C3.26001 35.1 3.08501 35.05 2.93501 34.95C2.78501 34.85 2.71001 34.7 2.71001 34.5V34.35C2.81001 34.15 2.91001 33.975 3.01001 33.825C3.11001 33.675 3.26001 33.6 3.46001 33.6C3.66001 33.6 3.83501 33.675 3.98501 33.825C4.13501 33.975 4.21001 34.15 4.21001 34.35C4.21001 34.55 4.13501 34.725 3.98501 34.875C3.83501 35.025 3.66001 35.1 3.46001 35.1ZM3.46001 37.95C3.26001 37.95 3.11001 37.875 3.01001 37.725C2.91001 37.575 2.81001 37.4 2.71001 37.2V37.05C2.71001 36.95 2.78501 36.825 2.93501 36.675C3.08501 36.525 3.26001 36.45 3.46001 36.45C3.66001 36.45 3.83501 36.525 3.98501 36.675C4.13501 36.825 4.21001 36.975 4.21001 37.125C4.21001 37.275 4.13501 37.45 3.98501 37.65C3.83501 37.85 3.66001 37.95 3.46001 37.95ZM31.36 37.95H30.16C29.96 37.95 29.81 37.875 29.71 37.725C29.61 37.575 29.56 37.4 29.56 37.2C29.56 37 29.61 36.85 29.71 36.75C29.81 36.65 29.96 36.6 30.16 36.6H30.76L31.21 34.95C31.21 34.65 31.36 34.5 31.66 34.5C32.36 34.3 33.01 34 33.61 33.6C33.81 33.5 34.06 33.5 34.36 33.6L35.71 34.5L36.61 33.6L35.71 32.25C35.51 32.05 35.51 31.8 35.71 31.5C36.11 30.9 36.36 30.25 36.46 29.55C36.56 29.35 36.76 29.2 37.06 29.1L38.71 28.8V27.45L37.06 27.15C36.76 27.05 36.56 26.9 36.46 26.7C36.36 26 36.11 25.35 35.71 24.75C35.51 24.45 35.51 24.2 35.71 24L36.61 22.65L35.71 21.75L34.36 22.65C34.06 22.75 33.81 22.75 33.61 22.65C33.01 22.25 32.36 21.95 31.66 21.75C31.36 21.75 31.21 21.6 31.21 21.3L30.76 19.65H30.16C29.96 19.65 29.81 19.6 29.71 19.5C29.61 19.4 29.56 19.25 29.56 19.05C29.56 18.85 29.61 18.675 29.71 18.525C29.81 18.375 29.96 18.3 30.16 18.3H31.36C31.76 18.3 32.01 18.5 32.11 18.9L32.41 20.55C32.91 20.75 33.41 20.95 33.91 21.15L35.41 20.25C35.81 20.05 36.11 20.1 36.31 20.4L37.96 22.05C38.26 22.25 38.31 22.5 38.11 22.8L37.06 24.45C37.36 24.85 37.61 25.35 37.81 25.95L39.46 26.25C39.86 26.35 40.06 26.6 40.06 27V29.25C40.06 29.65 39.86 29.9 39.46 30L37.81 30.3C37.61 30.9 37.36 31.4 37.06 31.8L38.11 33.3C38.31 33.7 38.26 34 37.96 34.2L36.31 35.85C36.11 36.15 35.81 36.2 35.41 36L33.91 35.1C33.41 35.3 32.91 35.5 32.41 35.7L32.11 37.35C32.01 37.75 31.76 37.95 31.36 37.95ZM31.66 31.95C31.36 31.95 31.16 31.85 31.06 31.65C30.96 31.45 30.935 31.25 30.985 31.05C31.035 30.85 31.16 30.75 31.36 30.75C31.86 30.45 32.26 30.075 32.56 29.625C32.86 29.175 33.01 28.7 33.01 28.2C33.01 27.4 32.735 26.725 32.185 26.175C31.635 25.625 30.96 25.35 30.16 25.35C29.76 25.35 29.435 25.4 29.185 25.5C28.935 25.6 28.735 25.625 28.585 25.575C28.435 25.525 28.31 25.4 28.21 25.2C28.11 25 28.11 24.8 28.21 24.6C28.31 24.4 28.41 24.3 28.51 24.3C29.11 24 29.66 23.85 30.16 23.85C31.36 23.85 32.36 24.275 33.16 25.125C33.96 25.975 34.36 26.95 34.36 28.05C34.36 28.95 34.16 29.75 33.76 30.45C33.36 31.15 32.76 31.65 31.96 31.95H31.66ZM33.76 14.1H25.36C24.56 14.1 23.885 13.825 23.335 13.275C22.785 12.725 22.51 12.05 22.51 11.25C22.51 10.45 22.785 9.77502 23.335 9.22502C23.885 8.67502 24.56 8.40002 25.36 8.40002H33.76C34.56 8.40002 35.235 8.67502 35.785 9.22502C36.335 9.77502 36.585 10.45 36.535 11.25C36.485 12.05 36.21 12.725 35.71 13.275C35.21 13.825 34.56 14.1 33.76 14.1ZM25.36 9.90002C24.96 9.90002 24.61 10.025 24.31 10.275C24.01 10.525 23.86 10.85 23.86 11.25C23.86 11.65 24.01 11.975 24.31 12.225C24.61 12.475 24.91 12.6 25.21 12.6H33.76C34.16 12.6 34.485 12.475 34.735 12.225C34.985 11.975 35.11 11.65 35.11 11.25C35.11 10.85 34.985 10.525 34.735 10.275C34.485 10.025 34.16 9.90002 33.76 9.90002H25.36Z" fill="#1D7CCF"/>
</svg>
